STARTFONT 2.1
FONT -FontForge-Noto Sans-Bold-R-Normal-Sans--24-180-96-96-P-135-ISO10646-1
SIZE 18 96 96
FONTBOUNDINGBOX 51 35 -16 -9
COMMENT "Generated by fontforge, http://fontforge.sourceforge.net"
COMMENT "Copyright 2012 Google Inc. All Rights Reserved."
STARTPROPERTIES 40
FOUNDRY "FontForge"
FAMILY_NAME "Noto Sans"
WEIGHT_NAME "Bold"
SLANT "R"
SETWIDTH_NAME "Normal"
ADD_STYLE_NAME "Sans"
PIXEL_SIZE 24
POINT_SIZE 180
RESOLUTION_X 96
RESOLUTION_Y 96
SPACING "P"
AVERAGE_WIDTH 135
CHARSET_REGISTRY "ISO10646"
CHARSET_ENCODING "1"
FONTNAME_REGISTRY ""
CHARSET_COLLECTIONS "ASCII ISOLatin1Encoding ISO8859-2 ISO8859-5 ISO8859-7 ISO8859-9 ISO8859-4 ISO10646-1"
FONT_NAME "NotoSans-Bold"
FACE_NAME "Noto Sans Bold"
COPYRIGHT "Copyright 2012 Google Inc. All Rights Reserved."
FONT_VERSION "1.04"
FONT_ASCENT 19
FONT_DESCENT 5
UNDERLINE_POSITION -2
UNDERLINE_THICKNESS 2
X_HEIGHT 12
CAP_HEIGHT 16
DEFAULT_CHAR 2362
RAW_ASCENT 799
RAW_DESCENT 200
NORM_SPACE 6
RELATIVE_WEIGHT 70
RELATIVE_SETWIDTH 50
SUPERSCRIPT_X 0
SUPERSCRIPT_Y 11
SUPERSCRIPT_SIZE 15
SUBSCRIPT_X 0
SUBSCRIPT_Y 3
SUBSCRIPT_SIZE 15
AVG_LOWERCASE_WIDTH 148
AVG_UPPERCASE_WIDTH 172
ENDPROPERTIES
CHARS 3039
STARTCHAR glyph2362.dup1
ENCODING 0
SWIDTH 0 0
DWIDTH 0 0
BBX 1 1 0 0
BITMAP
00
ENDCHAR
STARTCHAR uni000D
ENCODING 13
SWIDTH 259 0
DWIDTH 6 0
BBX 1 1 0 0
BITMAP
00
ENDCHAR
STARTCHAR space
ENCODING 32
SWIDTH 259 0
DWIDTH 6 0
BBX 1 1 0 0
BITMAP
00
ENDCHAR
STARTCHAR exclam
ENCODING 33
SWIDTH 402 0
DWIDTH 10 0
BBX 4 17 3 0
BITMAP
F0
F0
F0
F0
F0
70
70
70
70
70
70
00
00
60
F0
F0
F0
ENDCHAR
STARTCHAR quotedbl
ENCODING 34
SWIDTH 545 0
DWIDTH 13 0
BBX 8 7 3 11
BITMAP
E7
E7
E7
E7
E7
E6
C6
ENDCHAR
STARTCHAR numbersign
ENCODING 35
SWIDTH 665 0
DWIDTH 16 0
BBX 14 15 1 0
BITMAP
0670
0E70
0E70
0E60
7FFC
7FFC
1CE0
1CE0
1CC0
FFF8
FFF8
39C0
39C0
39C0
3180
ENDCHAR
STARTCHAR dollar
ENCODING 36
SWIDTH 571 0
DWIDTH 14 0
BBX 12 19 1 -1
BITMAP
0600
0600
1FC0
7FF0
FFE0
F620
F600
FE00
7F00
3FC0
0FE0
07F0
06F0
C6F0
FFF0
FFE0
3F80
0600
0600
ENDCHAR
STARTCHAR percent
ENCODING 37
SWIDTH 899 0
DWIDTH 22 0
BBX 20 15 1 0
BITMAP
7E0700
7E0E00
FF0C00
E71C00
E73800
E73000
FF7000
7EE7C0
00EFE0
01CEE0
019C70
038C70
070EE0
060FE0
0E07C0
ENDCHAR
STARTCHAR ampersand
ENCODING 38
SWIDTH 750 0
DWIDTH 18 0
BBX 17 17 1 0
BITMAP
0F8000
3FC000
3FE000
78E000
78E000
39E000
3FC000
1F8000
3F0F00
7F8F00
F3CE00
F1FE00
F0FC00
F87C00
FFFE00
7FFF00
1FCF80
ENDCHAR
STARTCHAR quotesingle
ENCODING 39
SWIDTH 339 0
DWIDTH 8 0
BBX 3 7 3 11
BITMAP
E0
E0
E0
E0
E0
E0
C0
ENDCHAR
STARTCHAR parenleft
ENCODING 40
SWIDTH 386 0
DWIDTH 9 0
BBX 6 24 2 -4
BITMAP
1C
38
38
70
70
F0
E0
E0
E0
E0
E0
E0
E0
E0
E0
E0
E0
E0
F0
70
70
38
38
1C
ENDCHAR
STARTCHAR parenright
ENCODING 41
SWIDTH 386 0
DWIDTH 9 0
BBX 6 24 2 -4
BITMAP
C0
E0
70
70
78
38
38
38
38
3C
1C
1C
1C
1C
3C
38
38
38
38
70
70
70
E0
C0
ENDCHAR
STARTCHAR asterisk
ENCODING 42
SWIDTH 606 0
DWIDTH 15 0
BBX 11 11 2 7
BITMAP
0E00
0E00
0E00
8E20
FFE0
FFE0
0E00
1F00
3B80
7B80
3180
ENDCHAR
STARTCHAR plus
ENCODING 43
SWIDTH 570 0
DWIDTH 14 0
BBX 11 11 1 2
BITMAP
0600
0600
0600
0600
FFE0
FFE0
FFE0
0600
0600
0600
0600
ENDCHAR
STARTCHAR comma
ENCODING 44
SWIDTH 290 0
DWIDTH 7 0
BBX 4 6 1 -3
BITMAP
70
70
F0
E0
E0
C0
ENDCHAR
STARTCHAR hyphen
ENCODING 45
SWIDTH 365 0
DWIDTH 9 0
BBX 7 3 1 6
BITMAP
FE
FE
FE
ENDCHAR
STARTCHAR period
ENCODING 46
SWIDTH 285 0
DWIDTH 7 0
BBX 4 4 1 0
BITMAP
60
F0
F0
70
ENDCHAR
STARTCHAR slash
ENCODING 47
SWIDTH 471 0
DWIDTH 11 0
BBX 9 24 1 -4
BITMAP
0380
0380
0380
0780
0700
0700
0700
0E00
0E00
0E00
0E00
1C00
1C00
1C00
3C00
3800
3800
3800
7000
7000
7000
7000
E000
E000
ENDCHAR
STARTCHAR zero
ENCODING 48
SWIDTH 550 0
DWIDTH 13 0
BBX 11 17 1 0
BITMAP
3F80
7FC0
7FC0
F1E0
F1E0
F0E0
E0E0
E0E0
E0E0
E0E0
E0E0
F0E0
F1E0
F1E0
7FC0
3FC0
1F80
ENDCHAR
STARTCHAR one
ENCODING 49
SWIDTH 550 0
DWIDTH 13 0
BBX 9 17 1 0
BITMAP
0780
0F80
3F80
7F80
F780
6780
0780
0780
0780
0780
0780
0780
0780
0780
0780
0780
0780
ENDCHAR
STARTCHAR two
ENCODING 50
SWIDTH 550 0
DWIDTH 13 0
BBX 11 17 1 0
BITMAP
3F80
7FC0
FFE0
61E0
01E0
01E0
01E0
03C0
0780
0780
0F00
1E00
3C00
7800
FFE0
FFE0
FFE0
ENDCHAR
STARTCHAR three
ENCODING 51
SWIDTH 550 0
DWIDTH 13 0
BBX 11 17 1 0
BITMAP
7F80
FFC0
7FE0
41E0
01E0
01C0
03C0
3F00
3F80
0FC0
01E0
00E0
00E0
01E0
FFE0
FFC0
FF00
ENDCHAR
STARTCHAR four
ENCODING 52
SWIDTH 550 0
DWIDTH 13 0
BBX 13 17 0 0
BITMAP
01E0
03E0
03E0
07E0
0FE0
0FE0
1DE0
39E0
39E0
71E0
E1E0
FFF8
FFF8
01E0
01E0
01E0
01E0
ENDCHAR
STARTCHAR five
ENCODING 53
SWIDTH 550 0
DWIDTH 13 0
BBX 11 17 1 0
BITMAP
7FC0
7FC0
7FC0
7000
7000
7000
FF00
FFC0
FFE0
03E0
01E0
00E0
01E0
81E0
FFC0
FFC0
FF00
ENDCHAR
STARTCHAR six
ENCODING 54
SWIDTH 550 0
DWIDTH 13 0
BBX 12 17 1 0
BITMAP
0FC0
1FC0
3FC0
7800
7000
E000
EF80
FFC0
FFE0
F0E0
F0E0
F0F0
F0E0
F1E0
7FE0
3FC0
1F80
ENDCHAR
STARTCHAR seven
ENCODING 55
SWIDTH 550 0
DWIDTH 13 0
BBX 11 17 1 0
BITMAP
FFE0
FFE0
FFE0
01E0
01C0
03C0
03C0
0380
0780
0700
0F00
0F00
1E00
1E00
3C00
3C00
3800
ENDCHAR
STARTCHAR eight
ENCODING 56
SWIDTH 550 0
DWIDTH 13 0
BBX 11 17 1 0
BITMAP
3F80
7FC0
7BE0
F1E0
F1E0
71C0
7FC0
3F80
3F80
7FC0
F1E0
E0E0
E0E0
E0E0
FBE0
7FC0
3F80
ENDCHAR
STARTCHAR nine
ENCODING 57
SWIDTH 550 0
DWIDTH 13 0
BBX 11 17 1 0
BITMAP
3F00
7FC0
FFC0
F1E0
E0E0
E0E0
E0E0
F1E0
FFE0
7FE0
3EE0
00E0
01E0
03C0
7F80
7F80
7E00
ENDCHAR
STARTCHAR colon
ENCODING 58
SWIDTH 323 0
DWIDTH 8 0
BBX 4 13 2 0
BITMAP
F0
F0
F0
60
00
00
00
00
00
60
F0
F0
F0
ENDCHAR
STARTCHAR semicolon
ENCODING 59
SWIDTH 323 0
DWIDTH 8 0
BBX 5 16 1 -3
BITMAP
78
78
78
30
00
00
00
00
00
00
78
70
70
70
E0
E0
ENDCHAR
STARTCHAR less
ENCODING 60
SWIDTH 570 0
DWIDTH 14 0
BBX 11 12 1 2
BITMAP
0020
00E0
03E0
0F80
3E00
F800
F800
7E00
1F80
07E0
01E0
0020
ENDCHAR
STARTCHAR equal
ENCODING 61
SWIDTH 570 0
DWIDTH 14 0
BBX 11 7 1 4
BITMAP
FFE0
FFE0
0000
0000
FFE0
FFE0
FFE0
ENDCHAR
STARTCHAR greater
ENCODING 62
SWIDTH 570 0
DWIDTH 14 0
BBX 11 12 1 2
BITMAP
C000
F000
FC00
3F00
0F80
03E0
01E0
07E0
1F80
FC00
F000
C000
ENDCHAR
STARTCHAR question
ENCODING 63
SWIDTH 543 0
DWIDTH 13 0
BBX 10 17 2 0
BITMAP
7F00
FF80
FF80
03C0
03C0
0380
0780
0F00
1E00
3C00
3800
0000
0000
1800
3C00
3C00
3C00
ENDCHAR
STARTCHAR at
ENCODING 64
SWIDTH 896 0
DWIDTH 22 0
BBX 20 19 1 -2
BITMAP
01FC00
07FF00
0F07C0
1C01C0
3800E0
70FE60
73FE70
678E70
E70E70
E60E70
E70E60
E71EE0
E3FFC0
61E380
700000
380000
1F0E00
0FFE00
03FC00
ENDCHAR
STARTCHAR A
ENCODING 65
SWIDTH 689 0
DWIDTH 17 0
BBX 17 17 0 0
BITMAP
03E000
03E000
07F000
077000
077000
0F7800
0E3800
1E3C00
1E3C00
1C1C00
3FFE00
3FFE00
3FFE00
780F00
780F00
780F00
F00780
ENDCHAR
STARTCHAR B
ENCODING 66
SWIDTH 671 0
DWIDTH 16 0
BBX 13 17 2 0
BITMAP
FF80
FFE0
FFF0
F0F0
F070
F070
F0F0
FFE0
FFC0
FFF0
F0F0
F078
F078
F0F8
FFF0
FFE0
FFC0
ENDCHAR
STARTCHAR C
ENCODING 67
SWIDTH 637 0
DWIDTH 15 0
BBX 13 17 1 0
BITMAP
07E0
1FF8
3FF8
3C30
7800
7800
7000
F000
F000
F000
F000
7800
7800
7C18
3FF8
1FF8
07F0
ENDCHAR
STARTCHAR D
ENCODING 68
SWIDTH 740 0
DWIDTH 18 0
BBX 15 17 2 0
BITMAP
FF80
FFE0
FFF0
F0F8
F03C
F03C
F01C
F01E
F01E
F01E
F01C
F03C
F07C
F0F8
FFF0
FFE0
FF80
ENDCHAR
STARTCHAR E
ENCODING 69
SWIDTH 560 0
DWIDTH 13 0
BBX 10 17 2 0
BITMAP
FFC0
FFC0
FFC0
F000
F000
F000
F000
FF80
FF80
FF80
F000
F000
F000
F000
FFC0
FFC0
FFC0
ENDCHAR
STARTCHAR F
ENCODING 70
SWIDTH 548 0
DWIDTH 13 0
BBX 10 17 2 0
BITMAP
FFC0
FFC0
FFC0
F000
F000
F000
F000
FF80
FF80
FF80
F000
F000
F000
F000
F000
F000
F000
ENDCHAR
STARTCHAR G
ENCODING 71
SWIDTH 724 0
DWIDTH 17 0
BBX 14 17 1 0
BITMAP
03F8
0FFC
3FFC
3E08
7C00
7800
7000
F1FC
F1FC
F1FC
F01C
781C
781C
7C1C
3FFC
1FFC
07F8
ENDCHAR
STARTCHAR H
ENCODING 72
SWIDTH 765 0
DWIDTH 18 0
BBX 14 17 2 0
BITMAP
F03C
F03C
F03C
F03C
F03C
F03C
F03C
FFFC
FFFC
FFFC
F03C
F03C
F03C
F03C
F03C
F03C
F03C
ENDCHAR
STARTCHAR I
ENCODING 73
SWIDTH 389 0
DWIDTH 9 0
BBX 7 17 1 0
BITMAP
FE
FE
7E
38
38
38
38
38
38
38
38
38
38
38
7E
FE
FE
ENDCHAR
STARTCHAR J
ENCODING 74
SWIDTH 331 0
DWIDTH 8 0
BBX 8 22 -2 -5
BITMAP
0F
0F
0F
0F
0F
0F
0F
0F
0F
0F
0F
0F
0F
0F
0F
0F
0F
0F
1E
FE
FC
F8
ENDCHAR
STARTCHAR K
ENCODING 75
SWIDTH 664 0
DWIDTH 16 0
BBX 14 17 2 0
BITMAP
F07C
F078
F0F0
F1E0
F3C0
F7C0
F780
FF00
FF80
FF80
F3C0
F3E0
F1E0
F0F0
F0F0
F078
F03C
ENDCHAR
STARTCHAR L
ENCODING 76
SWIDTH 564 0
DWIDTH 14 0
BBX 11 17 2 0
BITMAP
F000
F000
F000
F000
F000
F000
F000
F000
F000
F000
F000
F000
F000
F000
FFE0
FFE0
FFE0
ENDCHAR
STARTCHAR M
ENCODING 77
SWIDTH 942 0
DWIDTH 23 0
BBX 19 17 2 0
BITMAP
F803E0
FC07E0
FC07E0
FC07E0
EE0FE0
EE0FE0
EE0DE0
E71DE0
E71DE0
E719E0
E7B9E0
E3B9E0
E3B1E0
E3F1E0
E1F1E0
E1E1E0
E1E1E0
ENDCHAR
STARTCHAR N
ENCODING 78
SWIDTH 812 0
DWIDTH 20 0
BBX 16 17 2 0
BITMAP
F80F
FC0F
FC0F
FE0F
EF0F
EF0F
E78F
E78F
E3CF
E1EF
E1EF
E0F7
E0F7
E07F
E07F
E03F
E01F
ENDCHAR
STARTCHAR O
ENCODING 79
SWIDTH 795 0
DWIDTH 19 0
BBX 17 17 1 0
BITMAP
07F000
1FFC00
3FFE00
7C1E00
780F00
780F00
700700
F00780
F00780
F00780
700700
780F00
780F00
3C1F00
3FFE00
1FFC00
07F000
ENDCHAR
STARTCHAR P
ENCODING 80
SWIDTH 627 0
DWIDTH 15 0
BBX 12 17 2 0
BITMAP
FF80
FFC0
FFE0
F1F0
F0F0
F0F0
F0F0
F1F0
FFE0
FFC0
FF00
F000
F000
F000
F000
F000
F000
ENDCHAR
STARTCHAR Q
ENCODING 81
SWIDTH 795 0
DWIDTH 19 0
BBX 17 21 1 -4
BITMAP
07F000
1FFC00
3FFE00
7C1E00
780F00
780F00
700700
F00780
F00780
F00780
700700
780F00
780F00
3C1E00
3FFE00
1FFC00
07F800
007C00
003C00
001E00
000F00
ENDCHAR
STARTCHAR R
ENCODING 82
SWIDTH 660 0
DWIDTH 16 0
BBX 14 17 2 0
BITMAP
FF80
FFE0
FFE0
F1F0
F0F0
F0F0
F0F0
F1F0
FFE0
FFC0
FF80
F3C0
F1E0
F0E0
F0F0
F078
F03C
ENDCHAR
STARTCHAR S
ENCODING 83
SWIDTH 550 0
DWIDTH 13 0
BBX 11 17 1 0
BITMAP
1F80
3FE0
7FE0
F0C0
F000
F000
7C00
7F00
3F80
0FC0
03E0
01E0
00E0
C1E0
FFE0
FFC0
7F00
ENDCHAR
STARTCHAR T
ENCODING 84
SWIDTH 579 0
DWIDTH 14 0
BBX 14 17 0 0
BITMAP
FFFC
FFFC
FFFC
0780
0780
0780
0780
0780
0780
0780
0780
0780
0780
0780
0780
0780
0780
ENDCHAR
STARTCHAR U
ENCODING 85
SWIDTH 755 0
DWIDTH 18 0
BBX 14 17 2 0
BITMAP
F03C
F03C
F03C
F03C
F03C
F03C
F03C
F03C
F03C
F03C
F03C
F03C
F03C
7878
7FF8
3FF0
0FC0
ENDCHAR
STARTCHAR V
ENCODING 86
SWIDTH 649 0
DWIDTH 16 0
BBX 16 17 0 0
BITMAP
F00F
700E
781E
781E
381C
3C3C
3C3C
1C38
1E78
1E78
0E70
0EF0
0FF0
07E0
07E0
07E0
03C0
ENDCHAR
STARTCHAR W
ENCODING 87
SWIDTH 966 0
DWIDTH 23 0
BBX 23 17 0 0
BITMAP
F0381E
F07C1E
707C1C
707C1C
786C3C
78EE3C
38EE38
38EE38
3CEE78
3DC778
1DC770
1DC770
1DC770
1F83F0
0F83E0
0F83E0
0F83E0
ENDCHAR
STARTCHAR X
ENCODING 88
SWIDTH 666 0
DWIDTH 16 0
BBX 16 17 0 0
BITMAP
781E
781E
3C3C
1C38
1E78
0FF0
07E0
07E0
03C0
07E0
0FF0
0EF0
1E78
3C3C
383C
781E
F00F
ENDCHAR
STARTCHAR Y
ENCODING 89
SWIDTH 624 0
DWIDTH 15 0
BBX 15 17 0 0
BITMAP
F01E
783C
783C
3C78
3C78
1EF0
0EE0
0FE0
07C0
07C0
0380
0380
0380
0380
0380
0380
0380
ENDCHAR
STARTCHAR Z
ENCODING 90
SWIDTH 579 0
DWIDTH 14 0
BBX 12 17 1 0
BITMAP
FFF0
FFF0
FFF0
01E0
01E0
03C0
0780
0780
0F00
1E00
1C00
3C00
7800
F000
FFF0
FFF0
FFF0
ENDCHAR
STARTCHAR bracketleft
ENCODING 91
SWIDTH 389 0
DWIDTH 9 0
BBX 5 24 3 -4
BITMAP
F8
F8
F8
E0
E0
E0
E0
E0
E0
E0
E0
E0
E0
E0
E0
E0
E0
E0
E0
E0
E0
F8
F8
F8
ENDCHAR
STARTCHAR backslash
ENCODING 92
SWIDTH 471 0
DWIDTH 11 0
BBX 9 24 1 -4
BITMAP
E000
E000
7000
7000
7000
7000
3800
3800
3800
3C00
1C00
1C00
1C00
0E00
0E00
0E00
0E00
0700
0700
0700
0780
0380
0380
0380
ENDCHAR
STARTCHAR bracketright
ENCODING 93
SWIDTH 389 0
DWIDTH 9 0
BBX 6 24 1 -4
BITMAP
FC
FC
FC
1C
1C
1C
1C
1C
1C
1C
1C
1C
1C
1C
1C
1C
1C
1C
1C
1C
1C
FC
FC
FC
ENDCHAR
STARTCHAR asciicircum
ENCODING 94
SWIDTH 570 0
DWIDTH 14 0
BBX 12 11 1 6
BITMAP
0E00
0E00
1F00
1F00
3B80
3980
31C0
70C0
60E0
E060
C070
ENDCHAR
STARTCHAR underscore
ENCODING 95
SWIDTH 411 0
DWIDTH 10 0
BBX 10 2 0 -4
BITMAP
FFC0
FFC0
ENDCHAR
STARTCHAR grave
ENCODING 96
SWIDTH 606 0
DWIDTH 15 0
BBX 7 4 4 15
BITMAP
F0
78
1C
0E
ENDCHAR
STARTCHAR a
ENCODING 97
SWIDTH 604 0
DWIDTH 15 0
BBX 12 13 1 0
BITMAP
1F80
7FE0
3FF0
20F0
00F0
1FF0
7FF0
F8F0
F0F0
F0F0
FFF0
7F70
3E70
ENDCHAR
STARTCHAR b
ENCODING 98
SWIDTH 632 0
DWIDTH 15 0
BBX 12 18 2 0
BITMAP
E000
E000
E000
E000
E000
E780
EFC0
FFE0
F1F0
F0F0
E0F0
E0F0
E0F0
F0F0
F1F0
FFE0
FFC0
E780
ENDCHAR
STARTCHAR c
ENCODING 99
SWIDTH 514 0
DWIDTH 12 0
BBX 10 13 1 0
BITMAP
1F80
3FC0
7FC0
7800
F000
F000
F000
F000
F000
F840
7FC0
3FC0
1F80
ENDCHAR
STARTCHAR d
ENCODING 100
SWIDTH 632 0
DWIDTH 15 0
BBX 12 18 1 0
BITMAP
0070
0070
0070
0070
0070
1E70
3FF0
7FF0
F8F0
F070
F070
F070
F070
F070
F8F0
7FF0
3F70
1E70
ENDCHAR
STARTCHAR e
ENCODING 101
SWIDTH 590 0
DWIDTH 14 0
BBX 12 13 1 0
BITMAP
1F80
3FC0
7FE0
70F0
F070
FFF0
FFF0
F000
F000
7800
7FE0
3FE0
0FC0
ENDCHAR
STARTCHAR f
ENCODING 102
SWIDTH 387 0
DWIDTH 9 0
BBX 10 18 0 0
BITMAP
0FC0
1FC0
1F80
3C00
3C00
7F80
FF80
FF80
3C00
3C00
3C00
3C00
3C00
3C00
3C00
3C00
3C00
3C00
ENDCHAR
STARTCHAR g
ENCODING 103
SWIDTH 632 0
DWIDTH 15 0
BBX 12 19 1 -6
BITMAP
1E70
3FF0
7FF0
F8F0
F070
F070
F070
F070
F070
F0F0
7FF0
3F70
1E70
0070
00F0
00F0
7FE0
7FE0
3F80
ENDCHAR
STARTCHAR h
ENCODING 104
SWIDTH 657 0
DWIDTH 16 0
BBX 12 18 2 0
BITMAP
E000
E000
E000
E000
E000
E7C0
EFE0
FFF0
F8F0
F0F0
F070
E070
E070
E070
E070
E070
E070
E070
ENDCHAR
STARTCHAR i
ENCODING 105
SWIDTH 305 0
DWIDTH 7 0
BBX 4 18 2 0
BITMAP
E0
F0
E0
40
00
E0
E0
E0
E0
E0
E0
E0
E0
E0
E0
E0
E0
E0
ENDCHAR
STARTCHAR j
ENCODING 106
SWIDTH 305 0
DWIDTH 7 0
BBX 8 24 -2 -6
BITMAP
0E
0F
0E
04
00
0E
0E
0E
0E
0E
0E
0E
0E
0E
0E
0E
0E
0E
0E
0E
1E
FE
FC
F8
ENDCHAR
STARTCHAR k
ENCODING 107
SWIDTH 620 0
DWIDTH 15 0
BBX 13 18 2 0
BITMAP
E000
E000
E000
E000
E000
E0F0
E1E0
E3C0
E780
EF00
EF00
FF00
FF80
F3C0
F3C0
F1E0
F0F0
F0F8
ENDCHAR
STARTCHAR l
ENCODING 108
SWIDTH 305 0
DWIDTH 7 0
BBX 3 18 2 0
BITMAP
E0
E0
E0
E0
E0
E0
E0
E0
E0
E0
E0
E0
E0
E0
E0
E0
E0
E0
ENDCHAR
STARTCHAR m
ENCODING 109
SWIDTH 981 0
DWIDTH 24 0
BBX 20 13 2 0
BITMAP
E7C7C0
EFEFE0
FFFFF0
F0F8F0
F0F0F0
F0F070
F0F070
F0F070
F0F070
F0F070
F0F070
F0F070
F0F070
ENDCHAR
STARTCHAR n
ENCODING 110
SWIDTH 657 0
DWIDTH 16 0
BBX 12 13 2 0
BITMAP
E7C0
EFE0
FFF0
F8F0
F0F0
F070
F070
F070
F070
F070
F070
F070
F070
ENDCHAR
STARTCHAR o
ENCODING 111
SWIDTH 619 0
DWIDTH 15 0
BBX 13 13 1 0
BITMAP
0F80
3FE0
7FF0
78F0
F078
F078
F078
F078
F078
78F0
7FF0
3FE0
0F80
ENDCHAR
STARTCHAR p
ENCODING 112
SWIDTH 632 0
DWIDTH 15 0
BBX 12 19 2 -6
BITMAP
E780
EFC0
FFE0
F1F0
F0F0
E0F0
E0F0
E0F0
F0F0
F1F0
FFE0
EFC0
E780
E000
E000
E000
E000
E000
E000
ENDCHAR
STARTCHAR q
ENCODING 113
SWIDTH 632 0
DWIDTH 15 0
BBX 12 19 1 -6
BITMAP
1E70
3F70
7FF0
F8F0
F070
F070
F070
F070
F070
F0F0
7FF0
3F70
1E70
0070
0070
0070
0070
0070
0070
ENDCHAR
STARTCHAR r
ENCODING 114
SWIDTH 454 0
DWIDTH 11 0
BBX 8 13 2 0
BITMAP
E7
EF
FF
FC
F0
F0
F0
F0
F0
F0
F0
F0
F0
ENDCHAR
STARTCHAR s
ENCODING 115
SWIDTH 497 0
DWIDTH 12 0
BBX 10 13 1 0
BITMAP
3F80
7FC0
FF80
F080
F800
7E00
3F80
0FC0
03C0
83C0
FFC0
FF80
7F00
ENDCHAR
STARTCHAR t
ENCODING 116
SWIDTH 434 0
DWIDTH 10 0
BBX 9 16 0 0
BITMAP
1C00
1C00
1C00
3F80
FF80
FF80
3C00
3C00
3C00
3C00
3C00
3C00
3C00
3F80
1F80
0F80
ENDCHAR
STARTCHAR u
ENCODING 117
SWIDTH 657 0
DWIDTH 16 0
BBX 12 13 2 0
BITMAP
E0F0
E0F0
E0F0
E0F0
E0F0
E0F0
E0F0
E0F0
E0F0
F1F0
FFF0
7F70
3E70
ENDCHAR
STARTCHAR v
ENCODING 118
SWIDTH 568 0
DWIDTH 14 0
BBX 14 13 0 0
BITMAP
F03C
7038
7878
7878
3870
3CF0
1CE0
1CE0
1FE0
0FC0
0FC0
0780
0780
ENDCHAR
STARTCHAR w
ENCODING 119
SWIDTH 855 0
DWIDTH 21 0
BBX 21 13 0 0
BITMAP
F0F878
70F870
78F8F0
78D8F0
39DCE0
39DCE0
3DDDE0
3D8DE0
1F8FC0
1F8FC0
1F8FC0
0F0780
0F0780
ENDCHAR
STARTCHAR x
ENCODING 120
SWIDTH 578 0
DWIDTH 14 0
BBX 14 13 0 0
BITMAP
7878
7878
3CF0
1FE0
1FE0
0FC0
0F80
0FC0
1FE0
3CF0
3CF0
7878
F87C
ENDCHAR
STARTCHAR y
ENCODING 121
SWIDTH 568 0
DWIDTH 14 0
BBX 14 19 0 -6
BITMAP
F03C
7838
7878
7878
3C70
3CF0
1CF0
1EE0
1FE0
0FC0
0FC0
07C0
0780
0780
0700
0F00
7E00
7E00
7800
ENDCHAR
STARTCHAR z
ENCODING 122
SWIDTH 487 0
DWIDTH 12 0
BBX 10 13 1 0
BITMAP
FFC0
FFC0
FFC0
0780
0700
0F00
1E00
3C00
7800
7800
FFC0
FFC0
FFC0
ENDCHAR
STARTCHAR braceleft
ENCODING 123
SWIDTH 425 0
DWIDTH 10 0
BBX 8 24 1 -4
BITMAP
07
1F
1F
1C
1C
1C
1C
1C
1C
1C
7C
F8
F8
7C
1C
1C
1C
1C
1C
1C
1C
1F
1F
07
ENDCHAR
STARTCHAR bar
ENCODING 124
SWIDTH 539 0
DWIDTH 13 0
BBX 3 24 5 -4
BITMAP
E0
E0
E0
E0
E0
E0
E0
E0
E0
E0
E0
E0
E0
E0
E0
E0
E0
E0
E0
E0
E0
E0
E0
E0
ENDCHAR
STARTCHAR braceright
ENCODING 125
SWIDTH 425 0
DWIDTH 10 0
BBX 8 24 1 -4
BITMAP
F0
F8
F8
38
38
38
38
38
38
3C
1E
0F
0F
1E
3C
38
38
38
38
38
38
F8
F8
F0
ENDCHAR
STARTCHAR asciitilde
ENCODING 126
SWIDTH 570 0
DWIDTH 14 0
BBX 11 4 1 6
BITMAP
3800
FF60
FFE0
87E0
ENDCHAR
STARTCHAR space.dup2
ENCODING 160
SWIDTH 259 0
DWIDTH 6 0
BBX 1 1 0 0
BITMAP
00
ENDCHAR
STARTCHAR exclamdown
ENCODING 161
SWIDTH 286 0
DWIDTH 7 0
BBX 5 17 1 -4
BITMAP
70
F8
F8
70
00
00
70
70
70
70
70
70
70
70
70
F0
F8
ENDCHAR
STARTCHAR cent
ENCODING 162
SWIDTH 571 0
DWIDTH 14 0
BBX 10 17 2 0
BITMAP
0600
0600
1FC0
7FC0
7FC0
F000
F000
E000
E000
E000
F000
F040
7FC0
7FC0
1F80
0600
0600
ENDCHAR
STARTCHAR sterling
ENCODING 163
SWIDTH 571 0
DWIDTH 14 0
BBX 13 17 1 0
BITMAP
07E0
1FF0
1FE0
3C20
3C00
3C00
3C00
FFC0
FFC0
FFC0
3C00
3C00
3800
7800
FFF8
FFF8
FFF8
ENDCHAR
STARTCHAR currency
ENCODING 164
SWIDTH 571 0
DWIDTH 14 0
BBX 10 11 2 3
BITMAP
0080
DFC0
FFC0
7F80
E1C0
E1C0
E1C0
7F80
FFC0
DFC0
0080
ENDCHAR
STARTCHAR yen
ENCODING 165
SWIDTH 571 0
DWIDTH 14 0
BBX 14 17 0 0
BITMAP
F03C
7878
7878
3870
3CF0
1CE0
1FE0
0FC0
0FC0
3FF0
3FF0
0780
0780
3FF0
3FF0
0780
0780
ENDCHAR
STARTCHAR brokenbar
ENCODING 166
SWIDTH 550 0
DWIDTH 13 0
BBX 3 24 5 -6
BITMAP
E0
E0
E0
E0
E0
E0
E0
E0
E0
E0
00
00
00
00
E0
E0
E0
E0
E0
E0
E0
E0
E0
E0
ENDCHAR
STARTCHAR section
ENCODING 167
SWIDTH 485 0
DWIDTH 12 0
BBX 10 18 1 0
BITMAP
1F00
7F80
7180
E000
7800
7E00
7F80
6380
E1C0
71C0
7980
3F80
0F80
03C0
01C0
E380
FF80
7E00
ENDCHAR
STARTCHAR dieresis
ENCODING 168
SWIDTH 606 0
DWIDTH 15 0
BBX 9 3 3 15
BITMAP
6300
F780
6300
ENDCHAR
STARTCHAR copyright
ENCODING 169
SWIDTH 832 0
DWIDTH 20 0
BBX 18 17 1 0
BITMAP
03F000
0E1C00
180600
31F300
63F180
460080
C600C0
C600C0
860040
C600C0
C600C0
460080
63F180
31F300
180600
0E1C00
03F000
ENDCHAR
STARTCHAR ordfeminine
ENCODING 170
SWIDTH 382 0
DWIDTH 9 0
BBX 7 9 1 8
BITMAP
7C
FE
06
7E
F6
C6
CE
FE
76
ENDCHAR
STARTCHAR guillemotleft
ENCODING 171
SWIDTH 615 0
DWIDTH 15 0
BBX 13 11 1 1
BITMAP
0820
1E78
3CF0
79E0
71C0
F3C0
71C0
79E0
3CF0
1E78
0820
ENDCHAR
STARTCHAR logicalnot
ENCODING 172
SWIDTH 571 0
DWIDTH 14 0
BBX 12 7 1 3
BITMAP
FFF0
FFF0
FFF0
0070
0070
0070
0070
ENDCHAR
STARTCHAR uni00AD
ENCODING 173
SWIDTH 321 0
DWIDTH 8 0
BBX 6 3 1 5
BITMAP
FC
FC
FC
ENDCHAR
STARTCHAR registered
ENCODING 174
SWIDTH 832 0
DWIDTH 20 0
BBX 18 17 1 0
BITMAP
03F000
0E1C00
180600
33E300
63F180
431880
C318C0
C330C0
83F040
C360C0
C320C0
433080
631980
331B00
180600
0E1C00
03F000
ENDCHAR
STARTCHAR macron
ENCODING 175
SWIDTH 365 0
DWIDTH 9 0
BBX 7 3 1 6
BITMAP
FE
FE
FE
ENDCHAR
STARTCHAR degree
ENCODING 176
SWIDTH 428 0
DWIDTH 10 0
BBX 8 8 1 9
BITMAP
3C
7E
E7
C3
C3
E7
7E
3C
ENDCHAR
STARTCHAR plusminus
ENCODING 177
SWIDTH 571 0
DWIDTH 14 0
BBX 12 15 1 0
BITMAP
0600
0600
0600
0600
0600
FFF0
FFF0
FFF0
0600
0600
0600
0600
FFF0
FFF0
FFF0
ENDCHAR
STARTCHAR uni00B2
ENCODING 178
SWIDTH 378 0
DWIDTH 9 0
BBX 7 10 1 7
BITMAP
7C
FE
CE
0E
1C
3C
70
E0
FE
FE
ENDCHAR
STARTCHAR uni00B3
ENCODING 179
SWIDTH 378 0
DWIDTH 9 0
BBX 7 10 1 7
BITMAP
7C
FE
4E
0E
78
7C
0E
8E
FE
FC
ENDCHAR
STARTCHAR acute
ENCODING 180
SWIDTH 606 0
DWIDTH 15 0
BBX 7 4 4 15
BITMAP
1E
3C
70
E0
ENDCHAR
STARTCHAR mu
ENCODING 181
SWIDTH 660 0
DWIDTH 16 0
BBX 12 19 2 -6
BITMAP
E0F0
E0F0
E0F0
E0F0
E0F0
E0F0
E0F0
E0F0
F0F0
F1F0
FFF0
FF70
EF70
E000
E000
E000
E000
E000
E000
ENDCHAR
STARTCHAR paragraph
ENCODING 182
SWIDTH 654 0
DWIDTH 16 0
BBX 13 21 1 -3
BITMAP
1FF8
3FF8
7F98
7F98
FF98
FF98
FF98
FF98
7F98
7F98
3F98
1F98
0198
0198
0198
0198
0198
0198
0198
0198
0198
ENDCHAR
STARTCHAR periodcentered
ENCODING 183
SWIDTH 285 0
DWIDTH 7 0
BBX 5 4 1 6
BITMAP
70
F8
F8
70
ENDCHAR
STARTCHAR cedilla
ENCODING 184
SWIDTH 205 0
DWIDTH 5 0
BBX 5 6 0 -6
BITMAP
60
F0
78
38
F8
F0
ENDCHAR
STARTCHAR uni00B9
ENCODING 185
SWIDTH 378 0
DWIDTH 9 0
BBX 6 10 1 7
BITMAP
1C
3C
FC
5C
1C
1C
1C
1C
1C
1C
ENDCHAR
STARTCHAR ordmasculine
ENCODING 186
SWIDTH 388 0
DWIDTH 9 0
BBX 7 9 1 8
BITMAP
3C
FE
C6
C6
C6
C6
C6
FE
3C
ENDCHAR
STARTCHAR guillemotright
ENCODING 187
SWIDTH 615 0
DWIDTH 15 0
BBX 13 11 1 1
BITMAP
2080
F3C0
79E0
38E0
3C70
1E78
3C70
38E0
79E0
F3C0
2080
ENDCHAR
STARTCHAR onequarter
ENCODING 188
SWIDTH 880 0
DWIDTH 21 0
BBX 19 17 1 0
BITMAP
380E00
781C00
F81C00
D83800
383000
387000
386000
38E380
39C780
39C780
038F80
039B80
071B80
063FE0
0E3FE0
0C0380
1C0380
ENDCHAR
STARTCHAR onehalf
ENCODING 189
SWIDTH 880 0
DWIDTH 21 0
BBX 19 17 1 0
BITMAP
380E00
781C00
F81C00
D83800
383000
387000
386000
38E7C0
39DFC0
39CCE0
0380E0
0381C0
070380
060700
0E0E00
0C0FE0
1C0FE0
ENDCHAR
STARTCHAR threequarters
ENCODING 190
SWIDTH 880 0
DWIDTH 21 0
BBX 19 17 1 0
BITMAP
7C0600
FE0E00
4E0C00
0E1C00
3C3800
3E3800
067000
8673C0
FEE3C0
7CE7C0
01CDC0
018DC0
0399C0
033FE0
073FE0
0E01C0
0E01C0
ENDCHAR
STARTCHAR questiondown
ENCODING 191
SWIDTH 477 0
DWIDTH 11 0
BBX 10 18 1 -5
BITMAP
0E00
1E00
1E00
0E00
0000
0000
0E00
0E00
1E00
3C00
7800
F000
E000
E000
E080
FFC0
7FC0
3F00
ENDCHAR
STARTCHAR Agrave
ENCODING 192
SWIDTH 689 0
DWIDTH 17 0
BBX 17 23 0 0
BITMAP
0F8000
078000
01C000
00E000
000000
000000
03E000
03E000
07F000
077000
077000
0F7800
0E3800
1E3C00
1E3C00
1C1C00
3FFE00
3FFE00
3FFE00
780F00
780F00
780F00
F00780
ENDCHAR
STARTCHAR Aacute
ENCODING 193
SWIDTH 689 0
DWIDTH 17 0
BBX 17 23 0 0
BITMAP
007800
00F000
01E000
01C000
000000
000000
03E000
03E000
07F000
077000
077000
0F7800
0E3800
1E3C00
1E3C00
1C1C00
3FFE00
3FFE00
3FFE00
780F00
780F00
780F00
F00780
ENDCHAR
STARTCHAR Acircumflex
ENCODING 194
SWIDTH 689 0
DWIDTH 17 0
BBX 17 23 0 0
BITMAP
03E000
07F000
0F7800
1C3C00
000000
000000
03E000
03E000
07F000
077000
077000
0F7800
0E3800
1E3C00
1E3C00
1C1C00
3FFE00
3FFE00
3FFE00
780F00
780F00
780F00
F00780
ENDCHAR
STARTCHAR Atilde
ENCODING 195
SWIDTH 689 0
DWIDTH 17 0
BBX 17 23 0 0
BITMAP
070800
0FD800
0DF800
087000
000000
000000
03E000
03E000
07F000
077000
077000
0F7800
0E3800
1E3C00
1E3C00
1C1C00
3FFE00
3FFE00
3FFE00
780F00
780F00
780F00
F00780
ENDCHAR
STARTCHAR Adieresis
ENCODING 196
SWIDTH 689 0
DWIDTH 17 0
BBX 17 22 0 0
BITMAP
063000
0F7800
063000
000000
000000
03E000
03E000
07F000
077000
077000
0F7800
0E3800
1E3C00
1E3C00
1C1C00
3FFE00
3FFE00
3FFE00
780F00
780F00
780F00
F00780
ENDCHAR
STARTCHAR Aring
ENCODING 197
SWIDTH 689 0
DWIDTH 17 0
BBX 17 21 0 0
BITMAP
01C000
03E000
062000
036000
03E000
03E000
07F000
077000
077000
0F7800
0E3800
1E3800
1E3C00
1C1C00
3FFE00
3FFE00
3FFE00
780F00
780F00
780F00
F00780
ENDCHAR
STARTCHAR AE
ENCODING 198
SWIDTH 952 0
DWIDTH 23 0
BBX 22 17 0 0
BITMAP
01FFFC
01FFFC
01FFFC
03DE00
039E00
079E00
071E00
0F1FF8
0E1FF8
1E1FF8
1FFE00
3FFE00
3FFE00
381E00
781FFC
701FFC
F01FFC
ENDCHAR
STARTCHAR Ccedilla
ENCODING 199
SWIDTH 637 0
DWIDTH 15 0
BBX 13 23 1 -6
BITMAP
07E0
1FF8
3FF8
3C30
7800
7800
7000
F000
F000
F000
F000
7800
7800
7C18
3FF8
1FF8
07F0
0380
0380
01C0
01C0
07C0
0780
ENDCHAR
STARTCHAR Egrave
ENCODING 200
SWIDTH 560 0
DWIDTH 13 0
BBX 10 23 2 0
BITMAP
7C00
3C00
0E00
0700
0000
0000
FFC0
FFC0
FFC0
F000
F000
F000
F000
FF80
FF80
FF80
F000
F000
F000
F000
FFC0
FFC0
FFC0
ENDCHAR
STARTCHAR Eacute
ENCODING 201
SWIDTH 560 0
DWIDTH 13 0
BBX 10 23 2 0
BITMAP
03C0
0780
0E00
1C00
0000
0000
FFC0
FFC0
FFC0
F000
F000
F000
F000
FF80
FF80
FF80
F000
F000
F000
F000
FFC0
FFC0
FFC0
ENDCHAR
STARTCHAR Ecircumflex
ENCODING 202
SWIDTH 560 0
DWIDTH 13 0
BBX 10 23 2 0
BITMAP
1F00
3F80
7B80
E1C0
0000
0000
FFC0
FFC0
FFC0
F000
F000
F000
F000
FF80
FF80
FF80
F000
F000
F000
F000
FFC0
FFC0
FFC0
ENDCHAR
STARTCHAR Edieresis
ENCODING 203
SWIDTH 560 0
DWIDTH 13 0
BBX 10 22 2 0
BITMAP
3380
7B80
3180
0000
0000
FFC0
FFC0
FFC0
F000
F000
F000
F000
FF80
FF80
FF80
F000
F000
F000
F000
FFC0
FFC0
FFC0
ENDCHAR
STARTCHAR Igrave
ENCODING 204
SWIDTH 389 0
DWIDTH 9 0
BBX 7 23 1 0
BITMAP
F0
78
3C
1C
00
00
FE
FE
7E
38
38
38
38
38
38
38
38
38
38
38
7E
FE
FE
ENDCHAR
STARTCHAR Iacute
ENCODING 205
SWIDTH 389 0
DWIDTH 9 0
BBX 9 23 1 0
BITMAP
0F80
0F00
1C00
3800
0000
0000
FE00
FE00
7E00
3800
3800
3800
3800
3800
3800
3800
3800
3800
3800
3800
7E00
FE00
FE00
ENDCHAR
STARTCHAR Icircumflex
ENCODING 206
SWIDTH 389 0
DWIDTH 9 0
BBX 10 23 0 0
BITMAP
3E00
3F00
7780
E1C0
0000
0000
7F00
7F00
3F00
1C00
1C00
1C00
1C00
1C00
1C00
1C00
1C00
1C00
1C00
1C00
3F00
7F00
7F00
ENDCHAR
STARTCHAR Idieresis
ENCODING 207
SWIDTH 389 0
DWIDTH 9 0
BBX 8 22 1 0
BITMAP
E7
E7
E7
00
00
FE
FE
7E
38
38
38
38
38
38
38
38
38
38
38
7E
FE
FE
ENDCHAR
STARTCHAR Eth
ENCODING 208
SWIDTH 740 0
DWIDTH 18 0
BBX 16 17 1 0
BITMAP
7FC0
7FF0
7FF8
787C
781E
781E
780E
FF0F
FF0F
FF0F
780E
781E
783E
787C
7FF8
7FF0
7FC0
ENDCHAR
STARTCHAR Ntilde
ENCODING 209
SWIDTH 812 0
DWIDTH 20 0
BBX 16 23 2 0
BITMAP
0718
0FF8
1FF0
18E0
0000
0000
F80F
FC0F
FC0F
FE0F
EF0F
EF0F
E78F
E78F
E3CF
E1EF
E1EF
E0F7
E0F7
E07F
E07F
E03F
E01F
ENDCHAR
STARTCHAR Ograve
ENCODING 210
SWIDTH 795 0
DWIDTH 19 0
BBX 17 23 1 0
BITMAP
078000
03C000
01C000
00E000
000000
000000
07F000
1FFC00
3FFE00
7C1E00
780F00
780F00
700700
F00780
F00780
F00780
700700
780F00
780F00
3C1F00
3FFE00
1FFC00
07F000
ENDCHAR
STARTCHAR Oacute
ENCODING 211
SWIDTH 795 0
DWIDTH 19 0
BBX 17 23 1 0
BITMAP
007C00
007000
00E000
01C000
000000
000000
07F000
1FFC00
3FFE00
7C1E00
780F00
780F00
700700
F00780
F00780
F00780
700700
780F00
780F00
3C1F00
3FFE00
1FFC00
07F000
ENDCHAR
STARTCHAR Ocircumflex
ENCODING 212
SWIDTH 795 0
DWIDTH 19 0
BBX 17 23 1 0
BITMAP
03E000
03F000
077800
0E1C00
000000
000000
07F000
1FFC00
3FFE00
7C1E00
780F00
780F00
700700
F00780
F00780
F00780
700700
780F00
780F00
3C1F00
3FFE00
1FFC00
07F000
ENDCHAR
STARTCHAR Otilde
ENCODING 213
SWIDTH 795 0
DWIDTH 19 0
BBX 17 23 1 0
BITMAP
070C00
0FDC00
0FF800
0C7000
000000
000000
07F000
1FFC00
3FFE00
7C1E00
780F00
780F00
700700
F00780
F00780
F00780
700700
780F00
780F00
3C1F00
3FFE00
1FFC00
07F000
ENDCHAR
STARTCHAR Odieresis
ENCODING 214
SWIDTH 795 0
DWIDTH 19 0
BBX 17 22 1 0
BITMAP
073800
073800
073000
000000
000000
07F000
1FFC00
3FFE00
7C1E00
780F00
780F00
700700
F00780
F00780
F00780
700700
780F00
780F00
3C1F00
3FFE00
1FFC00
07F000
ENDCHAR
STARTCHAR multiply
ENCODING 215
SWIDTH 570 0
DWIDTH 14 0
BBX 10 10 2 3
BITMAP
4080
E1C0
F380
7F00
3E00
1E00
3F00
7780
E3C0
C180
ENDCHAR
STARTCHAR Oslash
ENCODING 216
SWIDTH 795 0
DWIDTH 19 0
BBX 17 19 1 -1
BITMAP
000400
07F600
1FFE00
3FFE00
7C1E00
783F00
787F00
706700
F0E780
F1C780
F18780
738700
7F0F00
7E0F00
7C1F00
3FFE00
3FFC00
37F000
100000
ENDCHAR
STARTCHAR Ugrave
ENCODING 217
SWIDTH 755 0
DWIDTH 18 0
BBX 14 23 2 0
BITMAP
1E00
0F00
0700
0380
0000
0000
F03C
F03C
F03C
F03C
F03C
F03C
F03C
F03C
F03C
F03C
F03C
F03C
F03C
7878
7FF8
3FF0
0FC0
ENDCHAR
STARTCHAR Uacute
ENCODING 218
SWIDTH 755 0
DWIDTH 18 0
BBX 14 23 2 0
BITMAP
00F0
01E0
03C0
0700
0000
0000
F03C
F03C
F03C
F03C
F03C
F03C
F03C
F03C
F03C
F03C
F03C
F03C
F03C
7878
7FF8
3FF0
0FC0
ENDCHAR
STARTCHAR Ucircumflex
ENCODING 219
SWIDTH 755 0
DWIDTH 18 0
BBX 14 23 2 0
BITMAP
07C0
0FE0
1EE0
3870
0000
0000
F03C
F03C
F03C
F03C
F03C
F03C
F03C
F03C
F03C
F03C
F03C
F03C
F03C
7878
7FF8
3FF0
0FC0
ENDCHAR
STARTCHAR Udieresis
ENCODING 220
SWIDTH 755 0
DWIDTH 18 0
BBX 14 22 2 0
BITMAP
1CE0
1CE0
0CE0
0000
0000
F03C
F03C
F03C
F03C
F03C
F03C
F03C
F03C
F03C
F03C
F03C
F03C
F03C
7878
7FF8
3FF0
0FC0
ENDCHAR
STARTCHAR Yacute
ENCODING 221
SWIDTH 624 0
DWIDTH 15 0
BBX 15 23 0 0
BITMAP
00F0
01E0
03C0
0380
0000
0000
F01E
783C
783C
3C78
3C78
1EF0
0EE0
0FE0
07C0
07C0
0380
0380
0380
0380
0380
0380
0380
ENDCHAR
STARTCHAR Thorn
ENCODING 222
SWIDTH 627 0
DWIDTH 15 0
BBX 12 17 2 0
BITMAP
F000
F000
F000
FF80
FFE0
FFE0
F1F0
F0F0
F0F0
F0F0
F1F0
FFE0
FFC0
FF80
F000
F000
F000
ENDCHAR
STARTCHAR germandbls
ENCODING 223
SWIDTH 710 0
DWIDTH 17 0
BBX 14 18 2 0
BITMAP
1FC0
7FF0
FFF0
F078
F070
E0F0
E1E0
E3C0
E380
E3C0
E3F0
E0F8
E07C
E03C
E03C
E7FC
E7F8
E3F0
ENDCHAR
STARTCHAR agrave
ENCODING 224
SWIDTH 604 0
DWIDTH 15 0
BBX 12 19 1 0
BITMAP
3C00
1E00
0F00
0380
0000
0000
1F80
7FE0
3FF0
20F0
00F0
1FF0
7FF0
F8F0
F0F0
F0F0
FFF0
7F70
3E70
ENDCHAR
STARTCHAR aacute
ENCODING 225
SWIDTH 604 0
DWIDTH 15 0
BBX 12 19 1 0
BITMAP
01E0
03C0
0780
0E00
0000
0000
1F80
7FE0
3FF0
20F0
00F0
1FF0
7FF0
F8F0
F0F0
F0F0
FFF0
7F70
3E70
ENDCHAR
STARTCHAR acircumflex
ENCODING 226
SWIDTH 604 0
DWIDTH 15 0
BBX 12 19 1 0
BITMAP
0F80
1FC0
3DE0
70E0
0000
0000
1F80
7FE0
3FF0
20F0
00F0
1FF0
7FF0
F8F0
F0F0
F0F0
FFF0
7F70
3E70
ENDCHAR
STARTCHAR atilde
ENCODING 227
SWIDTH 604 0
DWIDTH 15 0
BBX 12 19 1 0
BITMAP
1C30
3F60
37E0
31C0
0000
0000
1F80
7FE0
3FF0
20F0
00F0
1FF0
7FF0
F8F0
F0F0
F0F0
FFF0
7F70
3E70
ENDCHAR
STARTCHAR adieresis
ENCODING 228
SWIDTH 604 0
DWIDTH 15 0
BBX 12 18 1 0
BITMAP
18C0
3DE0
18C0
0000
0000
1F80
7FE0
3FF0
20F0
00F0
1FF0
7FF0
F8F0
F0F0
F0F0
FFF0
7F70
3E70
ENDCHAR
STARTCHAR aring
ENCODING 229
SWIDTH 604 0
DWIDTH 15 0
BBX 12 21 1 0
BITMAP
0700
0F80
0980
0980
0F80
0700
0000
0000
1F80
7FE0
3FF0
20F0
00F0
1FF0
7FF0
F8F0
F0F0
F0F0
FFF0
7F70
3E70
ENDCHAR
STARTCHAR ae
ENCODING 230
SWIDTH 916 0
DWIDTH 22 0
BBX 20 13 1 0
BITMAP
1F8F80
7FFFC0
3FFFE0
00F0F0
00F070
1FFFF0
7FFFF0
F8F000
F0F000
F1F000
FFFFE0
7FBFE0
3E0FC0
ENDCHAR
STARTCHAR ccedilla
ENCODING 231
SWIDTH 514 0
DWIDTH 12 0
BBX 10 19 1 -6
BITMAP
1F80
3FC0
7FC0
7800
F000
F000
F000
F000
F000
F840
7FC0
3FC0
1F80
0E00
0F00
0700
0300
1F00
1E00
ENDCHAR
STARTCHAR egrave
ENCODING 232
SWIDTH 590 0
DWIDTH 14 0
BBX 12 19 1 0
BITMAP
3C00
1E00
0700
0380
0000
0000
1F80
3FC0
7FE0
70F0
F070
FFF0
FFF0
F000
F000
7800
7FE0
3FE0
0FC0
ENDCHAR
STARTCHAR eacute
ENCODING 233
SWIDTH 590 0
DWIDTH 14 0
BBX 12 19 1 0
BITMAP
01E0
03C0
0780
0F00
0000
0000
1F80
3FC0
7FE0
70F0
F070
FFF0
FFF0
F000
F000
7800
7FE0
3FE0
0FC0
ENDCHAR
STARTCHAR ecircumflex
ENCODING 234
SWIDTH 590 0
DWIDTH 14 0
BBX 12 19 1 0
BITMAP
0F80
1FC0
3DE0
7870
0000
0000
1F80
3FC0
7FE0
70F0
F070
FFF0
FFF0
F000
F000
7800
7FE0
3FE0
0FC0
ENDCHAR
STARTCHAR edieresis
ENCODING 235
SWIDTH 590 0
DWIDTH 14 0
BBX 12 18 1 0
BITMAP
1CE0
1DE0
18C0
0000
0000
1F80
3FC0
7FE0
70F0
F070
FFF0
FFF0
F000
F000
7800
7FE0
3FE0
0FC0
ENDCHAR
STARTCHAR igrave
ENCODING 236
SWIDTH 305 0
DWIDTH 7 0
BBX 7 19 -1 0
BITMAP
F0
78
3C
0E
00
00
1C
1C
1C
1C
1C
1C
1C
1C
1C
1C
1C
1C
1C
ENDCHAR
STARTCHAR iacute
ENCODING 237
SWIDTH 305 0
DWIDTH 7 0
BBX 7 19 2 0
BITMAP
3E
38
70
E0
00
00
E0
E0
E0
E0
E0
E0
E0
E0
E0
E0
E0
E0
E0
ENDCHAR
STARTCHAR icircumflex
ENCODING 238
SWIDTH 305 0
DWIDTH 7 0
BBX 10 19 -1 0
BITMAP
3E00
3F00
7780
E1C0
0000
0000
1C00
1C00
1C00
1C00
1C00
1C00
1C00
1C00
1C00
1C00
1C00
1C00
1C00
ENDCHAR
STARTCHAR idieresis
ENCODING 239
SWIDTH 305 0
DWIDTH 7 0
BBX 8 18 0 0
BITMAP
E7
E7
E7
00
00
38
38
38
38
38
38
38
38
38
38
38
38
38
ENDCHAR
STARTCHAR eth
ENCODING 240
SWIDTH 619 0
DWIDTH 15 0
BBX 13 18 1 0
BITMAP
0840
0EE0
0FC0
0FC0
1FE0
0DE0
1FF0
3FF0
7FF8
F078
F078
F078
F078
F078
70F0
7FF0
3FE0
0F80
ENDCHAR
STARTCHAR ntilde
ENCODING 241
SWIDTH 657 0
DWIDTH 16 0
BBX 12 19 2 0
BITMAP
1C60
3FE0
77C0
63C0
0000
0000
E7C0
EFE0
FFF0
F8F0
F0F0
F070
F070
F070
F070
F070
F070
F070
F070
ENDCHAR
STARTCHAR ograve
ENCODING 242
SWIDTH 619 0
DWIDTH 15 0
BBX 13 19 1 0
BITMAP
3C00
1E00
0F00
0380
0000
0000
0F80
3FE0
7FF0
78F0
F078
F078
F078
F078
F078
78F0
7FF0
3FE0
0F80
ENDCHAR
STARTCHAR oacute
ENCODING 243
SWIDTH 619 0
DWIDTH 15 0
BBX 13 19 1 0
BITMAP
01E0
03C0
0380
0700
0000
0000
0F80
3FE0
7FF0
78F0
F078
F078
F078
F078
F078
78F0
7FF0
3FE0
0F80
ENDCHAR
STARTCHAR ocircumflex
ENCODING 244
SWIDTH 619 0
DWIDTH 15 0
BBX 13 19 1 0
BITMAP
0F80
1FC0
3DE0
3870
0000
0000
0F80
3FE0
7FF0
78F0
F078
F078
F078
F078
F078
78F0
7FF0
3FE0
0F80
ENDCHAR
STARTCHAR otilde
ENCODING 245
SWIDTH 619 0
DWIDTH 15 0
BBX 13 19 1 0
BITMAP
1C30
3F60
37E0
31C0
0000
0000
0F80
3FE0
7FF0
78F0
F078
F078
F078
F078
F078
78F0
7FF0
3FE0
0F80
ENDCHAR
STARTCHAR odieresis
ENCODING 246
SWIDTH 619 0
DWIDTH 15 0
BBX 13 18 1 0
BITMAP
18C0
1DE0
18C0
0000
0000
0F80
3FE0
7FF0
78F0
F078
F078
F078
F078
F078
78F0
7FF0
3FE0
0F80
ENDCHAR
STARTCHAR divide
ENCODING 247
SWIDTH 570 0
DWIDTH 14 0
BBX 11 12 1 2
BITMAP
0600
0E00
0E00
0600
0000
FFE0
FFE0
FFE0
0000
0E00
0E00
0600
ENDCHAR
STARTCHAR oslash
ENCODING 248
SWIDTH 619 0
DWIDTH 15 0
BBX 13 13 1 0
BITMAP
0FA0
3FE0
7FF0
79F0
F1F8
F3F8
F778
F678
FE78
7CF0
7FF0
3FE0
7F80
ENDCHAR
STARTCHAR ugrave
ENCODING 249
SWIDTH 657 0
DWIDTH 16 0
BBX 12 19 2 0
BITMAP
7800
3C00
0E00
0700
0000
0000
E0F0
E0F0
E0F0
E0F0
E0F0
E0F0
E0F0
E0F0
E0F0
F1F0
FFF0
7F70
3E70
ENDCHAR
STARTCHAR uacute
ENCODING 250
SWIDTH 657 0
DWIDTH 16 0
BBX 12 19 2 0
BITMAP
03E0
03C0
0700
0E00
0000
0000
E0F0
E0F0
E0F0
E0F0
E0F0
E0F0
E0F0
E0F0
E0F0
F1F0
FFF0
7F70
3E70
ENDCHAR
STARTCHAR ucircumflex
ENCODING 251
SWIDTH 657 0
DWIDTH 16 0
BBX 12 19 2 0
BITMAP
0F80
1F80
39C0
70E0
0000
0000
E0F0
E0F0
E0F0
E0F0
E0F0
E0F0
E0F0
E0F0
E0F0
F1F0
FFF0
7F70
3E70
ENDCHAR
STARTCHAR udieresis
ENCODING 252
SWIDTH 657 0
DWIDTH 16 0
BBX 12 18 2 0
BITMAP
39C0
39C0
39C0
0000
0000
E0F0
E0F0
E0F0
E0F0
E0F0
E0F0
E0F0
E0F0
E0F0
F1F0
FFF0
7F70
3E70
ENDCHAR
STARTCHAR yacute
ENCODING 253
SWIDTH 568 0
DWIDTH 14 0
BBX 14 25 0 -6
BITMAP
01E0
03C0
0380
0700
0000
0000
F03C
7838
7878
7878
3C70
3CF0
1CF0
1EE0
1FE0
0FC0
0FC0
07C0
0780
0780
0700
0F00
7E00
7E00
7800
ENDCHAR
STARTCHAR thorn
ENCODING 254
SWIDTH 632 0
DWIDTH 15 0
BBX 12 24 2 -6
BITMAP
E000
E000
E000
E000
E000
E780
EFC0
FFE0
F0F0
F0F0
E0F0
E0F0
E0F0
F0F0
F1F0
FFE0
FFE0
E780
E000
E000
E000
E000
E000
E000
ENDCHAR
STARTCHAR ydieresis
ENCODING 255
SWIDTH 568 0
DWIDTH 14 0
BBX 14 24 0 -6
BITMAP
1CE0
1CE0
1CE0
0000
0000
F03C
7838
7878
7878
3C70
3CF0
1CF0
1EE0
1FE0
0FC0
0FC0
07C0
0780
0780
0700
0F00
7E00
7E00
7800
ENDCHAR
STARTCHAR Amacron
ENCODING 256
SWIDTH 689 0
DWIDTH 17 0
BBX 17 21 0 0
BITMAP
0FF800
0FF800
000000
000000
03E000
03E000
07F000
077000
077000
0F7800
0E3800
1E3C00
1E3C00
1C1C00
3FFE00
3FFE00
3FFE00
780F00
780F00
780F00
F00780
ENDCHAR
STARTCHAR amacron
ENCODING 257
SWIDTH 604 0
DWIDTH 15 0
BBX 12 17 1 0
BITMAP
1FE0
1FE0
0000
0000
1F80
7FE0
3FF0
20F0
00F0
1FF0
7FF0
F8F0
F0F0
F0F0
FFF0
7F70
3E70
ENDCHAR
STARTCHAR Abreve
ENCODING 258
SWIDTH 689 0
DWIDTH 17 0
BBX 17 23 0 0
BITMAP
0C1800
0FF800
07F000
03E000
000000
000000
03E000
03E000
07F000
077000
077000
0F7800
0E3800
1E3C00
1E3C00
1C1C00
3FFE00
3FFE00
3FFE00
780F00
780F00
780F00
F00780
ENDCHAR
STARTCHAR abreve
ENCODING 259
SWIDTH 604 0
DWIDTH 15 0
BBX 12 19 1 0
BITMAP
3060
3FE0
1FC0
0F80
0000
0000
1F80
7FE0
3FF0
20F0
00F0
1FF0
7FF0
F8F0
F0F0
F0F0
FFF0
7F70
3E70
ENDCHAR
STARTCHAR Aogonek
ENCODING 260
SWIDTH 689 0
DWIDTH 17 0
BBX 17 23 0 -6
BITMAP
03E000
03E000
07F000
077000
077000
0F7800
0E3800
1E3C00
1E3C00
1C1C00
3FFE00
3FFE00
3FFE00
780F00
780F00
780F00
F00780
000600
000E00
000C00
000C00
000F00
000700
ENDCHAR
STARTCHAR aogonek
ENCODING 261
SWIDTH 604 0
DWIDTH 15 0
BBX 13 19 1 -6
BITMAP
1F80
7FE0
3FF0
20F0
00F0
1FF0
7FF0
F8F0
F0F0
F0F0
FFF0
7F70
3E70
0030
0060
00E0
00E0
00F8
0078
ENDCHAR
STARTCHAR Cacute
ENCODING 262
SWIDTH 637 0
DWIDTH 15 0
BBX 13 23 1 0
BITMAP
0078
00F0
01E0
0380
0000
0000
07E0
1FF8
3FF8
3C30
7800
7800
7000
F000
F000
F000
F000
7800
7800
7C18
3FF8
1FF8
07F0
ENDCHAR
STARTCHAR cacute
ENCODING 263
SWIDTH 514 0
DWIDTH 12 0
BBX 11 19 1 0
BITMAP
01E0
03C0
0700
0E00
0000
0000
1F80
3FC0
7FC0
7800
F000
F000
F000
F000
F000
F840
7FC0
3FC0
1F80
ENDCHAR
STARTCHAR Ccircumflex
ENCODING 264
SWIDTH 637 0
DWIDTH 15 0
BBX 14 23 1 0
BITMAP
03E0
07F0
0F78
1C3C
0000
0000
07E0
1FF8
3FF8
3C30
7800
7800
7000
F000
F000
F000
F000
7800
7800
7C18
3FF8
1FF8
07F0
ENDCHAR
STARTCHAR ccircumflex
ENCODING 265
SWIDTH 514 0
DWIDTH 12 0
BBX 11 19 1 0
BITMAP
0F80
1FC0
3DC0
70E0
0000
0000
1F80
3FC0
7FC0
7800
F000
F000
F000
F000
F000
F840
7FC0
3FC0
1F80
ENDCHAR
STARTCHAR Cdotaccent
ENCODING 266
SWIDTH 637 0
DWIDTH 15 0
BBX 13 22 1 0
BITMAP
03C0
03C0
01C0
0000
0000
07E0
1FF8
3FF8
3C30
7800
7800
7000
F000
F000
F000
F000
7800
7800
7C18
3FF8
1FF8
07F0
ENDCHAR
STARTCHAR cdotaccent
ENCODING 267
SWIDTH 514 0
DWIDTH 12 0
BBX 10 19 1 0
BITMAP
0200
0F00
0F00
0700
0000
0000
1F80
3FC0
7FC0
7800
F000
F000
F000
F000
F000
F840
7FC0
3FC0
1F80
ENDCHAR
STARTCHAR Ccaron
ENCODING 268
SWIDTH 637 0
DWIDTH 15 0
BBX 14 23 1 0
BITMAP
1C3C
0F78
07F0
03E0
0000
0000
07E0
1FF8
3FF8
3C30
7800
7800
7000
F000
F000
F000
F000
7800
7800
7C18
3FF8
1FF8
07F0
ENDCHAR
STARTCHAR ccaron
ENCODING 269
SWIDTH 514 0
DWIDTH 12 0
BBX 12 19 1 0
BITMAP
70F0
3DE0
1FC0
0F80
0000
0000
1F80
3FC0
7FC0
7800
F000
F000
F000
F000
F000
F840
7FC0
3FC0
1F80
ENDCHAR
STARTCHAR Dcaron
ENCODING 270
SWIDTH 740 0
DWIDTH 18 0
BBX 15 23 2 0
BITMAP
3870
1DE0
1FC0
0F80
0000
0000
FF80
FFE0
FFF0
F0F8
F03C
F03C
F01C
F01E
F01E
F01E
F01C
F03C
F07C
F0F8
FFF0
FFE0
FF80
ENDCHAR
STARTCHAR dcaron
ENCODING 271
SWIDTH 632 0
DWIDTH 15 0
BBX 17 18 1 0
BITMAP
007380
007380
007300
007700
007000
1E7000
3FF000
7FF000
F8F000
F07000
F07000
F07000
F07000
F07000
F8F000
7FF000
3F7000
1E7000
ENDCHAR
STARTCHAR Dcroat
ENCODING 272
SWIDTH 740 0
DWIDTH 18 0
BBX 16 17 1 0
BITMAP
7FC0
7FF0
7FF8
787C
781E
781E
780E
FF0F
FF0F
FF0F
780E
781E
783E
787C
7FF8
7FF0
7FC0
ENDCHAR
STARTCHAR dcroat
ENCODING 273
SWIDTH 648 0
DWIDTH 16 0
BBX 14 18 1 0
BITMAP
0078
0078
07FC
07FC
0078
0078
1F78
3FF8
7FF8
F8F8
F078
F078
F078
F078
F878
7FF8
3FF8
1E38
ENDCHAR
STARTCHAR Emacron
ENCODING 274
SWIDTH 560 0
DWIDTH 13 0
BBX 10 21 2 0
BITMAP
7F80
7F80
0000
0000
FFC0
FFC0
FFC0
F000
F000
F000
F000
FF80
FF80
FF80
F000
F000
F000
F000
FFC0
FFC0
FFC0
ENDCHAR
STARTCHAR emacron
ENCODING 275
SWIDTH 590 0
DWIDTH 14 0
BBX 12 17 1 0
BITMAP
3FE0
3FE0
0000
0000
1F80
3FC0
7FE0
70F0
F070
FFF0
FFF0
F000
F000
7800
7FE0
3FE0
0FC0
ENDCHAR
STARTCHAR Ebreve
ENCODING 276
SWIDTH 560 0
DWIDTH 13 0
BBX 10 23 2 0
BITMAP
60C0
7FC0
7F80
1F00
0000
0000
FFC0
FFC0
FFC0
F000
F000
F000
F000
FF80
FF80
FF80
F000
F000
F000
F000
FFC0
FFC0
FFC0
ENDCHAR
STARTCHAR ebreve
ENCODING 277
SWIDTH 590 0
DWIDTH 14 0
BBX 12 19 1 0
BITMAP
3060
3FE0
1FC0
0F80
0000
0000
1F80
3FC0
7FE0
70F0
F070
FFF0
FFF0
F000
F000
7800
7FE0
3FE0
0FC0
ENDCHAR
STARTCHAR Edotaccent
ENCODING 278
SWIDTH 560 0
DWIDTH 13 0
BBX 10 22 2 0
BITMAP
1E00
1E00
0E00
0000
0000
FFC0
FFC0
FFC0
F000
F000
F000
F000
FF80
FF80
FF80
F000
F000
F000
F000
FFC0
FFC0
FFC0
ENDCHAR
STARTCHAR edotaccent
ENCODING 279
SWIDTH 590 0
DWIDTH 14 0
BBX 12 19 1 0
BITMAP
0200
0F00
0F00
0700
0000
0000
1F80
3FC0
7FE0
70F0
F070
FFF0
FFF0
F000
F000
7800
7FE0
3FE0
0FC0
ENDCHAR
STARTCHAR Eogonek
ENCODING 280
SWIDTH 560 0
DWIDTH 13 0
BBX 10 23 2 -6
BITMAP
FFC0
FFC0
FFC0
F000
F000
F000
F000
FF80
FF80
FF80
F000
F000
F000
F000
FFC0
FFC0
FFC0
0380
0700
0600
0600
07C0
03C0
ENDCHAR
STARTCHAR eogonek
ENCODING 281
SWIDTH 590 0
DWIDTH 14 0
BBX 12 19 1 -6
BITMAP
1F80
3FC0
7FE0
70F0
F070
FFF0
FFF0
F000
F000
7800
7FE0
3FE0
0FC0
01C0
0380
0300
0380
03E0
01E0
ENDCHAR
STARTCHAR Ecaron
ENCODING 282
SWIDTH 560 0
DWIDTH 13 0
BBX 10 23 2 0
BITMAP
E1C0
7B80
3F80
1F00
0000
0000
FFC0
FFC0
FFC0
F000
F000
F000
F000
FF80
FF80
FF80
F000
F000
F000
F000
FFC0
FFC0
FFC0
ENDCHAR
STARTCHAR ecaron
ENCODING 283
SWIDTH 590 0
DWIDTH 14 0
BBX 12 19 1 0
BITMAP
7070
3DE0
1FC0
0F80
0000
0000
1F80
3FC0
7FE0
70F0
F070
FFF0
FFF0
F000
F000
7800
7FE0
3FE0
0FC0
ENDCHAR
STARTCHAR Gcircumflex
ENCODING 284
SWIDTH 724 0
DWIDTH 17 0
BBX 14 23 1 0
BITMAP
03E0
07F0
0778
0E1C
0000
0000
03F8
0FFC
3FFC
3E08
7C00
7800
7000
F1FC
F1FC
F1FC
F01C
781C
781C
7C1C
3FFC
1FFC
07F8
ENDCHAR
STARTCHAR gcircumflex
ENCODING 285
SWIDTH 632 0
DWIDTH 15 0
BBX 12 25 1 -6
BITMAP
0F80
1FC0
3DE0
7870
0000
0000
1E70
3FF0
7FF0
F8F0
F070
F070
F070
F070
F070
F0F0
7FF0
3F70
1E70
0070
00F0
00F0
7FE0
7FE0
3F80
ENDCHAR
STARTCHAR Gbreve
ENCODING 286
SWIDTH 724 0
DWIDTH 17 0
BBX 14 23 1 0
BITMAP
0C18
0FF8
07F0
03E0
0000
0000
03F8
0FFC
3FFC
3E08
7C00
7800
7000
F1FC
F1FC
F1FC
F01C
781C
781C
7C1C
3FFC
1FFC
07F8
ENDCHAR
STARTCHAR gbreve
ENCODING 287
SWIDTH 632 0
DWIDTH 15 0
BBX 12 25 1 -6
BITMAP
3060
3FE0
1FC0
0F80
0000
0000
1E70
3FF0
7FF0
F8F0
F070
F070
F070
F070
F070
F0F0
7FF0
3F70
1E70
0070
00F0
00F0
7FE0
7FE0
3F80
ENDCHAR
STARTCHAR Gdotaccent
ENCODING 288
SWIDTH 724 0
DWIDTH 17 0
BBX 14 22 1 0
BITMAP
01C0
01C0
01C0
0000
0000
03F8
0FFC
3FFC
3E08
7C00
7800
7000
F1FC
F1FC
F1FC
F01C
781C
781C
7C1C
3FFC
1FFC
07F8
ENDCHAR
STARTCHAR gdotaccent
ENCODING 289
SWIDTH 632 0
DWIDTH 15 0
BBX 12 24 1 -6
BITMAP
0700
0700
0700
0000
0000
1E70
3FF0
7FF0
F8F0
F070
F070
F070
F070
F070
F0F0
7FF0
3F70
1E70
0070
00F0
00F0
7FE0
7FE0
3F80
ENDCHAR
STARTCHAR uni0122
ENCODING 290
SWIDTH 724 0
DWIDTH 17 0
BBX 14 22 1 -5
BITMAP
03F8
0FFC
3FFC
3E08
7C00
7800
7000
F1FC
F1FC
F1FC
F01C
781C
781C
7C1C
3FFC
1FFC
07F8
0000
01C0
01C0
0180
0380
ENDCHAR
STARTCHAR uni0123
ENCODING 291
SWIDTH 632 0
DWIDTH 15 0
BBX 12 25 1 -6
BITMAP
0300
0300
0700
0700
0000
0000
1E70
3FF0
7FF0
F8F0
F070
F070
F070
F070
F070
F0F0
7FF0
3F70
1E70
0070
00F0
00F0
7FE0
7FE0
3F80
ENDCHAR
STARTCHAR Hcircumflex
ENCODING 292
SWIDTH 765 0
DWIDTH 18 0
BBX 14 23 2 0
BITMAP
07C0
0FE0
1EE0
3870
0000
0000
F03C
F03C
F03C
F03C
F03C
F03C
F03C
FFFC
FFFC
FFFC
F03C
F03C
F03C
F03C
F03C
F03C
F03C
ENDCHAR
STARTCHAR hcircumflex
ENCODING 293
SWIDTH 657 0
DWIDTH 16 0
BBX 12 24 2 0
BITMAP
0F80
1F80
39C0
70E0
0000
0000
E000
E000
E000
E000
E000
E7C0
EFE0
FFF0
F8F0
F0F0
F070
E070
E070
E070
E070
E070
E070
E070
ENDCHAR
STARTCHAR Hbar
ENCODING 294
SWIDTH 765 0
DWIDTH 18 0
BBX 18 17 0 0
BITMAP
3C0F00
3C0F00
FFFFC0
FFFFC0
3C0F00
3C0F00
3C0F00
3FFF00
3FFF00
3FFF00
3C0F00
3C0F00
3C0F00
3C0F00
3C0F00
3C0F00
3C0F00
ENDCHAR
STARTCHAR hbar
ENCODING 295
SWIDTH 657 0
DWIDTH 16 0
BBX 14 18 0 0
BITMAP
3800
3800
FF80
FF80
3C00
3800
39F0
3BF8
3FFC
3C3C
3C3C
3C1C
381C
381C
381C
381C
381C
381C
ENDCHAR
STARTCHAR Itilde
ENCODING 296
SWIDTH 389 0
DWIDTH 9 0
BBX 10 23 0 0
BITMAP
78C0
7DC0
FF80
C700
0000
0000
7F00
7F00
3F00
1C00
1C00
1C00
1C00
1C00
1C00
1C00
1C00
1C00
1C00
1C00
3F00
7F00
7F00
ENDCHAR
STARTCHAR itilde
ENCODING 297
SWIDTH 305 0
DWIDTH 7 0
BBX 10 19 -1 0
BITMAP
78C0
7DC0
FF80
C700
0000
0000
1C00
1C00
1C00
1C00
1C00
1C00
1C00
1C00
1C00
1C00
1C00
1C00
1C00
ENDCHAR
STARTCHAR Imacron
ENCODING 298
SWIDTH 389 0
DWIDTH 9 0
BBX 8 21 1 0
BITMAP
FF
FF
00
00
FE
FE
7E
38
38
38
38
38
38
38
38
38
38
38
7E
FE
FE
ENDCHAR
STARTCHAR imacron
ENCODING 299
SWIDTH 305 0
DWIDTH 7 0
BBX 8 17 0 0
BITMAP
FF
FF
00
00
38
38
38
38
38
38
38
38
38
38
38
38
38
ENDCHAR
STARTCHAR Ibreve
ENCODING 300
SWIDTH 389 0
DWIDTH 9 0
BBX 10 23 0 0
BITMAP
C1C0
FF80
7F80
3E00
0000
0000
7F00
7F00
3F00
1C00
1C00
1C00
1C00
1C00
1C00
1C00
1C00
1C00
1C00
1C00
3F00
7F00
7F00
ENDCHAR
STARTCHAR ibreve
ENCODING 301
SWIDTH 305 0
DWIDTH 7 0
BBX 10 19 -1 0
BITMAP
C1C0
FF80
7F80
3E00
0000
0000
1C00
1C00
1C00
1C00
1C00
1C00
1C00
1C00
1C00
1C00
1C00
1C00
1C00
ENDCHAR
STARTCHAR Iogonek
ENCODING 302
SWIDTH 389 0
DWIDTH 9 0
BBX 7 23 1 -6
BITMAP
FE
FE
7E
38
38
38
38
38
38
38
38
38
38
38
7E
FE
FE
18
30
70
70
3C
3C
ENDCHAR
STARTCHAR iogonek
ENCODING 303
SWIDTH 305 0
DWIDTH 7 0
BBX 5 24 1 -6
BITMAP
70
78
70
20
00
70
70
70
70
70
70
70
70
70
70
70
70
70
30
60
E0
E0
F8
78
ENDCHAR
STARTCHAR Idotaccent
ENCODING 304
SWIDTH 389 0
DWIDTH 9 0
BBX 7 22 1 0
BITMAP
38
3C
38
00
00
FE
FE
7E
38
38
38
38
38
38
38
38
38
38
38
7E
FE
FE
ENDCHAR
STARTCHAR dotlessi
ENCODING 305
SWIDTH 305 0
DWIDTH 7 0
BBX 3 13 2 0
BITMAP
E0
E0
E0
E0
E0
E0
E0
E0
E0
E0
E0
E0
E0
ENDCHAR
STARTCHAR IJ
ENCODING 306
SWIDTH 720 0
DWIDTH 17 0
BBX 14 22 1 -5
BITMAP
FE1C
FE1C
7E1C
381C
381C
381C
381C
381C
381C
381C
381C
381C
381C
381C
7E1C
FE1C
FE3C
003C
003C
01F8
01F8
01E0
ENDCHAR
STARTCHAR ij
ENCODING 307
SWIDTH 590 0
DWIDTH 14 0
BBX 10 24 2 -6
BITMAP
E1C0
F1C0
E1C0
4000
0000
E1C0
E1C0
E1C0
E1C0
E1C0
E1C0
E1C0
E1C0
E1C0
E1C0
E1C0
E1C0
E1C0
01C0
01C0
03C0
1FC0
1F80
1F00
ENDCHAR
STARTCHAR Jcircumflex
ENCODING 308
SWIDTH 331 0
DWIDTH 8 0
BBX 11 28 -2 -5
BITMAP
0F80
1F80
39C0
70E0
0000
0000
0F00
0F00
0F00
0F00
0F00
0F00
0F00
0F00
0F00
0F00
0F00
0F00
0F00
0F00
0F00
0F00
0F00
0F00
1E00
FE00
FC00
F800
ENDCHAR
STARTCHAR jcircumflex
ENCODING 309
SWIDTH 305 0
DWIDTH 7 0
BBX 11 25 -2 -6
BITMAP
1F00
1F80
3BC0
70E0
0000
0000
0E00
0E00
0E00
0E00
0E00
0E00
0E00
0E00
0E00
0E00
0E00
0E00
0E00
0E00
0E00
1E00
FE00
FC00
F800
ENDCHAR
STARTCHAR uni0136
ENCODING 310
SWIDTH 664 0
DWIDTH 16 0
BBX 14 22 2 -5
BITMAP
F07C
F078
F0F0
F1E0
F3C0
F7C0
F780
FF00
FF80
FF80
F3C0
F3E0
F1E0
F0F0
F0F0
F078
F03C
0000
0700
0E00
0E00
0C00
ENDCHAR
STARTCHAR uni0137
ENCODING 311
SWIDTH 620 0
DWIDTH 15 0
BBX 13 23 2 -5
BITMAP
E000
E000
E000
E000
E000
E0F0
E1E0
E3C0
E780
EF00
EF00
FF00
FF80
F3C0
F3C0
F1E0
F0F0
F0F8
0000
0E00
0E00
0C00
1C00
ENDCHAR
STARTCHAR kgreenlandic
ENCODING 312
SWIDTH 620 0
DWIDTH 15 0
BBX 13 13 2 0
BITMAP
E0F0
E1E0
E1C0
E3C0
E780
EF00
FF00
FF80
F380
E3C0
E1E0
E0F0
E078
ENDCHAR
STARTCHAR Lacute
ENCODING 313
SWIDTH 564 0
DWIDTH 14 0
BBX 11 23 2 0
BITMAP
0F00
1E00
3C00
7000
0000
0000
F000
F000
F000
F000
F000
F000
F000
F000
F000
F000
F000
F000
F000
F000
FFE0
FFE0
FFE0
ENDCHAR
STARTCHAR lacute
ENCODING 314
SWIDTH 305 0
DWIDTH 7 0
BBX 7 24 2 0
BITMAP
1E
3C
78
E0
00
00
E0
E0
E0
E0
E0
E0
E0
E0
E0
E0
E0
E0
E0
E0
E0
E0
E0
E0
ENDCHAR
STARTCHAR uni013B
ENCODING 315
SWIDTH 564 0
DWIDTH 14 0
BBX 11 22 2 -5
BITMAP
F000
F000
F000
F000
F000
F000
F000
F000
F000
F000
F000
F000
F000
F000
FFE0
FFE0
FFE0
0000
0700
0E00
0E00
0C00
ENDCHAR
STARTCHAR uni013C
ENCODING 316
SWIDTH 305 0
DWIDTH 7 0
BBX 4 23 1 -5
BITMAP
70
70
70
70
70
70
70
70
70
70
70
70
70
70
70
70
70
70
00
70
70
E0
E0
ENDCHAR
STARTCHAR Lcaron
ENCODING 317
SWIDTH 564 0
DWIDTH 14 0
BBX 11 17 2 0
BITMAP
F1C0
F1C0
F180
F380
F000
F000
F000
F000
F000
F000
F000
F000
F000
F000
FFE0
FFE0
FFE0
ENDCHAR
STARTCHAR lcaron
ENCODING 318
SWIDTH 305 0
DWIDTH 7 0
BBX 8 18 2 0
BITMAP
E7
E7
E6
E6
E0
E0
E0
E0
E0
E0
E0
E0
E0
E0
E0
E0
E0
E0
ENDCHAR
STARTCHAR Ldot
ENCODING 319
SWIDTH 564 0
DWIDTH 14 0
BBX 11 17 2 0
BITMAP
F000
F000
F000
F000
F000
F000
F000
F1E0
F1E0
F0E0
F000
F000
F000
F000
FFE0
FFE0
FFE0
ENDCHAR
STARTCHAR ldot
ENCODING 320
SWIDTH 428 0
DWIDTH 10 0
BBX 9 18 2 0
BITMAP
E000
E000
E000
E000
E000
E000
E000
E000
E780
E780
E700
E000
E000
E000
E000
E000
E000
E000
ENDCHAR
STARTCHAR Lslash
ENCODING 321
SWIDTH 564 0
DWIDTH 14 0
BBX 13 17 0 0
BITMAP
3C00
3C00
3C00
3C00
3C00
3D00
3F00
3F80
3E00
FC00
7C00
7C00
3C00
3C00
3FF8
3FF8
3FF8
ENDCHAR
STARTCHAR lslash
ENCODING 322
SWIDTH 305 0
DWIDTH 7 0
BBX 7 18 0 0
BITMAP
38
38
38
38
38
38
38
3C
3E
3E
F8
F8
78
38
38
38
38
38
ENDCHAR
STARTCHAR Nacute
ENCODING 323
SWIDTH 812 0
DWIDTH 20 0
BBX 16 23 2 0
BITMAP
00F8
00E0
01C0
0380
0000
0000
F80F
FC0F
FC0F
FE0F
EF0F
EF0F
E78F
E78F
E3CF
E1EF
E1EF
E0F7
E0F7
E07F
E07F
E03F
E01F
ENDCHAR
STARTCHAR nacute
ENCODING 324
SWIDTH 657 0
DWIDTH 16 0
BBX 12 19 2 0
BITMAP
01E0
03C0
0700
0E00
0000
0000
E7C0
EFE0
FFF0
F8F0
F0F0
F070
F070
F070
F070
F070
F070
F070
F070
ENDCHAR
STARTCHAR uni0145
ENCODING 325
SWIDTH 812 0
DWIDTH 20 0
BBX 16 22 2 -5
BITMAP
F80F
FC0F
FC0F
FE0F
EF0F
EF0F
E78F
E78F
E3CF
E1EF
E1EF
E0F7
E0F7
E07F
E07F
E03F
E01F
0000
0380
0700
0700
0600
ENDCHAR
STARTCHAR uni0146
ENCODING 326
SWIDTH 657 0
DWIDTH 16 0
BBX 12 18 2 -5
BITMAP
E7C0
EFE0
FFF0
F8F0
F0F0
F070
F070
F070
F070
F070
F070
F070
F070
0000
0E00
0E00
0C00
1C00
ENDCHAR
STARTCHAR Ncaron
ENCODING 327
SWIDTH 812 0
DWIDTH 20 0
BBX 16 23 2 0
BITMAP
1C38
0F70
07F0
03E0
0000
0000
F80F
FC0F
FC0F
FE0F
EF0F
EF0F
E78F
E78F
E3CF
E1EF
E1EF
E0F7
E0F7
E07F
E07F
E03F
E01F
ENDCHAR
STARTCHAR ncaron
ENCODING 328
SWIDTH 657 0
DWIDTH 16 0
BBX 12 19 2 0
BITMAP
70E0
3DE0
1FC0
0F80
0000
0000
E7C0
EFE0
FFF0
F8F0
F0F0
F070
F070
F070
F070
F070
F070
F070
F070
ENDCHAR
STARTCHAR napostrophe
ENCODING 329
SWIDTH 778 0
DWIDTH 19 0
BBX 17 17 0 0
BITMAP
700000
700000
700000
700000
E73E00
E77F00
07FF80
078780
078780
078780
070780
070780
070780
070780
070780
070780
070780
ENDCHAR
STARTCHAR Eng
ENCODING 330
SWIDTH 812 0
DWIDTH 20 0
BBX 16 22 2 -5
BITMAP
F80F
FC0F
FE0F
FE0F
EF0F
EF8F
E7CF
E3CF
E3E7
E1F7
E0FF
E07F
E07F
E03F
E01F
E01F
E00F
000F
000F
00FE
00FC
00F8
ENDCHAR
STARTCHAR eng
ENCODING 331
SWIDTH 657 0
DWIDTH 16 0
BBX 12 19 2 -6
BITMAP
E7C0
EFE0
FFF0
F8F0
F0F0
F070
F070
F070
F070
F070
F070
F070
F070
0070
0070
00F0
03F0
03E0
03C0
ENDCHAR
STARTCHAR Omacron
ENCODING 332
SWIDTH 795 0
DWIDTH 19 0
BBX 17 21 1 0
BITMAP
07F800
07F800
000000
000000
07F000
1FFC00
3FFE00
7C1E00
780F00
780F00
700700
F00780
F00780
F00780
700700
780F00
780F00
3C1F00
3FFE00
1FFC00
07F000
ENDCHAR
STARTCHAR omacron
ENCODING 333
SWIDTH 619 0
DWIDTH 15 0
BBX 13 17 1 0
BITMAP
1FE0
1FE0
0000
0000
0F80
3FE0
7FF0
78F0
F078
F078
F078
F078
F078
78F0
7FF0
3FE0
0F80
ENDCHAR
STARTCHAR Obreve
ENCODING 334
SWIDTH 795 0
DWIDTH 19 0
BBX 17 23 1 0
BITMAP
0C1800
0FF800
07F800
03E000
000000
000000
07F000
1FFC00
3FFE00
7C1E00
780F00
780F00
700700
F00780
F00780
F00780
700700
780F00
780F00
3C1F00
3FFE00
1FFC00
07F000
ENDCHAR
STARTCHAR obreve
ENCODING 335
SWIDTH 619 0
DWIDTH 15 0
BBX 13 19 1 0
BITMAP
3060
3FE0
1FC0
0F80
0000
0000
0F80
3FE0
7FF0
78F0
F078
F078
F078
F078
F078
78F0
7FF0
3FE0
0F80
ENDCHAR
STARTCHAR Ohungarumlaut
ENCODING 336
SWIDTH 795 0
DWIDTH 19 0
BBX 17 23 1 0
BITMAP
01DE00
039C00
073800
067000
000000
000000
07F000
1FFC00
3FFE00
7C1E00
780F00
780F00
700700
F00780
F00780
F00780
700700
780F00
780F00
3C1F00
3FFE00
1FFC00
07F000
ENDCHAR
STARTCHAR ohungarumlaut
ENCODING 337
SWIDTH 619 0
DWIDTH 15 0
BBX 13 19 1 0
BITMAP
0F70
0EF0
1CE0
3980
0000
0000
0F80
3FE0
7FF0
78F0
F078
F078
F078
F078
F078
78F0
7FF0
3FE0
0F80
ENDCHAR
STARTCHAR OE
ENCODING 338
SWIDTH 973 0
DWIDTH 23 0
BBX 21 17 1 0
BITMAP
07FFF8
1FFFF8
3FFFF8
7C1C00
781C00
781C00
F01C00
F01FF0
F01FF0
F01FF0
F01C00
781C00
781C00
7C1C00
3FFFF8
1FFFF8
07FFF8
ENDCHAR
STARTCHAR oe
ENCODING 339
SWIDTH 978 0
DWIDTH 23 0
BBX 21 13 1 0
BITMAP
1F8FC0
3FDFE0
7FFFF0
78F878
F07038
F07FF8
F07FF8
F07800
F07800
78F800
7FFFF0
3FFFF0
0F87E0
ENDCHAR
STARTCHAR Racute
ENCODING 340
SWIDTH 660 0
DWIDTH 16 0
BBX 14 23 2 0
BITMAP
03C0
0780
0700
0E00
0000
0000
FF80
FFE0
FFE0
F1F0
F0F0
F0F0
F0F0
F1F0
FFE0
FFC0
FF80
F3C0
F1E0
F0E0
F0F0
F078
F03C
ENDCHAR
STARTCHAR racute
ENCODING 341
SWIDTH 454 0
DWIDTH 11 0
BBX 9 19 2 0
BITMAP
0780
0F00
1C00
3800
0000
0000
E700
EF00
FF00
FC00
F000
F000
F000
F000
F000
F000
F000
F000
F000
ENDCHAR
STARTCHAR uni0156
ENCODING 342
SWIDTH 660 0
DWIDTH 16 0
BBX 14 22 2 -5
BITMAP
FF80
FFE0
FFE0
F1F0
F0F0
F0F0
F0F0
F1F0
FFE0
FFC0
FF80
F3C0
F1E0
F0E0
F0F0
F078
F03C
0000
0700
0700
0E00
0E00
ENDCHAR
STARTCHAR uni0157
ENCODING 343
SWIDTH 454 0
DWIDTH 11 0
BBX 9 18 1 -5
BITMAP
7380
7780
7F80
7E00
7800
7800
7800
7800
7800
7800
7800
7800
7800
0000
7000
7000
E000
E000
ENDCHAR
STARTCHAR Rcaron
ENCODING 344
SWIDTH 660 0
DWIDTH 16 0
BBX 14 23 2 0
BITMAP
70E0
39C0
1F80
0F80
0000
0000
FF80
FFE0
FFE0
F1F0
F0F0
F0F0
F0F0
F1F0
FFE0
FFC0
FF80
F3C0
F1E0
F0E0
F0F0
F078
F03C
ENDCHAR
STARTCHAR rcaron
ENCODING 345
SWIDTH 454 0
DWIDTH 11 0
BBX 10 19 1 0
BITMAP
E1C0
7B80
3F80
1F00
0000
0000
7380
7780
7F80
7E00
7800
7800
7800
7800
7800
7800
7800
7800
7800
ENDCHAR
STARTCHAR Sacute
ENCODING 346
SWIDTH 550 0
DWIDTH 13 0
BBX 11 23 1 0
BITMAP
03E0
03C0
0700
0E00
0000
0000
1F80
3FE0
7FE0
F0C0
F000
F000
7C00
7F00
3F80
0FC0
03E0
01E0
00E0
C1E0
FFE0
FFC0
7F00
ENDCHAR
STARTCHAR sacute
ENCODING 347
SWIDTH 497 0
DWIDTH 12 0
BBX 10 19 1 0
BITMAP
03C0
0780
0F00
1C00
0000
0000
3F80
7FC0
FF80
F080
F800
7E00
3F80
0FC0
03C0
83C0
FFC0
FF80
7F00
ENDCHAR
STARTCHAR Scircumflex
ENCODING 348
SWIDTH 550 0
DWIDTH 13 0
BBX 11 23 1 0
BITMAP
0F80
1F80
39C0
70E0
0000
0000
1F80
3FE0
7FE0
F0C0
F000
F000
7C00
7F00
3F80
0FC0
03E0
01E0
00E0
C1E0
FFE0
FFC0
7F00
ENDCHAR
STARTCHAR scircumflex
ENCODING 349
SWIDTH 497 0
DWIDTH 12 0
BBX 10 19 1 0
BITMAP
1F00
3F80
7BC0
E1C0
0000
0000
3F80
7FC0
FF80
F080
F800
7E00
3F80
0FC0
03C0
83C0
FFC0
FF80
7F00
ENDCHAR
STARTCHAR Scedilla
ENCODING 350
SWIDTH 550 0
DWIDTH 13 0
BBX 11 23 1 -6
BITMAP
1F80
3FE0
7FE0
F0C0
F000
F000
7C00
7F00
3F80
0FC0
03E0
01E0
00E0
C1E0
FFE0
FFC0
7F00
0C00
0E00
0700
0700
1F00
1E00
ENDCHAR
STARTCHAR scedilla
ENCODING 351
SWIDTH 497 0
DWIDTH 12 0
BBX 10 19 1 -6
BITMAP
3F80
7FC0
FF80
F080
F800
7E00
3F80
0FC0
03C0
83C0
FFC0
FF80
7F00
1C00
1E00
0E00
0600
3E00
3C00
ENDCHAR
STARTCHAR Scaron
ENCODING 352
SWIDTH 550 0
DWIDTH 13 0
BBX 11 23 1 0
BITMAP
70E0
3DC0
1FC0
0F80
0000
0000
1F80
3FE0
7FE0
F0C0
F000
F000
7C00
7F00
3F80
0FC0
03E0
01E0
00E0
C1E0
FFE0
FFC0
7F00
ENDCHAR
STARTCHAR scaron
ENCODING 353
SWIDTH 497 0
DWIDTH 12 0
BBX 11 19 1 0
BITMAP
E0E0
7BC0
3F80
1F00
0000
0000
3F80
7FC0
FF80
F080
F800
7E00
3F80
0FC0
03C0
83C0
FFC0
FF80
7F00
ENDCHAR
STARTCHAR uni0162
ENCODING 354
SWIDTH 579 0
DWIDTH 14 0
BBX 14 23 0 -6
BITMAP
FFFC
FFFC
FFFC
0780
0780
0780
0780
0780
0780
0780
0780
0780
0780
0780
0780
0780
0780
0300
0780
03C0
01C0
0FC0
0F80
ENDCHAR
STARTCHAR uni0163
ENCODING 355
SWIDTH 434 0
DWIDTH 10 0
BBX 9 22 0 -6
BITMAP
1C00
1C00
1C00
3F80
FF80
FF80
3C00
3C00
3C00
3C00
3C00
3C00
3C00
3F80
1F80
0F80
0600
0F00
0780
0380
1F00
1E00
ENDCHAR
STARTCHAR Tcaron
ENCODING 356
SWIDTH 579 0
DWIDTH 14 0
BBX 14 23 0 0
BITMAP
3870
1CE0
0FC0
07C0
0000
0000
FFFC
FFFC
FFFC
0780
0780
0780
0780
0780
0780
0780
0780
0780
0780
0780
0780
0780
0780
ENDCHAR
STARTCHAR tcaron
ENCODING 357
SWIDTH 434 0
DWIDTH 10 0
BBX 11 18 0 0
BITMAP
00E0
00E0
1CC0
1DC0
1C00
3F80
FF80
FF80
3C00
3C00
3C00
3C00
3C00
3C00
3C00
3F80
1F80
0F80
ENDCHAR
STARTCHAR Tbar
ENCODING 358
SWIDTH 579 0
DWIDTH 14 0
BBX 14 17 0 0
BITMAP
FFFC
FFFC
FFFC
0780
0780
0780
0780
3FF0
3FF0
3FF0
0780
0780
0780
0780
0780
0780
0780
ENDCHAR
STARTCHAR tbar
ENCODING 359
SWIDTH 434 0
DWIDTH 10 0
BBX 9 16 0 0
BITMAP
1C00
1C00
1C00
3F80
FF80
FF80
3C00
3C00
7F80
7F80
3C00
3C00
3C00
3F80
1F80
0F80
ENDCHAR
STARTCHAR Utilde
ENCODING 360
SWIDTH 755 0
DWIDTH 18 0
BBX 14 23 2 0
BITMAP
0E30
1FB0
1BF0
30E0
0000
0000
F03C
F03C
F03C
F03C
F03C
F03C
F03C
F03C
F03C
F03C
F03C
F03C
F03C
7878
7FF8
3FF0
0FC0
ENDCHAR
STARTCHAR utilde
ENCODING 361
SWIDTH 657 0
DWIDTH 16 0
BBX 12 19 2 0
BITMAP
1C60
3FE0
77C0
6380
0000
0000
E0F0
E0F0
E0F0
E0F0
E0F0
E0F0
E0F0
E0F0
E0F0
F1F0
FFF0
7F70
3E70
ENDCHAR
STARTCHAR Umacron
ENCODING 362
SWIDTH 755 0
DWIDTH 18 0
BBX 14 21 2 0
BITMAP
1FE0
1FE0
0000
0000
F03C
F03C
F03C
F03C
F03C
F03C
F03C
F03C
F03C
F03C
F03C
F03C
F03C
7878
7FF8
3FF0
0FC0
ENDCHAR
STARTCHAR umacron
ENCODING 363
SWIDTH 657 0
DWIDTH 16 0
BBX 12 17 2 0
BITMAP
3FC0
3FC0
0000
0000
E0F0
E0F0
E0F0
E0F0
E0F0
E0F0
E0F0
E0F0
E0F0
F1F0
FFF0
7F70
3E70
ENDCHAR
STARTCHAR Ubreve
ENCODING 364
SWIDTH 755 0
DWIDTH 18 0
BBX 14 23 2 0
BITMAP
1830
1FF0
1FE0
07C0
0000
0000
F03C
F03C
F03C
F03C
F03C
F03C
F03C
F03C
F03C
F03C
F03C
F03C
F03C
7878
7FF8
3FF0
0FC0
ENDCHAR
STARTCHAR ubreve
ENCODING 365
SWIDTH 657 0
DWIDTH 16 0
BBX 12 19 2 0
BITMAP
6060
3FC0
3FC0
0F00
0000
0000
E0F0
E0F0
E0F0
E0F0
E0F0
E0F0
E0F0
E0F0
E0F0
F1F0
FFF0
7F70
3E70
ENDCHAR
STARTCHAR Uring
ENCODING 366
SWIDTH 755 0
DWIDTH 18 0
BBX 14 25 2 0
BITMAP
0780
0FC0
0CC0
0CC0
0FC0
0780
0000
0000
F03C
F03C
F03C
F03C
F03C
F03C
F03C
F03C
F03C
F03C
F03C
F03C
F03C
7878
7FF8
3FF0
0FC0
ENDCHAR
STARTCHAR uring
ENCODING 367
SWIDTH 657 0
DWIDTH 16 0
BBX 12 21 2 0
BITMAP
0F00
1F80
1980
1980
1F80
0F00
0000
0000
E0F0
E0F0
E0F0
E0F0
E0F0
E0F0
E0F0
E0F0
E0F0
F1F0
FFF0
7F70
3E70
ENDCHAR
STARTCHAR Uhungarumlaut
ENCODING 368
SWIDTH 755 0
DWIDTH 18 0
BBX 14 23 2 0
BITMAP
07B8
0770
0E60
1CC0
0000
0000
F03C
F03C
F03C
F03C
F03C
F03C
F03C
F03C
F03C
F03C
F03C
F03C
F03C
7878
7FF8
3FF0
0FC0
ENDCHAR
STARTCHAR uhungarumlaut
ENCODING 369
SWIDTH 657 0
DWIDTH 16 0
BBX 12 19 2 0
BITMAP
0F70
1EE0
1DC0
3980
0000
0000
E0F0
E0F0
E0F0
E0F0
E0F0
E0F0
E0F0
E0F0
E0F0
F1F0
FFF0
7F70
3E70
ENDCHAR
STARTCHAR Uogonek
ENCODING 370
SWIDTH 755 0
DWIDTH 18 0
BBX 14 23 2 -6
BITMAP
F03C
F03C
F03C
F03C
F03C
F03C
F03C
F03C
F03C
F03C
F03C
F03C
F03C
7878
7FF8
3FF0
0FC0
0380
0300
0600
0700
07C0
03C0
ENDCHAR
STARTCHAR uogonek
ENCODING 371
SWIDTH 657 0
DWIDTH 16 0
BBX 12 19 2 -6
BITMAP
E0F0
E0F0
E0F0
E0F0
E0F0
E0F0
E0F0
E0F0
E0F0
F1F0
FFF0
7F70
3E70
0060
00C0
01C0
01C0
01F0
00F0
ENDCHAR
STARTCHAR Wcircumflex
ENCODING 372
SWIDTH 966 0
DWIDTH 23 0
BBX 23 23 0 0
BITMAP
007C00
007E00
00EF00
01C380
000000
000000
F0381E
F07C1E
707C1C
707C1C
786C3C
78EE3C
38EE38
38EE38
3CEE78
3DC778
1DC770
1DC770
1DC770
1F83F0
0F83E0
0F83E0
0F83E0
ENDCHAR
STARTCHAR wcircumflex
ENCODING 373
SWIDTH 855 0
DWIDTH 21 0
BBX 21 19 0 0
BITMAP
00F800
01FC00
03DE00
070F00
000000
000000
F0F878
70F870
78F8F0
78D8F0
39DCE0
39DCE0
3DDDE0
3D8DE0
1F8FC0
1F8FC0
1F8FC0
0F0780
0F0780
ENDCHAR
STARTCHAR Ycircumflex
ENCODING 374
SWIDTH 624 0
DWIDTH 15 0
BBX 15 23 0 0
BITMAP
07C0
0FE0
0EF0
1C38
0000
0000
F01E
783C
783C
3C78
3C78
1EF0
0EE0
0FE0
07C0
07C0
0380
0380
0380
0380
0380
0380
0380
ENDCHAR
STARTCHAR ycircumflex
ENCODING 375
SWIDTH 568 0
DWIDTH 14 0
BBX 14 25 0 -6
BITMAP
07C0
0FC0
1CE0
3870
0000
0000
F03C
7838
7878
7878
3C70
3CF0
1CF0
1EE0
1FE0
0FC0
0FC0
07C0
0780
0780
0700
0F00
7E00
7E00
7800
ENDCHAR
STARTCHAR Ydieresis
ENCODING 376
SWIDTH 624 0
DWIDTH 15 0
BBX 15 22 0 0
BITMAP
0E70
0EF0
0C60
0000
0000
F01E
783C
783C
3C78
3C78
1EF0
0EE0
0FE0
07C0
07C0
0380
0380
0380
0380
0380
0380
0380
ENDCHAR
STARTCHAR Zacute
ENCODING 377
SWIDTH 579 0
DWIDTH 14 0
BBX 12 23 1 0
BITMAP
03E0
03C0
0700
0E00
0000
0000
FFF0
FFF0
FFF0
01E0
01E0
03C0
0780
0780
0F00
1E00
1C00
3C00
7800
F000
FFF0
FFF0
FFF0
ENDCHAR
STARTCHAR zacute
ENCODING 378
SWIDTH 487 0
DWIDTH 12 0
BBX 10 19 1 0
BITMAP
03C0
0780
0F00
1C00
0000
0000
FFC0
FFC0
FFC0
0780
0700
0F00
1E00
3C00
7800
7800
FFC0
FFC0
FFC0
ENDCHAR
STARTCHAR Zdotaccent
ENCODING 379
SWIDTH 579 0
DWIDTH 14 0
BBX 12 22 1 0
BITMAP
0F00
0F00
0E00
0000
0000
FFF0
FFF0
FFF0
01E0
01E0
03C0
0780
0780
0F00
1E00
1C00
3C00
7800
F000
FFF0
FFF0
FFF0
ENDCHAR
STARTCHAR zdotaccent
ENCODING 380
SWIDTH 487 0
DWIDTH 12 0
BBX 10 18 1 0
BITMAP
1E00
1E00
1C00
0000
0000
FFC0
FFC0
FFC0
0780
0700
0F00
1E00
3C00
7800
7800
FFC0
FFC0
FFC0
ENDCHAR
STARTCHAR Zcaron
ENCODING 381
SWIDTH 579 0
DWIDTH 14 0
BBX 12 23 1 0
BITMAP
70E0
3DC0
1FC0
0F80
0000
0000
FFF0
FFF0
FFF0
01E0
01E0
03C0
0780
0780
0F00
1E00
1C00
3C00
7800
F000
FFF0
FFF0
FFF0
ENDCHAR
STARTCHAR zcaron
ENCODING 382
SWIDTH 487 0
DWIDTH 12 0
BBX 10 19 1 0
BITMAP
E1C0
7B80
3F80
1F00
0000
0000
FFC0
FFC0
FFC0
0780
0700
0F00
1E00
3C00
7800
7800
FFC0
FFC0
FFC0
ENDCHAR
STARTCHAR longs
ENCODING 383
SWIDTH 382 0
DWIDTH 9 0
BBX 7 18 2 0
BITMAP
3E
FE
FE
F0
E0
E0
E0
E0
E0
E0
E0
E0
E0
E0
E0
E0
E0
E0
ENDCHAR
STARTCHAR uni0180
ENCODING 384
SWIDTH 632 0
DWIDTH 15 0
BBX 14 18 0 0
BITMAP
3800
3800
FF80
FF80
3800
39E0
3BF8
3FF8
3C7C
3C3C
383C
383C
383C
3C3C
3C7C
3FF8
3FF0
39E0
ENDCHAR
STARTCHAR uni0181
ENCODING 385
SWIDTH 793 0
DWIDTH 19 0
BBX 18 17 0 0
BITMAP
3FFC00
7FFF00
FFFF80
E78780
E78380
078380
078780
07FF00
07FE00
07FF80
078780
0783C0
0783C0
0787C0
07FF80
07FF00
07FE00
ENDCHAR
STARTCHAR uni0182
ENCODING 386
SWIDTH 638 0
DWIDTH 15 0
BBX 12 17 2 0
BITMAP
FFE0
FFE0
FFE0
F000
F000
F000
F000
FF80
FFC0
FFE0
F0F0
F0F0
F0F0
F0F0
FFE0
FFE0
FF80
ENDCHAR
STARTCHAR uni0183
ENCODING 387
SWIDTH 632 0
DWIDTH 15 0
BBX 12 18 2 0
BITMAP
FFE0
FFE0
FFE0
E000
E000
E780
EFE0
FFE0
F1F0
F0F0
E0F0
E0F0
E0F0
F0F0
F1F0
FFE0
FFC0
E780
ENDCHAR
STARTCHAR uni0184
ENCODING 388
SWIDTH 661 0
DWIDTH 16 0
BBX 13 17 2 0
BITMAP
F000
F000
F000
F000
F000
F000
F000
FF80
FFE0
FFF0
F0F8
F078
F078
F0F8
7FF0
7FE0
1FC0
ENDCHAR
STARTCHAR uni0185
ENCODING 389
SWIDTH 633 0
DWIDTH 15 0
BBX 12 18 2 0
BITMAP
E000
E000
E000
E000
E000
E780
EFE0
FFE0
F1F0
E0F0
E0F0
E0F0
E0F0
E0F0
F1E0
7FE0
3FC0
1F80
ENDCHAR
STARTCHAR uni0186
ENCODING 390
SWIDTH 637 0
DWIDTH 15 0
BBX 13 17 1 0
BITMAP
3F00
FFC0
FFE0
41F0
00F0
00F0
0078
0078
0078
0078
0078
00F0
00F0
C1F0
FFE0
FFC0
7F00
ENDCHAR
STARTCHAR uni0187
ENCODING 391
SWIDTH 637 0
DWIDTH 15 0
BBX 16 21 1 0
BITMAP
000F
001F
001F
0038
07F8
1FF8
3FF8
3C30
7800
7800
7000
F000
F000
F000
F000
7800
7800
7C18
3FF8
1FF8
07F0
ENDCHAR
STARTCHAR uni0188
ENCODING 392
SWIDTH 514 0
DWIDTH 12 0
BBX 13 18 1 0
BITMAP
0078
00F8
00F8
01C0
01C0
1FC0
3FC0
7FC0
7800
F000
F000
F000
F000
F000
F840
7FC0
3FC0
1F80
ENDCHAR
STARTCHAR uni0189
ENCODING 393
SWIDTH 740 0
DWIDTH 18 0
BBX 16 17 1 0
BITMAP
7FC0
7FF0
7FF8
787C
781E
781E
780E
FF0F
FF0F
FF0F
780E
781E
783E
787C
7FF8
7FF0
7FC0
ENDCHAR
STARTCHAR uni018A
ENCODING 394
SWIDTH 861 0
DWIDTH 21 0
BBX 20 17 0 0
BITMAP
3FFC00
7FFF00
FFFF80
E787C0
E781E0
0781E0
0780E0
0780E0
0780F0
0780E0
0780E0
0781E0
0783E0
0787C0
07FF80
07FF00
07FC00
ENDCHAR
STARTCHAR uni018B
ENCODING 395
SWIDTH 638 0
DWIDTH 15 0
BBX 12 17 1 0
BITMAP
7FF0
7FF0
7FF0
00F0
00F0
00F0
00F0
0FF0
3FF0
7FF0
F8F0
F0F0
F0F0
F8F0
7FF0
7FF0
1FF0
ENDCHAR
STARTCHAR uni018C
ENCODING 396
SWIDTH 632 0
DWIDTH 15 0
BBX 12 18 1 0
BITMAP
7FF0
7FF0
7FF0
0070
0070
1E70
3F70
7FF0
F8F0
F070
F070
F070
F070
F070
F8F0
7FF0
3F70
1E70
ENDCHAR
STARTCHAR uni018D
ENCODING 397
SWIDTH 619 0
DWIDTH 15 0
BBX 13 18 1 0
BITMAP
1FC0
3FE0
7FF0
F8F8
F078
F078
F078
F070
78F0
7FE0
3F80
0F80
03C0
01E0
40E0
7FE0
FFC0
3F80
ENDCHAR
STARTCHAR uni018E
ENCODING 398
SWIDTH 560 0
DWIDTH 13 0
BBX 10 17 1 0
BITMAP
FFC0
FFC0
FFC0
03C0
03C0
03C0
03C0
7FC0
7FC0
7FC0
03C0
03C0
03C0
03C0
FFC0
FFC0
FFC0
ENDCHAR
STARTCHAR uni018F
ENCODING 399
SWIDTH 816 0
DWIDTH 20 0
BBX 17 17 2 0
BITMAP
0FE000
7FF800
7FFC00
703E00
400F00
000F00
000700
FFFF00
FFFF80
FFFF00
F00700
F00F00
700F00
7C3E00
3FFE00
1FF800
07E000
ENDCHAR
STARTCHAR uni0190
ENCODING 400
SWIDTH 647 0
DWIDTH 16 0
BBX 14 17 1 0
BITMAP
0FE0
3FF8
7FF8
7838
7000
7000
7800
3FE0
0FE0
7FE0
F800
F000
F000
F80C
7FFC
3FFC
0FF0
ENDCHAR
STARTCHAR uni0191
ENCODING 401
SWIDTH 548 0
DWIDTH 13 0
BBX 12 23 0 -6
BITMAP
3FF0
3FF0
3FF0
3C00
3C00
3C00
3C00
3FE0
3FE0
3FE0
3C00
3C00
3C00
3C00
3C00
3C00
3C00
3C00
3C00
3C00
F800
F800
F000
ENDCHAR
STARTCHAR florin
ENCODING 402
SWIDTH 571 0
DWIDTH 14 0
BBX 11 23 2 -6
BITMAP
07E0
0FC0
1FC0
1E00
1E00
3FC0
7FC0
7FC0
1E00
1E00
1E00
1E00
1E00
1E00
1E00
1E00
1E00
1E00
1E00
1E00
FE00
FC00
F800
ENDCHAR
STARTCHAR uni0193
ENCODING 403
SWIDTH 724 0
DWIDTH 17 0
BBX 17 21 1 0
BITMAP
000780
000F80
001F80
001C00
03FC00
0FFC00
3FFC00
3E0800
7C0000
780000
700000
F1FC00
F1FC00
F1FC00
F01C00
781C00
781C00
7C1C00
3FFC00
1FFC00
07F800
ENDCHAR
STARTCHAR uni0194
ENCODING 404
SWIDTH 649 0
DWIDTH 16 0
BBX 16 23 0 -6
BITMAP
F00F
700E
781E
781C
3C3C
3C3C
1C78
1E78
0E70
0EF0
0FE0
07E0
07C0
03C0
03C0
07C0
07E0
06E0
0E60
0E60
0E60
07E0
03C0
ENDCHAR
STARTCHAR uni0195
ENCODING 405
SWIDTH 986 0
DWIDTH 24 0
BBX 20 18 2 0
BITMAP
E00000
E00000
E00000
E00000
E00000
E7C070
EFE070
FFE070
F0F070
F0F070
F0F070
F0F070
E0F070
E0F0F0
E0F0F0
E07FE0
E07FE0
E01F80
ENDCHAR
STARTCHAR uni0196
ENCODING 406
SWIDTH 402 0
DWIDTH 10 0
BBX 8 17 2 0
BITMAP
F0
F0
F0
F0
F0
F0
F0
F0
F0
F0
F0
F0
F0
F0
FF
7F
3E
ENDCHAR
STARTCHAR uni0197
ENCODING 407
SWIDTH 389 0
DWIDTH 9 0
BBX 8 17 1 0
BITMAP
FE
FE
7E
38
38
38
38
FF
FF
FF
38
38
38
38
7E
FE
FE
ENDCHAR
STARTCHAR uni0198
ENCODING 408
SWIDTH 664 0
DWIDTH 16 0
BBX 14 17 2 0
BITMAP
F03C
F07C
F0FC
F1E0
F3C0
F3C0
F780
FF00
FF80
FF80
F3C0
F3C0
F1E0
F0F0
F0F0
F078
F03C
ENDCHAR
STARTCHAR uni0199
ENCODING 409
SWIDTH 620 0
DWIDTH 15 0
BBX 13 18 2 0
BITMAP
3C00
7C00
FC00
F000
E000
E0F0
E1E0
E3C0
E780
EF00
EF00
FF00
FF80
F3C0
F3C0
F1E0
F0F0
F0F8
ENDCHAR
STARTCHAR uni019A
ENCODING 410
SWIDTH 330 0
DWIDTH 8 0
BBX 8 18 0 0
BITMAP
3C
3C
3C
3C
3C
3C
3C
3C
FF
FF
FF
3C
3C
3C
3C
3C
3C
3C
ENDCHAR
STARTCHAR uni019B
ENCODING 411
SWIDTH 615 0
DWIDTH 15 0
BBX 15 18 0 0
BITMAP
7C00
7E00
7FC0
0FE0
1F80
1B80
0780
07C0
0FC0
0FE0
0FE0
1EF0
1CF0
3C70
3878
787E
783E
F01E
ENDCHAR
STARTCHAR uni019C
ENCODING 412
SWIDTH 1035 0
DWIDTH 25 0
BBX 21 17 2 0
BITMAP
F07078
F07078
F07078
F07078
F07078
F07078
F07078
F07078
F07078
F07078
F07078
F0F078
F0F078
F1F8F8
FFFFF8
7FBFB8
3E1F38
ENDCHAR
STARTCHAR uni019D
ENCODING 413
SWIDTH 812 0
DWIDTH 20 0
BBX 18 23 0 -6
BITMAP
3E03C0
3F03C0
3F03C0
3F83C0
3BC3C0
3BC3C0
39E3C0
39E3C0
38F3C0
387BC0
387BC0
383DC0
383DC0
381FC0
381FC0
380FC0
3807C0
380000
380000
380000
F80000
F80000
F00000
ENDCHAR
STARTCHAR uni019E
ENCODING 414
SWIDTH 657 0
DWIDTH 16 0
BBX 12 19 2 -6
BITMAP
E7C0
EFE0
FFF0
F8F0
F0F0
F070
F070
F070
F070
F070
F070
F070
F070
0070
0070
0070
0070
0070
0070
ENDCHAR
STARTCHAR uni019F
ENCODING 415
SWIDTH 795 0
DWIDTH 19 0
BBX 17 17 1 0
BITMAP
07F000
1FFC00
3FFE00
7C1E00
780F00
780F00
700700
FFFF80
FFFF80
FFFF80
700700
780F00
780F00
3C1F00
3FFE00
1FFC00
07F000
ENDCHAR
STARTCHAR Ohorn
ENCODING 416
SWIDTH 825 0
DWIDTH 20 0
BBX 20 18 1 0
BITMAP
0000F0
07F0E0
1FFCE0
3FFFC0
3E1FC0
780F00
780700
700780
F00780
F00780
F00780
700780
780700
780F00
3C1F00
3FFE00
1FFC00
07F000
ENDCHAR
STARTCHAR ohorn
ENCODING 417
SWIDTH 679 0
DWIDTH 16 0
BBX 16 15 1 0
BITMAP
000F
000F
0F8E
3FFE
7FFC
78F0
F070
F078
F078
F078
F070
78F0
7FF0
3FE0
0F80
ENDCHAR
STARTCHAR uni01A2
ENCODING 418
SWIDTH 1130 0
DWIDTH 27 0
BBX 24 17 1 0
BITMAP
07F0F8
1FF9FE
3FFFFE
7C3F1F
781E0F
780F0F
700F0F
F00F0F
F00F0F
F00F0F
700F0F
780F0F
781F0F
7C3E0F
3FFC0F
1FF80F
07E00F
ENDCHAR
STARTCHAR uni01A3
ENCODING 419
SWIDTH 929 0
DWIDTH 22 0
BBX 19 19 1 -6
BITMAP
1F8F80
3FDFC0
7FFFE0
70F1E0
F0F0E0
F0F0E0
F0F0E0
F0F0E0
F0F0E0
78F0E0
7FE0E0
3FC0E0
1F80E0
0000E0
0000E0
0000E0
0000E0
0000E0
0000E0
ENDCHAR
STARTCHAR uni01A4
ENCODING 420
SWIDTH 750 0
DWIDTH 18 0
BBX 17 17 0 0
BITMAP
3FFC00
7FFE00
FFFF00
E78F80
E78780
078780
078780
078F80
07FF00
07FE00
07F800
078000
078000
078000
078000
078000
078000
ENDCHAR
STARTCHAR uni01A5
ENCODING 421
SWIDTH 632 0
DWIDTH 15 0
BBX 12 24 2 -6
BITMAP
3C00
7C00
FC00
F000
E000
E780
EFC0
FFE0
F0F0
F0F0
E0F0
E0F0
E0F0
F0F0
F1F0
FFE0
FFE0
E780
E000
E000
E000
E000
E000
E000
ENDCHAR
STARTCHAR uni01A6
ENCODING 422
SWIDTH 660 0
DWIDTH 16 0
BBX 14 19 2 -2
BITMAP
F000
F000
FF80
FFE0
FFE0
F1F0
F0F0
F0F0
F0F0
F1F0
FFE0
FFC0
FF80
F3C0
F1E0
F1E0
F0F0
0078
003C
ENDCHAR
STARTCHAR uni01A7
ENCODING 423
SWIDTH 550 0
DWIDTH 13 0
BBX 11 17 1 0
BITMAP
3F00
FFC0
7FE0
61E0
01E0
01E0
03E0
0FC0
3F80
7E00
F800
F000
F000
F060
FFE0
7FE0
1F80
ENDCHAR
STARTCHAR uni01A8
ENCODING 424
SWIDTH 497 0
DWIDTH 12 0
BBX 10 13 1 0
BITMAP
3F00
FF80
7FC0
03C0
07C0
1F80
7F00
FC00
F000
E040
FFC0
7FC0
3F80
ENDCHAR
STARTCHAR uni01A9
ENCODING 425
SWIDTH 592 0
DWIDTH 14 0
BBX 12 17 1 0
BITMAP
FFF0
FFF0
FFF0
7800
3C00
1E00
0F00
0780
0780
0F00
1E00
3C00
7800
F000
FFF0
FFF0
FFF0
ENDCHAR
STARTCHAR uni01AA
ENCODING 426
SWIDTH 367 0
DWIDTH 9 0
BBX 11 24 -1 -6
BITMAP
7800
FE00
DE00
CE00
FE00
7E00
0E00
0E00
0E00
0E00
0E00
0E00
0E00
0E00
0E00
0E00
0E00
0E00
0E00
0E00
0F00
0FE0
0FE0
07E0
ENDCHAR
STARTCHAR uni01AB
ENCODING 427
SWIDTH 434 0
DWIDTH 10 0
BBX 9 22 0 -6
BITMAP
1C00
1C00
1C00
3F80
FF80
FF80
3C00
3C00
3C00
3C00
3C00
3C00
3C00
3F80
1F80
0F80
0380
0380
0380
0F80
0F80
0F00
ENDCHAR
STARTCHAR uni01AC
ENCODING 428
SWIDTH 618 0
DWIDTH 15 0
BBX 15 17 0 0
BITMAP
3FFE
7FFE
FFFE
E3C0
E3C0
03C0
03C0
03C0
03C0
03C0
03C0
03C0
03C0
03C0
03C0
03C0
03C0
ENDCHAR
STARTCHAR uni01AD
ENCODING 429
SWIDTH 434 0
DWIDTH 10 0
BBX 9 18 0 0
BITMAP
0F80
1F80
3F80
3C00
3C00
3F80
FF80
FF80
3C00
3C00
3C00
3C00
3C00
3C00
3C00
3F80
1F80
0F80
ENDCHAR
STARTCHAR uni01AE
ENCODING 430
SWIDTH 579 0
DWIDTH 14 0
BBX 14 23 0 -6
BITMAP
FFFC
FFFC
FFFC
0780
0780
0780
0780
0780
0780
0780
0780
0780
0780
0780
0780
0780
0780
0780
0780
0780
07E0
03E0
01E0
ENDCHAR
STARTCHAR Uhorn
ENCODING 431
SWIDTH 884 0
DWIDTH 21 0
BBX 19 18 2 0
BITMAP
0000E0
F03DE0
F03DC0
F03FC0
F03F00
F03C00
F03C00
F03C00
F03C00
F03C00
F03C00
F03C00
F03C00
F03C00
787800
7FF800
3FF000
0FC000
ENDCHAR
STARTCHAR uhorn
ENCODING 432
SWIDTH 759 0
DWIDTH 18 0
BBX 17 15 2 0
BITMAP
000780
000780
E0F700
E0FF00
E0FC00
E0F000
E0F000
E0F000
E0F000
E0F000
E0F000
F1F000
FFF000
7F7000
3E7000
ENDCHAR
STARTCHAR uni01B1
ENCODING 433
SWIDTH 786 0
DWIDTH 19 0
BBX 17 17 1 0
BITMAP
FE3F80
FE3F80
FE3F80
1E3C00
3C1E00
380E00
700700
700700
F00780
F00780
F00780
F00780
780F00
7C1F00
3FFE00
1FFC00
07F000
ENDCHAR
STARTCHAR uni01B2
ENCODING 434
SWIDTH 649 0
DWIDTH 16 0
BBX 15 17 0 0
BITMAP
F03C
703E
783E
780E
380E
3C1E
3C1E
1C1C
1E3C
1E38
0E78
0F70
0770
07F0
07E0
03E0
03C0
ENDCHAR
STARTCHAR uni01B3
ENCODING 435
SWIDTH 624 0
DWIDTH 15 0
BBX 15 17 0 0
BITMAP
F01E
F83C
F83C
3C78
1C78
1EF0
0EE0
0FE0
07C0
07C0
0380
0380
0380
0380
0380
0380
0380
ENDCHAR
STARTCHAR uni01B4
ENCODING 436
SWIDTH 615 0
DWIDTH 15 0
BBX 15 19 0 -6
BITMAP
F01E
783E
787E
3878
3C70
3CF0
1CF0
1EE0
0FE0
0FE0
0FC0
07C0
0780
0780
0780
0F00
7F00
7E00
7800
ENDCHAR
STARTCHAR uni01B5
ENCODING 437
SWIDTH 579 0
DWIDTH 14 0
BBX 12 17 1 0
BITMAP
FFF0
FFF0
FFF0
01E0
01E0
03C0
0780
FFE0
FFE0
FFE0
3C00
3C00
7800
F000
FFF0
FFF0
FFF0
ENDCHAR
STARTCHAR uni01B6
ENCODING 438
SWIDTH 487 0
DWIDTH 12 0
BBX 10 13 1 0
BITMAP
FFC0
FFC0
FFC0
0780
0F00
FFC0
FFC0
3C00
7800
7000
FFC0
FFC0
FFC0
ENDCHAR
STARTCHAR uni01B7
ENCODING 439
SWIDTH 590 0
DWIDTH 14 0
BBX 12 17 1 0
BITMAP
FFE0
FFE0
FFE0
03C0
0780
0F00
1E00
3F80
3FE0
0FF0
00F0
00F0
00F0
80F0
FFE0
FFC0
7F00
ENDCHAR
STARTCHAR uni01B8
ENCODING 440
SWIDTH 590 0
DWIDTH 14 0
BBX 12 17 1 0
BITMAP
7FF0
7FF0
7FF0
3C00
1E00
0F00
0780
1FC0
7FC0
7F00
F000
F000
F000
F010
7FF0
3FF0
1FE0
ENDCHAR
STARTCHAR uni01B9
ENCODING 441
SWIDTH 581 0
DWIDTH 14 0
BBX 12 19 1 -6
BITMAP
7FF0
7FF0
7FF0
3C00
1E00
0F00
0780
0FC0
3FC0
7FC0
F800
F000
F000
F000
F000
F810
7FF0
3FF0
1FE0
ENDCHAR
STARTCHAR uni01BA
ENCODING 442
SWIDTH 581 0
DWIDTH 14 0
BBX 12 19 1 -6
BITMAP
FFE0
FFE0
FFE0
03C0
0F80
1E00
1F80
1FE0
1FE0
00F0
01F0
1FE0
7FC0
FF00
F000
E020
FFE0
7FE0
3F80
ENDCHAR
STARTCHAR uni01BB
ENCODING 443
SWIDTH 569 0
DWIDTH 14 0
BBX 12 18 1 0
BITMAP
1F00
7FC0
FFE0
61E0
41E0
01E0
01E0
01C0
FFF0
FFF0
0F00
1E00
3C00
7C00
F800
FFF0
FFF0
FFF0
ENDCHAR
STARTCHAR uni01BC
ENCODING 444
SWIDTH 578 0
DWIDTH 14 0
BBX 12 17 1 0
BITMAP
FFF0
FFF0
FFF0
3800
3800
3800
3F80
3FC0
3FE0
01F0
00F0
00F0
00F0
81F0
FFE0
FFC0
7F00
ENDCHAR
STARTCHAR uni01BD
ENCODING 445
SWIDTH 555 0
DWIDTH 13 0
BBX 11 13 1 0
BITMAP
FFE0
FFE0
FFE0
3800
3800
3F80
3FC0
3FE0
00E0
01E0
FFE0
FFC0
7F00
ENDCHAR
STARTCHAR uni01BE
ENCODING 446
SWIDTH 497 0
DWIDTH 12 0
BBX 10 16 1 0
BITMAP
1C00
1C00
3C00
7F80
FF80
FF80
3C00
3C00
3E00
1F80
07C0
03C0
03C0
FFC0
FF80
7F00
ENDCHAR
STARTCHAR uni01BF
ENCODING 447
SWIDTH 632 0
DWIDTH 15 0
BBX 12 19 2 -6
BITMAP
E780
EFE0
FFE0
F0F0
F0F0
E0F0
E0F0
E0F0
E1E0
E7E0
FFC0
FF80
FC00
E000
E000
E000
E000
E000
E000
ENDCHAR
STARTCHAR uni01C0
ENCODING 448
SWIDTH 516 0
DWIDTH 12 0
BBX 2 24 5 -6
BITMAP
C0
C0
C0
C0
C0
C0
C0
C0
C0
C0
C0
C0
C0
C0
C0
C0
C0
C0
C0
C0
C0
C0
C0
C0
ENDCHAR
STARTCHAR uni01C1
ENCODING 449
SWIDTH 516 0
DWIDTH 12 0
BBX 8 24 2 -6
BITMAP
C3
C3
C3
C3
C3
C3
C3
C3
C3
C3
C3
C3
C3
C3
C3
C3
C3
C3
C3
C3
C3
C3
C3
C3
ENDCHAR
STARTCHAR uni01C2
ENCODING 450
SWIDTH 516 0
DWIDTH 12 0
BBX 10 24 1 -6
BITMAP
0C00
0C00
0C00
0C00
0C00
0C00
0C00
0C00
FFC0
FFC0
0C00
0C00
0C00
FFC0
FFC0
0C00
0C00
0C00
0C00
0C00
0C00
0C00
0C00
0C00
ENDCHAR
STARTCHAR uni01C3
ENCODING 451
SWIDTH 286 0
DWIDTH 7 0
BBX 5 17 1 0
BITMAP
F8
78
70
70
70
70
70
70
70
70
70
00
00
70
F8
F8
70
ENDCHAR
STARTCHAR uni01C4
ENCODING 452
SWIDTH 1309 0
DWIDTH 31 0
BBX 29 23 2 0
BITMAP
00003870
00001DE0
00000FC0
00000F80
00000000
00000000
FF80FFF8
FFE0FFF8
FFF0FFF8
F0F800F0
F03C01E0
F03C01C0
F01C03C0
F01E0780
F01E0F00
F01E0F00
F01C1E00
F03C3C00
F07C3C00
F0F87800
FFF0FFF8
FFE0FFF8
FF80FFF8
ENDCHAR
STARTCHAR uni01C5
ENCODING 453
SWIDTH 1228 0
DWIDTH 29 0
BBX 27 19 2 0
BITMAP
000070E0
000039C0
FF801F80
FFE00F80
FFF00000
F0F80000
F03C7FE0
F03C7FE0
F01C7FE0
F01E03C0
F01E0780
F01E0700
F01C0F00
F03C1E00
F07C3C00
F0F87800
FFF07FE0
FFE0FFE0
FF80FFE0
ENDCHAR
STARTCHAR uni01C6
ENCODING 454
SWIDTH 1121 0
DWIDTH 27 0
BBX 26 19 1 0
BITMAP
0001C3C0
0070F780
00707F00
00703E00
00700000
00700000
1E71FF80
3FF1FF80
7FF1FF80
F8F00F00
F0700F00
F0701E00
F0703C00
F0707800
F0707800
F8F0F000
7FF1FF80
3F71FF80
1E71FF80
ENDCHAR
STARTCHAR uni01C7
ENCODING 455
SWIDTH 895 0
DWIDTH 22 0
BBX 18 22 2 -5
BITMAP
F001C0
F001C0
F001C0
F001C0
F001C0
F001C0
F001C0
F001C0
F001C0
F001C0
F001C0
F001C0
F001C0
F001C0
FFE1C0
FFE1C0
FFE1C0
0001C0
0003C0
001FC0
001F80
001F00
ENDCHAR
STARTCHAR uni01C8
ENCODING 456
SWIDTH 870 0
DWIDTH 21 0
BBX 18 24 2 -6
BITMAP
0001C0
F003C0
F003C0
F00000
F00000
F003C0
F003C0
F003C0
F003C0
F003C0
F003C0
F003C0
F003C0
F003C0
F003C0
FFE3C0
FFE3C0
FFE3C0
0003C0
0003C0
0003C0
001FC0
001F80
001F00
ENDCHAR
STARTCHAR uni01C9
ENCODING 457
SWIDTH 609 0
DWIDTH 15 0
BBX 11 24 2 -6
BITMAP
E1C0
E1E0
E1E0
E080
E000
E1E0
E1E0
E1E0
E1E0
E1E0
E1E0
E1E0
E1E0
E1E0
E1E0
E1E0
E1E0
E1E0
01E0
01E0
01E0
0FC0
0FC0
0F80
ENDCHAR
STARTCHAR uni01CA
ENCODING 458
SWIDTH 1144 0
DWIDTH 27 0
BBX 23 22 2 -5
BITMAP
F80F0E
FC0F0E
FC0F0E
FE0F0E
EF0F0E
EF0F0E
E78F0E
E78F0E
E3CF0E
E1EF0E
E1EF0E
E0F70E
E0F70E
E07F0E
E07F0E
E03F0E
E01F0E
00001E
00001E
0000FE
0000FC
0000F0
ENDCHAR
STARTCHAR uni01CB
ENCODING 459
SWIDTH 1118 0
DWIDTH 27 0
BBX 24 24 2 -6
BITMAP
000007
F80F0F
FC0F0F
FC0F00
FE0F00
EF0F0F
EF0F0F
E78F0F
E78F0F
E3CF0F
E1EF0F
E1EF0F
E0F70F
E0F70F
E07F0F
E07F0F
E03F0F
E01F0F
00000F
00000F
00000F
00007F
00007E
00007C
ENDCHAR
STARTCHAR uni01CC
ENCODING 460
SWIDTH 961 0
DWIDTH 23 0
BBX 19 24 2 -6
BITMAP
0000E0
0001E0
0000E0
000000
000000
E7C0E0
EFE0E0
FFF0E0
F8F0E0
F0F0E0
F070E0
F070E0
F070E0
F070E0
F070E0
F070E0
F070E0
F070E0
0000E0
0000E0
0001E0
000FE0
000FC0
000F80
ENDCHAR
STARTCHAR uni01CD
ENCODING 461
SWIDTH 689 0
DWIDTH 17 0
BBX 17 23 0 0
BITMAP
1C3C00
0F7800
07F000
03E000
000000
000000
03E000
03E000
07F000
077000
077000
0F7800
0E3800
1E3C00
1E3C00
1C1C00
3FFE00
3FFE00
3FFE00
780F00
780F00
780F00
F00780
ENDCHAR
STARTCHAR uni01CE
ENCODING 462
SWIDTH 604 0
DWIDTH 15 0
BBX 12 19 1 0
BITMAP
3870
3DE0
1FC0
0F80
0000
0000
1F80
7FE0
3FF0
20F0
00F0
1FF0
7FF0
F8F0
F0F0
F0F0
FFF0
7F70
3E70
ENDCHAR
STARTCHAR uni01CF
ENCODING 463
SWIDTH 389 0
DWIDTH 9 0
BBX 10 23 0 0
BITMAP
E1C0
7380
3F00
3E00
0000
0000
7F00
7F00
3F00
1C00
1C00
1C00
1C00
1C00
1C00
1C00
1C00
1C00
1C00
1C00
3F00
7F00
7F00
ENDCHAR
STARTCHAR uni01D0
ENCODING 464
SWIDTH 305 0
DWIDTH 7 0
BBX 10 19 -1 0
BITMAP
E1C0
7380
3F00
3E00
0000
0000
1C00
1C00
1C00
1C00
1C00
1C00
1C00
1C00
1C00
1C00
1C00
1C00
1C00
ENDCHAR
STARTCHAR uni01D1
ENCODING 465
SWIDTH 795 0
DWIDTH 19 0
BBX 17 23 1 0
BITMAP
0E1C00
077800
07F000
03E000
000000
000000
07F000
1FFC00
3FFE00
7C1E00
780F00
780F00
700700
F00780
F00780
F00780
700700
780F00
780F00
3C1F00
3FFE00
1FFC00
07F000
ENDCHAR
STARTCHAR uni01D2
ENCODING 466
SWIDTH 619 0
DWIDTH 15 0
BBX 13 19 1 0
BITMAP
3870
3DE0
1FC0
0F80
0000
0000
0F80
3FE0
7FF0
78F0
F078
F078
F078
F078
F078
78F0
7FF0
3FE0
0F80
ENDCHAR
STARTCHAR uni01D3
ENCODING 467
SWIDTH 755 0
DWIDTH 18 0
BBX 14 23 2 0
BITMAP
3870
1EE0
0FE0
07C0
0000
0000
F03C
F03C
F03C
F03C
F03C
F03C
F03C
F03C
F03C
F03C
F03C
F03C
F03C
7878
7FF8
3FF0
0FC0
ENDCHAR
STARTCHAR uni01D4
ENCODING 468
SWIDTH 657 0
DWIDTH 16 0
BBX 12 19 2 0
BITMAP
70E0
39C0
1F80
0F80
0000
0000
E0F0
E0F0
E0F0
E0F0
E0F0
E0F0
E0F0
E0F0
E0F0
F1F0
FFF0
7F70
3E70
ENDCHAR
STARTCHAR uni01D5
ENCODING 469
SWIDTH 755 0
DWIDTH 18 0
BBX 14 24 2 0
BITMAP
1FE0
1FE0
0000
0CE0
1CE0
1CE0
0000
F03C
F03C
F03C
F03C
F03C
F03C
F03C
F03C
F03C
F03C
F03C
F03C
F03C
7878
7FF8
3FF0
0FC0
ENDCHAR
STARTCHAR uni01D6
ENCODING 470
SWIDTH 657 0
DWIDTH 16 0
BBX 12 20 2 0
BITMAP
3FC0
3FC0
0000
3980
39C0
3980
0000
E0F0
E0F0
E0F0
E0F0
E0F0
E0F0
E0F0
E0F0
E0F0
F1F0
FFF0
7F70
3E70
ENDCHAR
STARTCHAR uni01D7
ENCODING 471
SWIDTH 755 0
DWIDTH 18 0
BBX 14 24 2 0
BITMAP
01E0
01C0
0380
0CE0
1CE0
1CE0
0000
F03C
F03C
F03C
F03C
F03C
F03C
F03C
F03C
F03C
F03C
F03C
F03C
F03C
7878
7FF8
3FF0
0FC0
ENDCHAR
STARTCHAR uni01D8
ENCODING 472
SWIDTH 657 0
DWIDTH 16 0
BBX 12 20 2 0
BITMAP
03C0
0780
0700
3980
39C0
3980
0000
E0F0
E0F0
E0F0
E0F0
E0F0
E0F0
E0F0
E0F0
E0F0
F1F0
FFF0
7F70
3E70
ENDCHAR
STARTCHAR uni01D9
ENCODING 473
SWIDTH 755 0
DWIDTH 18 0
BBX 14 25 2 0
BITMAP
1860
0FC0
0780
0000
0CE0
1CE0
1CE0
0000
F03C
F03C
F03C
F03C
F03C
F03C
F03C
F03C
F03C
F03C
F03C
F03C
F03C
7878
7FF8
3FF0
0FC0
ENDCHAR
STARTCHAR uni01DA
ENCODING 474
SWIDTH 657 0
DWIDTH 16 0
BBX 12 21 2 0
BITMAP
30C0
1F80
0F00
0000
3980
39C0
3980
0000
E0F0
E0F0
E0F0
E0F0
E0F0
E0F0
E0F0
E0F0
E0F0
F1F0
FFF0
7F70
3E70
ENDCHAR
STARTCHAR uni01DB
ENCODING 475
SWIDTH 755 0
DWIDTH 18 0
BBX 14 24 2 0
BITMAP
1E00
0F00
0700
0CE0
1CE0
1CE0
0000
F03C
F03C
F03C
F03C
F03C
F03C
F03C
F03C
F03C
F03C
F03C
F03C
F03C
7878
7FF8
3FF0
0FC0
ENDCHAR
STARTCHAR uni01DC
ENCODING 476
SWIDTH 657 0
DWIDTH 16 0
BBX 12 20 2 0
BITMAP
3C00
1C00
0E00
3980
39C0
3980
0000
E0F0
E0F0
E0F0
E0F0
E0F0
E0F0
E0F0
E0F0
E0F0
F1F0
FFF0
7F70
3E70
ENDCHAR
STARTCHAR uni01DD
ENCODING 477
SWIDTH 590 0
DWIDTH 14 0
BBX 12 13 1 0
BITMAP
3F00
7FC0
7FE0
00E0
00F0
FFF0
FFF0
E0F0
E0F0
F0E0
7FE0
3FC0
1F80
ENDCHAR
STARTCHAR uni01DE
ENCODING 478
SWIDTH 689 0
DWIDTH 17 0
BBX 17 24 0 0
BITMAP
0FF000
0FF000
000000
067000
0E7000
067000
000000
03E000
03E000
07F000
077000
077000
0F7800
0E3800
1E3C00
1E3C00
1C1C00
3FFE00
3FFE00
3FFE00
780F00
780F00
780F00
F00780
ENDCHAR
STARTCHAR uni01DF
ENCODING 479
SWIDTH 604 0
DWIDTH 15 0
BBX 12 20 1 0
BITMAP
3FC0
3FC0
0000
18C0
3DC0
18C0
0000
1F80
7FE0
3FF0
20F0
00F0
1FF0
7FF0
F8F0
F0F0
F0F0
FFF0
7F70
3E70
ENDCHAR
STARTCHAR uni01E0
ENCODING 480
SWIDTH 689 0
DWIDTH 17 0
BBX 17 24 0 0
BITMAP
0FF000
0FF000
000000
018000
01C000
018000
000000
03E000
03E000
07F000
077000
077000
0F7800
0E3800
1E3C00
1E3C00
1C1C00
3FFE00
3FFE00
3FFE00
780F00
780F00
780F00
F00780
ENDCHAR
STARTCHAR uni01E1
ENCODING 481
SWIDTH 604 0
DWIDTH 15 0
BBX 12 20 1 0
BITMAP
3FC0
3FC0
0000
0700
0700
0700
0000
1F80
7FE0
3FF0
20F0
00F0
1FF0
7FF0
F8F0
F0F0
F0F0
FFF0
7F70
3E70
ENDCHAR
STARTCHAR uni01E2
ENCODING 482
SWIDTH 952 0
DWIDTH 23 0
BBX 22 21 0 0
BITMAP
007F80
007F80
000000
000000
01FFFC
01FFFC
01FFFC
03DE00
039E00
079E00
071E00
0F1FF8
0E1FF8
1E1FF8
1FFE00
3FFE00
3FFE00
381E00
781FFC
701FFC
F01FFC
ENDCHAR
STARTCHAR uni01E3
ENCODING 483
SWIDTH 916 0
DWIDTH 22 0
BBX 20 17 1 0
BITMAP
03FC00
03FC00
000000
000000
1F8F80
7FFFC0
3FFFE0
00F0F0
00F070
1FFFF0
7FFFF0
F8F000
F0F000
F1F000
FFFFE0
7FBFE0
3E0FC0
ENDCHAR
STARTCHAR uni01E4
ENCODING 484
SWIDTH 724 0
DWIDTH 17 0
BBX 16 17 1 0
BITMAP
03F8
0FFC
3FFC
3E08
7C00
7800
7000
F1FC
F1FC
F1FC
F01C
78FF
78FF
7C1C
3FFC
1FFC
07F8
ENDCHAR
STARTCHAR uni01E5
ENCODING 485
SWIDTH 632 0
DWIDTH 15 0
BBX 14 19 1 -6
BITMAP
1E70
7FF0
7FF0
F8F0
F070
F070
F070
F070
F0F0
7FF0
7F70
1E70
0070
07FC
07FC
00F0
7FE0
7FC0
3F80
ENDCHAR
STARTCHAR Gcaron
ENCODING 486
SWIDTH 724 0
DWIDTH 17 0
BBX 14 23 1 0
BITMAP
1C3C
0F78
07F0
03E0
0000
0000
03F8
0FFC
3FFC
3E08
7C00
7800
7000
F1FC
F1FC
F1FC
F01C
781C
781C
7C1C
3FFC
1FFC
07F8
ENDCHAR
STARTCHAR gcaron
ENCODING 487
SWIDTH 632 0
DWIDTH 15 0
BBX 12 25 1 -6
BITMAP
70E0
39C0
1F80
0F80
0000
0000
1E70
3FF0
7FF0
F8F0
F070
F070
F070
F070
F070
F0F0
7FF0
3F70
1E70
0070
00F0
00F0
7FE0
7FE0
3F80
ENDCHAR
STARTCHAR uni01E8
ENCODING 488
SWIDTH 664 0
DWIDTH 16 0
BBX 14 23 2 0
BITMAP
7870
3DE0
1FC0
0F80
0000
0000
F07C
F078
F0F0
F1E0
F3C0
F7C0
F780
FF00
FF80
FF80
F3C0
F3E0
F1E0
F0F0
F0F0
F078
F03C
ENDCHAR
STARTCHAR uni01E9
ENCODING 489
SWIDTH 620 0
DWIDTH 15 0
BBX 13 23 2 0
BITMAP
70E0
3DC0
1FC0
0F80
0000
E000
E000
E000
E000
E000
E0F0
E1E0
E3C0
E780
EF00
EF00
FF00
FF80
F3C0
F3C0
F1E0
F0F0
F0F8
ENDCHAR
STARTCHAR uni01EA
ENCODING 490
SWIDTH 795 0
DWIDTH 19 0
BBX 17 23 1 -6
BITMAP
07F000
1FFC00
3FFE00
7C1E00
780F00
780F00
700700
F00780
F00780
F00780
700700
780F00
780F00
3C1F00
3FFE00
1FFC00
07F000
00C000
018000
038000
038000
01E000
01E000
ENDCHAR
STARTCHAR uni01EB
ENCODING 491
SWIDTH 619 0
DWIDTH 15 0
BBX 13 19 1 -6
BITMAP
0F80
3FE0
7FF0
78F0
F078
F078
F078
F078
F078
78F0
7FF0
3FE0
0F80
0700
0E00
0C00
0E00
0F80
0780
ENDCHAR
STARTCHAR uni01EC
ENCODING 492
SWIDTH 795 0
DWIDTH 19 0
BBX 17 27 1 -6
BITMAP
07F800
07F800
000000
000000
07F000
1FFC00
3FFE00
7C1E00
780F00
780F00
700700
F00780
F00780
F00780
700700
780F00
780F00
3C1F00
3FFE00
1FFC00
07F000
00C000
018000
038000
038000
01E000
01E000
ENDCHAR
STARTCHAR uni01ED
ENCODING 493
SWIDTH 619 0
DWIDTH 15 0
BBX 13 23 1 -6
BITMAP
1FE0
1FE0
0000
0000
0F80
3FE0
7FF0
78F0
F078
F078
F078
F078
F078
78F0
7FF0
3FE0
0F80
0700
0E00
0C00
0E00
0F80
0780
ENDCHAR
STARTCHAR uni01EE
ENCODING 494
SWIDTH 590 0
DWIDTH 14 0
BBX 12 23 1 0
BITMAP
70E0
39C0
1F80
1F00
0000
0000
FFE0
FFE0
FFE0
03C0
0780
0F00
1E00
3F80
3FE0
0FF0
00F0
00F0
00F0
80F0
FFE0
FFC0
7F00
ENDCHAR
STARTCHAR uni01EF
ENCODING 495
SWIDTH 581 0
DWIDTH 14 0
BBX 12 25 1 -6
BITMAP
70E0
39C0
1F80
1F00
0000
0000
FFF0
FFF0
FFE0
03C0
0780
0F00
1E00
3F00
3FC0
3FE0
01F0
00F0
00F0
00F0
00F0
81F0
FFE0
FFC0
7F00
ENDCHAR
STARTCHAR uni01F0
ENCODING 496
SWIDTH 305 0
DWIDTH 7 0
BBX 11 25 -2 -6
BITMAP
70E0
39C0
1F80
1F00
0000
0000
0E00
0E00
0E00
0E00
0E00
0E00
0E00
0E00
0E00
0E00
0E00
0E00
0E00
0E00
0E00
1E00
FE00
FC00
F800
ENDCHAR
STARTCHAR uni01F1
ENCODING 497
SWIDTH 1309 0
DWIDTH 31 0
BBX 29 17 2 0
BITMAP
FF80FFF8
FFE0FFF8
FFF0FFF8
F0F800F0
F03C01E0
F03C01C0
F01C03C0
F01E0780
F01E0F00
F01E0F00
F01C1E00
F03C3C00
F07C3C00
F0F87800
FFF0FFF8
FFE0FFF8
FF80FFF8
ENDCHAR
STARTCHAR uni01F2
ENCODING 498
SWIDTH 1228 0
DWIDTH 29 0
BBX 27 17 2 0
BITMAP
FF800000
FFE00000
FFF00000
F0F80000
F03C7FE0
F03C7FE0
F01C7FE0
F01E03C0
F01E0780
F01E0700
F01C0F00
F03C1E00
F07C3C00
F0F87800
FFF07FE0
FFE0FFE0
FF80FFE0
ENDCHAR
STARTCHAR uni01F3
ENCODING 499
SWIDTH 1121 0
DWIDTH 27 0
BBX 25 18 1 0
BITMAP
00700000
00700000
00700000
00700000
00700000
1E71FF80
3FF1FF80
7FF1FF80
F8F00F00
F0700F00
F0701E00
F0703C00
F0707800
F0707800
F8F0F000
7FF1FF80
3F71FF80
1E71FF80
ENDCHAR
STARTCHAR uni01F4
ENCODING 500
SWIDTH 724 0
DWIDTH 17 0
BBX 14 23 1 0
BITMAP
0078
00F0
00E0
01C0
0000
0000
03F8
0FFC
3FFC
3E08
7C00
7800
7000
F1FC
F1FC
F1FC
F01C
781C
781C
7C1C
3FFC
1FFC
07F8
ENDCHAR
STARTCHAR uni01F5
ENCODING 501
SWIDTH 632 0
DWIDTH 15 0
BBX 12 25 1 -6
BITMAP
03C0
0780
0700
0E00
0000
0000
1E70
3FF0
7FF0
F8F0
F070
F070
F070
F070
F070
F0F0
7FF0
3F70
1E70
0070
00F0
00F0
7FE0
7FE0
3F80
ENDCHAR
STARTCHAR uni01F6
ENCODING 502
SWIDTH 1047 0
DWIDTH 25 0
BBX 21 17 2 0
BITMAP
F07800
F07800
F07800
F07800
F07878
F07878
F07878
FFF878
FFF878
FFF878
F07878
F07878
F07878
F07C78
F03FF0
F03FF0
F00FC0
ENDCHAR
STARTCHAR uni01F7
ENCODING 503
SWIDTH 675 0
DWIDTH 16 0
BBX 13 23 2 -6
BITMAP
E3C0
EFE0
FFF0
F8F0
F878
F078
F078
F078
F078
F0F0
F0F0
F1E0
F3E0
FFC0
FF80
FE00
F800
F000
F000
F000
F000
F000
F000
ENDCHAR
STARTCHAR uni01F8
ENCODING 504
SWIDTH 812 0
DWIDTH 20 0
BBX 16 23 2 0
BITMAP
0F00
0780
0380
01C0
0000
0000
F80F
FC0F
FC0F
FE0F
EF0F
EF0F
E78F
E78F
E3CF
E1EF
E1EF
E0F7
E0F7
E07F
E07F
E03F
E01F
ENDCHAR
STARTCHAR uni01F9
ENCODING 505
SWIDTH 657 0
DWIDTH 16 0
BBX 12 19 2 0
BITMAP
3C00
1E00
0F00
0700
0000
0000
E7C0
EFE0
FFF0
F8F0
F0F0
F070
F070
F070
F070
F070
F070
F070
F070
ENDCHAR
STARTCHAR Aringacute
ENCODING 506
SWIDTH 689 0
DWIDTH 17 0
BBX 17 24 0 0
BITMAP
007800
00F000
01C000
000000
01C000
03E000
062000
026000
03E000
03E000
077000
077000
0F7000
0E3800
0E3800
1E3C00
1C1C00
1FFC00
3FFE00
3FFE00
780F00
780F00
780700
F00780
ENDCHAR
STARTCHAR aringacute
ENCODING 507
SWIDTH 604 0
DWIDTH 15 0
BBX 12 24 1 0
BITMAP
03E0
0380
0700
0000
0700
0F80
08C0
08C0
0F80
0700
0000
1F80
7FE0
3FF0
20F0
00F0
1FF0
7FF0
F8F0
F0F0
F0F0
FFF0
7F70
3E70
ENDCHAR
STARTCHAR AEacute
ENCODING 508
SWIDTH 952 0
DWIDTH 23 0
BBX 22 23 0 0
BITMAP
0003E0
000380
000700
000E00
000000
000000
01FFFC
01FFFC
01FFFC
03DE00
039E00
079E00
071E00
0F1FF8
0E1FF8
1E1FF8
1FFE00
3FFE00
3FFE00
381E00
781FFC
701FFC
F01FFC
ENDCHAR
STARTCHAR aeacute
ENCODING 509
SWIDTH 916 0
DWIDTH 22 0
BBX 20 19 1 0
BITMAP
001E00
003C00
007800
007000
000000
000000
1F8F80
7FFFC0
3FFFE0
00F0F0
00F070
1FFFF0
7FFFF0
F8F000
F0F000
F1F000
FFFFE0
7FBFE0
3E0FC0
ENDCHAR
STARTCHAR Oslashacute
ENCODING 510
SWIDTH 795 0
DWIDTH 19 0
BBX 17 24 1 -1
BITMAP
007800
00F000
00E000
01C000
000000
000400
07F600
1FFE00
3FFE00
7C1E00
783F00
787F00
706700
F0E780
F1C780
F18780
738700
7F0F00
7E0F00
7C1F00
3FFE00
3FFC00
37F000
100000
ENDCHAR
STARTCHAR oslashacute
ENCODING 511
SWIDTH 619 0
DWIDTH 15 0
BBX 13 19 1 0
BITMAP
01E0
03C0
0780
0700
0000
0000
0FA0
3FE0
7FF0
79F0
F1F8
F3F8
F778
F678
FE78
7CF0
7FF0
3FE0
7F80
ENDCHAR
STARTCHAR uni0200
ENCODING 512
SWIDTH 689 0
DWIDTH 17 0
BBX 17 23 0 0
BITMAP
3DC000
1DE000
0EE000
067000
000000
000000
03E000
03E000
07F000
077000
077000
0F7800
0E3800
1E3C00
1E3C00
1C1C00
3FFE00
3FFE00
3FFE00
780F00
780F00
780F00
F00780
ENDCHAR
STARTCHAR uni0201
ENCODING 513
SWIDTH 604 0
DWIDTH 15 0
BBX 12 19 1 0
BITMAP
F700
7380
39C0
1CC0
0000
0000
1F80
7FE0
3FF0
20F0
00F0
1FF0
7FF0
F8F0
F0F0
F0F0
FFF0
7F70
3E70
ENDCHAR
STARTCHAR uni0202
ENCODING 514
SWIDTH 689 0
DWIDTH 17 0
BBX 17 23 0 0
BITMAP
03E000
07F000
0FF800
0C1800
000000
000000
03E000
03E000
07F000
077000
077000
0F7800
0E3800
1E3C00
1E3C00
1C1C00
3FFE00
3FFE00
3FFE00
780F00
780F00
780F00
F00780
ENDCHAR
STARTCHAR uni0203
ENCODING 515
SWIDTH 604 0
DWIDTH 15 0
BBX 12 19 1 0
BITMAP
0F80
1FC0
3FE0
3060
0000
0000
1F80
7FE0
3FF0
20F0
00F0
1FF0
7FF0
F8F0
F0F0
F0F0
FFF0
7F70
3E70
ENDCHAR
STARTCHAR uni0204
ENCODING 516
SWIDTH 560 0
DWIDTH 13 0
BBX 11 23 1 0
BITMAP
F700
7380
3980
18C0
0000
0000
7FE0
7FE0
7FE0
7800
7800
7800
7800
7FC0
7FC0
7FC0
7800
7800
7800
7800
7FE0
7FE0
7FE0
ENDCHAR
STARTCHAR uni0205
ENCODING 517
SWIDTH 590 0
DWIDTH 14 0
BBX 12 19 1 0
BITMAP
F780
7380
39C0
1CC0
0000
0000
1F80
3FC0
7FE0
70F0
F070
FFF0
FFF0
F000
F000
7800
7FE0
3FE0
0FC0
ENDCHAR
STARTCHAR uni0206
ENCODING 518
SWIDTH 560 0
DWIDTH 13 0
BBX 10 23 2 0
BITMAP
1F00
7F80
7F80
60C0
0000
0000
FFC0
FFC0
FFC0
F000
F000
F000
F000
FF80
FF80
FF80
F000
F000
F000
F000
FFC0
FFC0
FFC0
ENDCHAR
STARTCHAR uni0207
ENCODING 519
SWIDTH 590 0
DWIDTH 14 0
BBX 12 19 1 0
BITMAP
0F80
1FC0
3FE0
3060
0000
0000
1F80
3FC0
7FE0
70F0
F070
FFF0
FFF0
F000
F000
7800
7FE0
3FE0
0FC0
ENDCHAR
STARTCHAR uni0208
ENCODING 520
SWIDTH 389 0
DWIDTH 9 0
BBX 10 23 -2 0
BITMAP
F780
7B80
39C0
1CC0
0000
0000
1FC0
1FC0
0FC0
0700
0700
0700
0700
0700
0700
0700
0700
0700
0700
0700
0FC0
1FC0
1FC0
ENDCHAR
STARTCHAR uni0209
ENCODING 521
SWIDTH 305 0
DWIDTH 7 0
BBX 10 19 -3 0
BITMAP
F780
7380
39C0
1CC0
0000
0000
0700
0700
0700
0700
0700
0700
0700
0700
0700
0700
0700
0700
0700
ENDCHAR
STARTCHAR uni020A
ENCODING 522
SWIDTH 389 0
DWIDTH 9 0
BBX 9 23 0 0
BITMAP
3E00
7F00
FF80
C180
0000
0000
7F00
7F00
3F00
1C00
1C00
1C00
1C00
1C00
1C00
1C00
1C00
1C00
1C00
1C00
3F00
7F00
7F00
ENDCHAR
STARTCHAR uni020B
ENCODING 523
SWIDTH 305 0
DWIDTH 7 0
BBX 9 19 -1 0
BITMAP
3E00
7F00
FF80
C180
0000
0000
1C00
1C00
1C00
1C00
1C00
1C00
1C00
1C00
1C00
1C00
1C00
1C00
1C00
ENDCHAR
STARTCHAR uni020C
ENCODING 524
SWIDTH 795 0
DWIDTH 19 0
BBX 17 23 1 0
BITMAP
3DE000
1CE000
0E7000
073000
000000
000000
07F000
1FFC00
3FFE00
7C1E00
780F00
780F00
700700
F00780
F00780
F00780
700700
780F00
780F00
3C1F00
3FFE00
1FFC00
07F000
ENDCHAR
STARTCHAR uni020D
ENCODING 525
SWIDTH 619 0
DWIDTH 15 0
BBX 13 19 1 0
BITMAP
F780
7380
39C0
1CC0
0000
0000
0F80
3FE0
7FF0
78F0
F078
F078
F078
F078
F078
78F0
7FF0
3FE0
0F80
ENDCHAR
STARTCHAR uni020E
ENCODING 526
SWIDTH 795 0
DWIDTH 19 0
BBX 17 23 1 0
BITMAP
03E000
07F000
0FF800
0C1800
000000
000000
07F000
1FFC00
3FFE00
7C1E00
780F00
780F00
700700
F00780
F00780
F00780
700700
780F00
780F00
3C1F00
3FFE00
1FFC00
07F000
ENDCHAR
STARTCHAR uni020F
ENCODING 527
SWIDTH 619 0
DWIDTH 15 0
BBX 13 19 1 0
BITMAP
0F80
1FC0
3FE0
3060
0000
0000
0F80
3FE0
7FF0
78F0
F078
F078
F078
F078
F078
78F0
7FF0
3FE0
0F80
ENDCHAR
STARTCHAR uni0210
ENCODING 528
SWIDTH 660 0
DWIDTH 16 0
BBX 15 23 1 0
BITMAP
F780
7B80
39C0
1CC0
0000
0000
7FC0
7FF0
7FF0
78F8
7878
7878
7878
78F8
7FF0
7FE0
7FC0
79E0
78F0
7870
7878
783C
781E
ENDCHAR
STARTCHAR uni0211
ENCODING 529
SWIDTH 454 0
DWIDTH 11 0
BBX 10 19 0 0
BITMAP
F700
7380
3980
18C0
0000
0000
39C0
3BC0
3FC0
3F00
3C00
3C00
3C00
3C00
3C00
3C00
3C00
3C00
3C00
ENDCHAR
STARTCHAR uni0212
ENCODING 530
SWIDTH 660 0
DWIDTH 16 0
BBX 14 23 2 0
BITMAP
1F00
3F80
7FC0
60C0
0000
0000
FF80
FFE0
FFE0
F1F0
F0F0
F0F0
F0F0
F1F0
FFE0
FFC0
FF80
F3C0
F1E0
F0E0
F0F0
F078
F03C
ENDCHAR
STARTCHAR uni0213
ENCODING 531
SWIDTH 454 0
DWIDTH 11 0
BBX 9 19 2 0
BITMAP
3E00
7F00
FF00
C180
0000
0000
E700
EF00
FF00
FC00
F000
F000
F000
F000
F000
F000
F000
F000
F000
ENDCHAR
STARTCHAR uni0214
ENCODING 532
SWIDTH 755 0
DWIDTH 18 0
BBX 14 23 2 0
BITMAP
7B80
39C0
1CE0
0E60
0000
0000
F03C
F03C
F03C
F03C
F03C
F03C
F03C
F03C
F03C
F03C
F03C
F03C
F03C
7878
7FF8
3FF0
0FC0
ENDCHAR
STARTCHAR uni0215
ENCODING 533
SWIDTH 657 0
DWIDTH 16 0
BBX 12 19 2 0
BITMAP
EF00
7700
3380
19C0
0000
0000
E0F0
E0F0
E0F0
E0F0
E0F0
E0F0
E0F0
E0F0
E0F0
F1F0
FFF0
7F70
3E70
ENDCHAR
STARTCHAR uni0216
ENCODING 534
SWIDTH 755 0
DWIDTH 18 0
BBX 14 23 2 0
BITMAP
07C0
1FE0
1FE0
1830
0000
0000
F03C
F03C
F03C
F03C
F03C
F03C
F03C
F03C
F03C
F03C
F03C
F03C
F03C
7878
7FF8
3FF0
0FC0
ENDCHAR
STARTCHAR uni0217
ENCODING 535
SWIDTH 657 0
DWIDTH 16 0
BBX 12 19 2 0
BITMAP
0F00
3FC0
3FC0
60C0
0000
0000
E0F0
E0F0
E0F0
E0F0
E0F0
E0F0
E0F0
E0F0
E0F0
F1F0
FFF0
7F70
3E70
ENDCHAR
STARTCHAR uni0218
ENCODING 536
SWIDTH 550 0
DWIDTH 13 0
BBX 11 22 1 -5
BITMAP
1F80
3FE0
7FE0
F0C0
F000
F000
7C00
7F00
3F80
0FC0
03E0
01E0
00E0
C1E0
FFE0
FFC0
7F00
0000
0E00
1E00
1C00
1800
ENDCHAR
STARTCHAR uni0219
ENCODING 537
SWIDTH 497 0
DWIDTH 12 0
BBX 10 18 1 -5
BITMAP
3F80
7FC0
FF80
F080
F800
7E00
3F80
0FC0
03C0
83C0
FFC0
FF80
7F00
0000
1C00
1C00
1800
3800
ENDCHAR
STARTCHAR uni021A
ENCODING 538
SWIDTH 579 0
DWIDTH 14 0
BBX 14 22 0 -5
BITMAP
FFFC
FFFC
FFFC
0780
0780
0780
0780
0780
0780
0780
0780
0780
0780
0780
0780
0780
0780
0000
0780
0700
0700
0600
ENDCHAR
STARTCHAR uni021B
ENCODING 539
SWIDTH 434 0
DWIDTH 10 0
BBX 9 21 0 -5
BITMAP
1C00
1C00
1C00
3F80
FF80
FF80
3C00
3C00
3C00
3C00
3C00
3C00
3C00
3F80
1F80
0F80
0000
0E00
0E00
0C00
0C00
ENDCHAR
STARTCHAR uni021C
ENCODING 540
SWIDTH 647 0
DWIDTH 16 0
BBX 14 17 1 0
BITMAP
1FC0
7FF0
7FF8
6078
0038
0038
00F8
1FE0
1FC0
1FF0
0078
003C
003C
C07C
FFF8
FFF0
7FC0
ENDCHAR
STARTCHAR uni021D
ENCODING 541
SWIDTH 562 0
DWIDTH 14 0
BBX 13 19 0 -6
BITMAP
1FC0
7FE0
3FF0
2070
0070
0070
00F0
1FE0
1FC0
1FF0
00F0
0078
0078
0078
0078
C0F0
FFF0
FFE0
7F80
ENDCHAR
STARTCHAR uni021E
ENCODING 542
SWIDTH 765 0
DWIDTH 18 0
BBX 14 23 2 0
BITMAP
3870
1EF0
0FE0
07C0
0000
0000
F03C
F03C
F03C
F03C
F03C
F03C
F03C
FFFC
FFFC
FFFC
F03C
F03C
F03C
F03C
F03C
F03C
F03C
ENDCHAR
STARTCHAR uni021F
ENCODING 543
SWIDTH 657 0
DWIDTH 16 0
BBX 12 23 2 0
BITMAP
70E0
39C0
1F80
0F80
0000
E000
E000
E000
E000
E000
E7C0
EFE0
FFF0
F8F0
F0F0
F070
E070
E070
E070
E070
E070
E070
E070
ENDCHAR
STARTCHAR uni0220
ENCODING 544
SWIDTH 761 0
DWIDTH 18 0
BBX 14 23 2 -6
BITMAP
E3E0
EFF8
FFF8
FC7C
F03C
F03C
F03C
F03C
F03C
F03C
F03C
F03C
F03C
F03C
F03C
F03C
F03C
003C
003C
003C
003C
003C
003C
ENDCHAR
STARTCHAR uni0221
ENCODING 545
SWIDTH 632 0
DWIDTH 15 0
BBX 15 24 1 -6
BITMAP
0070
0070
0070
0070
0070
1E70
3FF0
7FF0
F8F0
F070
F070
F070
F070
F070
F8F0
7FF0
3F70
1E70
0070
0070
0070
007E
007E
003E
ENDCHAR
STARTCHAR uni0222
ENCODING 546
SWIDTH 766 0
DWIDTH 18 0
BBX 16 17 1 0
BITMAP
781E
781E
781E
781E
3C3C
3FFC
1FF8
3FFC
7C1E
F00F
F00F
F00F
F00F
7C1E
7FFE
3FFC
0FF0
ENDCHAR
STARTCHAR uni0223
ENCODING 547
SWIDTH 628 0
DWIDTH 15 0
BBX 13 18 1 0
BITMAP
7070
7070
7070
7070
78F0
78F0
3FE0
1FC0
3FE0
78F0
F078
F078
F078
F078
F8F8
7FF0
3FE0
0FC0
ENDCHAR
STARTCHAR uni0224
ENCODING 548
SWIDTH 579 0
DWIDTH 14 0
BBX 12 23 1 -6
BITMAP
FFF0
FFF0
FFF0
01E0
01E0
03C0
0780
0780
0F00
1E00
1C00
3C00
7800
F000
FFF0
FFF0
FFF0
0070
0070
0070
03F0
03F0
03C0
ENDCHAR
STARTCHAR uni0225
ENCODING 549
SWIDTH 487 0
DWIDTH 12 0
BBX 10 19 1 -6
BITMAP
FFC0
FFC0
FFC0
0780
0700
0F00
1E00
3C00
7800
7800
FFC0
FFC0
FFC0
01C0
01C0
01C0
07C0
07C0
0780
ENDCHAR
STARTCHAR uni0226
ENCODING 550
SWIDTH 689 0
DWIDTH 17 0
BBX 17 22 0 0
BITMAP
01E000
01E000
00E000
000000
000000
03E000
03E000
07F000
077000
077000
0F7800
0E3800
1E3C00
1E3C00
1C1C00
3FFE00
3FFE00
3FFE00
780F00
780F00
780F00
F00780
ENDCHAR
STARTCHAR uni0227
ENCODING 551
SWIDTH 604 0
DWIDTH 15 0
BBX 12 18 1 0
BITMAP
0780
0780
0380
0000
0000
1F80
7FE0
3FF0
20F0
00F0
1FF0
7FF0
F8F0
F0F0
F0F0
FFF0
7F70
3E70
ENDCHAR
STARTCHAR uni0228
ENCODING 552
SWIDTH 560 0
DWIDTH 13 0
BBX 10 23 2 -6
BITMAP
FFC0
FFC0
FFC0
F000
F000
F000
F000
FF80
FF80
FF80
F000
F000
F000
F000
FFC0
FFC0
FFC0
0C00
1E00
0F00
0700
3E00
3C00
ENDCHAR
STARTCHAR uni0229
ENCODING 553
SWIDTH 590 0
DWIDTH 14 0
BBX 12 19 1 -6
BITMAP
1F80
3FC0
7FE0
70F0
F070
FFF0
FFF0
F000
F000
7800
7FE0
3FE0
0FC0
0600
0F00
0380
0380
0F80
0F00
ENDCHAR
STARTCHAR uni022A
ENCODING 554
SWIDTH 795 0
DWIDTH 19 0
BBX 17 24 1 0
BITMAP
07F800
07F800
000000
063000
077000
063000
000000
07F000
1FFC00
3FFE00
7C1E00
780F00
780F00
700700
F00780
F00780
F00780
700700
780F00
780F00
3C1F00
3FFE00
1FFC00
07F000
ENDCHAR
STARTCHAR uni022B
ENCODING 555
SWIDTH 619 0
DWIDTH 15 0
BBX 13 20 1 0
BITMAP
3FC0
3FC0
0000
18C0
1DC0
18C0
0000
0F80
3FE0
7FF0
78F0
F078
F078
F078
F078
F078
78F0
7FF0
3FE0
0F80
ENDCHAR
STARTCHAR uni022C
ENCODING 556
SWIDTH 795 0
DWIDTH 19 0
BBX 17 25 1 0
BITMAP
07F800
07F800
000000
079800
07F000
0C7000
000000
000000
07F000
1FFC00
3FFE00
7C1E00
780F00
780F00
700700
F00780
F00780
F00780
700700
780F00
780F00
3C1F00
3FFE00
1FFC00
07F000
ENDCHAR
STARTCHAR uni022D
ENCODING 557
SWIDTH 619 0
DWIDTH 15 0
BBX 13 21 1 0
BITMAP
3FC0
3FC0
0000
1C60
1FC0
31C0
0000
0000
0F80
3FE0
7FF0
78F0
F078
F078
F078
F078
F078
78F0
7FF0
3FE0
0F80
ENDCHAR
STARTCHAR uni022E
ENCODING 558
SWIDTH 795 0
DWIDTH 19 0
BBX 17 23 1 0
BITMAP
008000
01C000
01C000
01C000
000000
000000
07F000
1FFC00
3FFE00
7C1E00
780F00
780F00
700700
F00780
F00780
F00780
700700
780F00
780F00
3C1F00
3FFE00
1FFC00
07F000
ENDCHAR
STARTCHAR uni022F
ENCODING 559
SWIDTH 619 0
DWIDTH 15 0
BBX 13 19 1 0
BITMAP
0200
0F00
0F00
0700
0000
0000
0F80
3FE0
7FF0
78F0
F078
F078
F078
F078
F078
78F0
7FF0
3FE0
0F80
ENDCHAR
STARTCHAR uni0230
ENCODING 560
SWIDTH 795 0
DWIDTH 19 0
BBX 17 24 1 0
BITMAP
07F800
07F800
000000
01C000
01C000
01C000
000000
07F000
1FFC00
3FFE00
7C1E00
780F00
780F00
700700
F00780
F00780
F00780
700700
780F00
780F00
3C1F00
3FFE00
1FFC00
07F000
ENDCHAR
STARTCHAR uni0231
ENCODING 561
SWIDTH 619 0
DWIDTH 15 0
BBX 13 20 1 0
BITMAP
3FC0
3FC0
0000
0700
0700
0700
0000
0F80
3FE0
7FF0
78F0
F078
F078
F078
F078
F078
78F0
7FF0
3FE0
0F80
ENDCHAR
STARTCHAR uni0232
ENCODING 562
SWIDTH 624 0
DWIDTH 15 0
BBX 15 21 0 0
BITMAP
0FF0
0FF0
0000
0000
F01E
783C
783C
3C78
3C78
1EF0
0EE0
0FE0
07C0
07C0
0380
0380
0380
0380
0380
0380
0380
ENDCHAR
STARTCHAR uni0233
ENCODING 563
SWIDTH 568 0
DWIDTH 14 0
BBX 14 23 0 -6
BITMAP
1FE0
1FE0
0000
0000
F03C
7838
7878
7878
3C70
3CF0
1CF0
1EE0
1FE0
0FC0
0FC0
07C0
0780
0780
0700
0F00
7E00
7E00
7800
ENDCHAR
STARTCHAR uni0234
ENCODING 564
SWIDTH 435 0
DWIDTH 10 0
BBX 9 19 1 -1
BITMAP
7000
7000
7000
7000
7000
7000
7000
7000
7000
7000
7000
7000
7F00
7F80
7980
7980
7F80
DF00
4000
ENDCHAR
STARTCHAR uni0235
ENCODING 565
SWIDTH 770 0
DWIDTH 18 0
BBX 16 14 2 -1
BITMAP
E780
FFC0
FFE0
F1E0
F0E0
E0E0
E0E0
E0FE
E0FF
E0F7
E0F7
E1FF
E1BE
0180
ENDCHAR
STARTCHAR uni0236
ENCODING 566
SWIDTH 451 0
DWIDTH 11 0
BBX 10 17 1 -1
BITMAP
3800
3800
3800
7F80
FF80
FF80
7800
7800
7800
7800
7F80
7FC0
79C0
79C0
7FC0
7F00
4000
ENDCHAR
STARTCHAR uni0237
ENCODING 567
SWIDTH 305 0
DWIDTH 7 0
BBX 7 19 -2 -6
BITMAP
0E
0E
0E
0E
0E
0E
0E
0E
0E
0E
0E
0E
0E
0E
0E
1E
FE
FC
F8
ENDCHAR
STARTCHAR uni0238
ENCODING 568
SWIDTH 960 0
DWIDTH 23 0
BBX 21 18 1 0
BITMAP
007000
007000
007000
007000
007000
1E73C0
3F77E0
7FFFF0
F8F8F8
F0F878
F07078
F07078
F07078
F0F878
78F8F0
7FFFF0
3FDFE0
1F8FC0
ENDCHAR
STARTCHAR uni0239
ENCODING 569
SWIDTH 960 0
DWIDTH 23 0
BBX 21 19 1 -6
BITMAP
1F8FC0
3FDFE0
7FFFF0
78F8F0
F0F878
F07078
F07078
F07078
F0F878
F8F8F8
7FFFF0
3F77E0
1E73C0
007000
007000
007000
007000
007000
007000
ENDCHAR
STARTCHAR uni023A
ENCODING 570
SWIDTH 689 0
DWIDTH 17 0
BBX 17 20 0 -2
BITMAP
001800
03F800
03F000
07F000
077000
077000
0F7800
0EF800
1EF800
1EFC00
1DDC00
3FFE00
3FFE00
3FFE00
7B0F00
7F0F00
7E0F00
F60780
0E0000
0C0000
ENDCHAR
STARTCHAR uni023B
ENCODING 571
SWIDTH 637 0
DWIDTH 15 0
BBX 13 20 1 -2
BITMAP
0030
07F0
1FF8
3FF8
3C70
78E0
78C0
70C0
F1C0
F180
F380
F300
7B00
7F00
7E18
3FF8
1FF8
0FF0
0C00
1C00
ENDCHAR
STARTCHAR uni023C
ENCODING 572
SWIDTH 514 0
DWIDTH 12 0
BBX 11 23 1 -5
BITMAP
0060
00E0
00C0
00C0
01C0
1F80
3FC0
7FC0
7B00
F300
F700
F600
F600
FC00
FC40
7FC0
3FC0
1F80
3800
3000
3000
7000
6000
ENDCHAR
STARTCHAR uni023D
ENCODING 573
SWIDTH 564 0
DWIDTH 14 0
BBX 12 17 1 0
BITMAP
7800
7800
7800
7800
7800
7800
7800
FF00
FF00
FF00
7800
7800
7800
7800
7FF0
7FF0
7FF0
ENDCHAR
STARTCHAR uni023E
ENCODING 574
SWIDTH 579 0
DWIDTH 14 0
BBX 14 20 0 -2
BITMAP
000C
FFFC
FFFC
FFFC
07B0
07E0
07E0
07C0
07C0
0780
0780
0780
0780
0780
0F80
0F80
1F80
1F80
3000
3000
ENDCHAR
STARTCHAR uni023F
ENCODING 575
SWIDTH 497 0
DWIDTH 12 0
BBX 10 19 1 -6
BITMAP
3F80
7FC0
FF80
F080
F800
7E00
3F80
0FC0
03C0
83C0
FFC0
FF80
FF00
3C00
3C00
1E00
1F80
0F80
0780
ENDCHAR
STARTCHAR uni0240
ENCODING 576
SWIDTH 487 0
DWIDTH 12 0
BBX 11 19 1 -6
BITMAP
FFC0
FFC0
FFC0
0780
0F00
0F00
1E00
3C00
7800
7000
F000
F800
FC00
1E00
1E00
0F00
0FE0
07E0
03E0
ENDCHAR
STARTCHAR uni0241
ENCODING 577
SWIDTH 479 0
DWIDTH 12 0
BBX 11 17 0 0
BITMAP
3F00
FFC0
7FE0
61E0
00E0
00E0
01E0
03C0
0FC0
1F80
1E00
1E00
1E00
1E00
1E00
1E00
1E00
ENDCHAR
STARTCHAR uni0242
ENCODING 578
SWIDTH 488 0
DWIDTH 12 0
BBX 11 13 0 0
BITMAP
3F00
FFC0
7FC0
61E0
01E0
01E0
01E0
03C0
0FC0
1F00
1E00
1E00
1E00
ENDCHAR
STARTCHAR uni0243
ENCODING 579
SWIDTH 671 0
DWIDTH 16 0
BBX 15 17 0 0
BITMAP
3FE0
3FF8
3FFC
3C3C
3C1C
3C1C
3C3C
3FF8
3FF0
3FFC
3C3C
FF1E
FF1E
3C3E
3FFC
3FF8
3FF0
ENDCHAR
STARTCHAR uni0244
ENCODING 580
SWIDTH 755 0
DWIDTH 18 0
BBX 18 17 0 0
BITMAP
3C0F00
3C0F00
3C0F00
3C0F00
3C0F00
3C0F00
FFFFC0
FFFFC0
FFFFC0
3C0F00
3C0F00
3C0F00
3C0F00
1E1E00
1FFE00
0FFC00
03F000
ENDCHAR
STARTCHAR uni0245
ENCODING 581
SWIDTH 649 0
DWIDTH 16 0
BBX 16 17 0 0
BITMAP
03C0
07E0
07E0
07E0
0FF0
0E70
0E70
1E78
1E38
1C38
3C3C
3C3C
381C
781E
781E
700E
F00F
ENDCHAR
STARTCHAR uni0246
ENCODING 582
SWIDTH 560 0
DWIDTH 13 0
BBX 10 20 2 -2
BITMAP
0180
FFC0
FFC0
FFC0
F300
F300
F700
F600
FF80
FF80
FF80
FC00
FC00
FC00
FC00
FFC0
FFC0
FFC0
3800
3000
ENDCHAR
STARTCHAR uni0247
ENCODING 583
SWIDTH 590 0
DWIDTH 14 0
BBX 12 23 1 -5
BITMAP
0060
00E0
00C0
00C0
01C0
1F80
3FC0
7FE0
73F0
F370
FFF0
FFF0
F600
FC00
7C00
7FE0
3FE0
1FC0
3800
3000
3000
7000
6000
ENDCHAR
STARTCHAR uni0248
ENCODING 584
SWIDTH 331 0
DWIDTH 8 0
BBX 10 22 -2 -5
BITMAP
0F00
0F00
0F00
0F00
0F00
0F00
0F00
3FC0
3FC0
3FC0
0F00
0F00
0F00
0F00
0F00
0F00
0F00
0F00
1E00
FE00
FC00
F800
ENDCHAR
STARTCHAR uni0249
ENCODING 585
SWIDTH 305 0
DWIDTH 7 0
BBX 9 24 -2 -6
BITMAP
0E00
0F00
0E00
0400
0000
0E00
0E00
0E00
0E00
0E00
3F80
3F80
0E00
0E00
0E00
0E00
0E00
0E00
0E00
0E00
1E00
FE00
FC00
F800
ENDCHAR
STARTCHAR uni024A
ENCODING 586
SWIDTH 774 0
DWIDTH 19 0
BBX 18 23 1 -6
BITMAP
07CF00
1FEF00
3FFF00
7C3F00
781F00
780F00
700F00
F00F00
F00F00
F00F00
700F00
780F00
781F00
7C3F00
3FFF00
1FEF00
0FCF00
000F00
000F00
000F00
000FC0
0007C0
0003C0
ENDCHAR
STARTCHAR uni024B
ENCODING 587
SWIDTH 632 0
DWIDTH 15 0
BBX 15 19 1 -6
BITMAP
1E70
3F70
7FF0
F8F0
F070
F070
F070
F070
F070
F0F0
7FF0
3F70
1E70
0070
0070
0070
007E
007E
003E
ENDCHAR
STARTCHAR uni024C
ENCODING 588
SWIDTH 660 0
DWIDTH 16 0
BBX 16 17 0 0
BITMAP
3FE0
3FF8
3FF8
3C7C
3C3C
3C3C
3C3C
3C7C
FFF8
FFF0
FFE0
3CF0
3C78
3C38
3C3C
3C1E
3C0F
ENDCHAR
STARTCHAR uni024D
ENCODING 589
SWIDTH 454 0
DWIDTH 11 0
BBX 10 13 0 0
BITMAP
39C0
3BC0
3FC0
3F00
3C00
3C00
FF00
FF00
3800
3800
3800
3800
3800
ENDCHAR
STARTCHAR uni024E
ENCODING 590
SWIDTH 624 0
DWIDTH 15 0
BBX 15 17 0 0
BITMAP
F01E
783C
FFFE
FFFE
1C70
1EF0
0EE0
0FE0
07C0
07C0
0380
0380
0380
0380
0380
0380
0380
ENDCHAR
STARTCHAR uni024F
ENCODING 591
SWIDTH 568 0
DWIDTH 14 0
BBX 14 19 0 -6
BITMAP
F03C
7038
7878
7878
FFFC
FFFC
1CE0
1CE0
1FE0
0FC0
0FC0
07C0
0780
0780
0700
0F00
7E00
7E00
7800
ENDCHAR
STARTCHAR uni0250
ENCODING 592
SWIDTH 604 0
DWIDTH 15 0
BBX 12 13 2 0
BITMAP
E7C0
EFE0
FFF0
F0F0
E0F0
E1F0
FFE0
FF80
E000
F000
FFC0
7FC0
3F80
ENDCHAR
STARTCHAR uni0251
ENCODING 593
SWIDTH 632 0
DWIDTH 15 0
BBX 12 13 1 0
BITMAP
1E70
3F70
7FF0
F8F0
F070
F070
F070
F070
F070
F0F0
7FF0
3F70
1E70
ENDCHAR
STARTCHAR uni0252
ENCODING 594
SWIDTH 632 0
DWIDTH 15 0
BBX 12 13 2 0
BITMAP
E780
EFC0
FFE0
F0F0
E0F0
E0F0
E0F0
E0F0
E0F0
F1F0
FFE0
EFC0
E780
ENDCHAR
STARTCHAR uni0253
ENCODING 595
SWIDTH 632 0
DWIDTH 15 0
BBX 12 18 2 0
BITMAP
3C00
7C00
FC00
F000
E000
E780
EFC0
FFE0
F1F0
F0F0
E0F0
E0F0
E0F0
F0F0
F1F0
FFE0
FFC0
E780
ENDCHAR
STARTCHAR uni0254
ENCODING 596
SWIDTH 514 0
DWIDTH 12 0
BBX 10 13 1 0
BITMAP
7E00
FF00
FF80
07C0
03C0
03C0
03C0
03C0
03C0
87C0
FF80
FF00
7E00
ENDCHAR
STARTCHAR uni0255
ENCODING 597
SWIDTH 549 0
DWIDTH 13 0
BBX 11 14 1 -1
BITMAP
0FC0
3FC0
7FC0
7840
F000
F000
F7C0
FFE0
FCE0
7860
7FE0
7FE0
FF80
4000
ENDCHAR
STARTCHAR uni0256
ENCODING 598
SWIDTH 632 0
DWIDTH 15 0
BBX 15 24 1 -6
BITMAP
0070
0070
0070
0070
0070
1E70
3FF0
7FF0
F8F0
F070
F070
F070
F070
F070
F8F0
7FF0
3F70
1E70
0070
0070
0070
007E
007E
003E
ENDCHAR
STARTCHAR uni0257
ENCODING 599
SWIDTH 632 0
DWIDTH 15 0
BBX 15 18 1 0
BITMAP
003E
007E
007E
0070
0070
1E70
3FF0
7FF0
F8F0
F070
F070
F070
F070
F070
F8F0
7FF0
3F70
1E70
ENDCHAR
STARTCHAR uni0258
ENCODING 600
SWIDTH 590 0
DWIDTH 14 0
BBX 12 13 1 0
BITMAP
1F80
3FC0
7FE0
F0E0
E0F0
FFF0
FFF0
00F0
00F0
00E0
7FE0
7FC0
3F00
ENDCHAR
STARTCHAR uni0259
ENCODING 601
SWIDTH 590 0
DWIDTH 14 0
BBX 12 13 1 0
BITMAP
3F00
7FC0
7FE0
00E0
00F0
FFF0
FFF0
E0F0
E0F0
F0E0
7FE0
3FC0
1F80
ENDCHAR
STARTCHAR uni025A
ENCODING 602
SWIDTH 820 0
DWIDTH 20 0
BBX 19 13 1 0
BITMAP
3F8000
7FC000
7FE000
00F000
007E00
01FE00
3FFF40
FFFFE0
F073C0
F0F000
7FF000
3FE000
1F8000
ENDCHAR
STARTCHAR uni025B
ENCODING 603
SWIDTH 555 0
DWIDTH 13 0
BBX 11 13 1 0
BITMAP
1FC0
7FE0
7FE0
7000
7000
7F80
3F80
7E00
E000
F020
FFE0
7FE0
3FC0
ENDCHAR
STARTCHAR uni025C
ENCODING 604
SWIDTH 555 0
DWIDTH 13 0
BBX 11 13 1 0
BITMAP
7F80
FFC0
7FE0
00E0
01E0
1FC0
1F80
0FE0
00E0
81E0
FFE0
FFC0
7F00
ENDCHAR
STARTCHAR uni025D
ENCODING 605
SWIDTH 695 0
DWIDTH 17 0
BBX 16 13 1 0
BITMAP
7F80
FFD0
7FF0
01F0
01FA
1FBF
1F9E
0FE0
00E0
81E0
FFE0
FFC0
7F00
ENDCHAR
STARTCHAR uni025E
ENCODING 606
SWIDTH 628 0
DWIDTH 15 0
BBX 13 13 1 0
BITMAP
0FE0
3FF0
7FF8
7878
F078
F3F0
F3E0
F1F8
F038
7878
7FF8
3FF0
0FC0
ENDCHAR
STARTCHAR uni025F
ENCODING 607
SWIDTH 305 0
DWIDTH 7 0
BBX 9 19 -2 -6
BITMAP
0E00
0E00
0E00
0E00
0E00
3F80
3F80
0E00
0E00
0E00
0E00
0E00
0E00
0E00
0E00
1E00
FE00
FC00
F800
ENDCHAR
STARTCHAR uni0260
ENCODING 608
SWIDTH 632 0
DWIDTH 15 0
BBX 15 24 1 -6
BITMAP
003E
007E
007E
0070
0070
1E70
3FF0
7FF0
F8F0
F070
F070
F070
F070
F070
F0F0
7FF0
3F70
1E70
0070
00F0
00F0
7FE0
7FE0
3F80
ENDCHAR
STARTCHAR uni0261
ENCODING 609
SWIDTH 632 0
DWIDTH 15 0
BBX 12 19 1 -6
BITMAP
1E70
3FF0
7FF0
F8F0
F070
F070
F070
F070
F070
F0F0
7FF0
3F70
1E70
0070
00F0
00F0
7FE0
7FE0
3F80
ENDCHAR
STARTCHAR uni0262
ENCODING 610
SWIDTH 599 0
DWIDTH 14 0
BBX 12 13 1 0
BITMAP
0FC0
3FE0
7FE0
7820
F000
F000
F3F0
F3F0
F0F0
78F0
7FF0
3FF0
1FC0
ENDCHAR
STARTCHAR uni0263
ENCODING 611
SWIDTH 568 0
DWIDTH 14 0
BBX 14 19 0 -6
BITMAP
F03C
7038
7878
3870
3CF0
1CE0
1FE0
0FC0
0FC0
0F80
0780
0F80
0FC0
0DC0
1CC0
1CC0
1CC0
0FC0
0780
ENDCHAR
STARTCHAR uni0264
ENCODING 612
SWIDTH 568 0
DWIDTH 14 0
BBX 14 13 0 0
BITMAP
F03C
F87C
FCFC
3CF0
1FE0
0FC0
0780
0FC0
0FC0
0CC0
0CC0
0FC0
0780
ENDCHAR
STARTCHAR uni0265
ENCODING 613
SWIDTH 657 0
DWIDTH 16 0
BBX 12 19 2 -6
BITMAP
E0F0
E0F0
E0F0
E0F0
E0F0
E0F0
E0F0
E0F0
E0F0
F1F0
FFF0
7F70
3EF0
00F0
00F0
00F0
00F0
00F0
00F0
ENDCHAR
STARTCHAR uni0266
ENCODING 614
SWIDTH 657 0
DWIDTH 16 0
BBX 12 18 2 0
BITMAP
3C00
7C00
FC00
F000
E000
E7C0
EFE0
FFF0
F8F0
F0F0
F070
E070
E070
E070
E070
E070
E070
E070
ENDCHAR
STARTCHAR uni0267
ENCODING 615
SWIDTH 657 0
DWIDTH 16 0
BBX 12 24 2 -6
BITMAP
3C00
7C00
FC00
F000
E000
E7C0
EFE0
FFF0
F0F0
F0F0
F070
E070
E070
E070
E070
E070
E070
E070
0070
0070
00F0
03F0
03E0
03C0
ENDCHAR
STARTCHAR uni0268
ENCODING 616
SWIDTH 305 0
DWIDTH 7 0
BBX 7 18 0 0
BITMAP
38
3C
38
10
00
38
38
38
38
38
FE
FE
38
38
38
38
38
38
ENDCHAR
STARTCHAR uni0269
ENCODING 617
SWIDTH 407 0
DWIDTH 10 0
BBX 7 13 2 0
BITMAP
F0
F0
F0
F0
F0
F0
F0
F0
F0
F0
FE
7E
3E
ENDCHAR
STARTCHAR uni026A
ENCODING 618
SWIDTH 360 0
DWIDTH 9 0
BBX 7 13 1 0
BITMAP
FE
FE
7C
38
38
38
38
38
38
38
7C
FE
FE
ENDCHAR
STARTCHAR uni026B
ENCODING 619
SWIDTH 435 0
DWIDTH 10 0
BBX 10 18 0 0
BITMAP
1E00
1E00
1E00
1E00
1E00
1E00
1E00
7EC0
7EC0
DF80
DF80
1E00
1E00
1E00
1E00
1E00
1E00
1E00
ENDCHAR
STARTCHAR uni026C
ENCODING 620
SWIDTH 404 0
DWIDTH 10 0
BBX 10 18 0 0
BITMAP
0E00
0E00
0E00
0E00
0E00
0E00
7E00
FE00
CE00
FFC0
7FC0
0E00
0E00
0E00
0E00
0E00
0E00
0E00
ENDCHAR
STARTCHAR uni026D
ENCODING 621
SWIDTH 305 0
DWIDTH 7 0
BBX 6 24 2 -6
BITMAP
E0
E0
E0
E0
E0
E0
E0
E0
E0
E0
E0
E0
E0
E0
E0
E0
E0
E0
E0
E0
F0
FC
FC
7C
ENDCHAR
STARTCHAR uni026E
ENCODING 622
SWIDTH 759 0
DWIDTH 18 0
BBX 15 24 2 -6
BITMAP
E000
E000
E000
E000
E000
FFFE
FFFE
FFFC
E078
E0F0
E1E0
E3C0
E7F0
E7F8
E7FC
E03E
E01E
E01E
001E
001E
103E
1FFC
1FF8
0FE0
ENDCHAR
STARTCHAR uni026F
ENCODING 623
SWIDTH 981 0
DWIDTH 24 0
BBX 20 13 2 0
BITMAP
E0F0F0
E0F0F0
E0F0F0
E0F0F0
E0F0F0
E0F0F0
E0F0F0
E0F0F0
E0F0F0
F1F0F0
FFFFF0
7F7FF0
3E3E70
ENDCHAR
STARTCHAR uni0270
ENCODING 624
SWIDTH 981 0
DWIDTH 24 0
BBX 20 19 2 -6
BITMAP
E0F0F0
E0F0F0
E0F0F0
E0F0F0
E0F0F0
E0F0F0
E0F0F0
E0F0F0
E0F0F0
F1F0F0
FFFFF0
7F7F70
3E3EF0
0000F0
0000F0
0000F0
0000F0
0000F0
0000F0
ENDCHAR
STARTCHAR uni0271
ENCODING 625
SWIDTH 981 0
DWIDTH 24 0
BBX 20 19 2 -6
BITMAP
E7C7C0
EFEFE0
FFFFF0
F0F8F0
F0F0F0
F0F070
F0F070
F0F070
F0F070
F0F070
F0F070
F0F070
F0F070
000070
0000F0
0000F0
0003F0
0003E0
0003C0
ENDCHAR
STARTCHAR uni0272
ENCODING 626
SWIDTH 657 0
DWIDTH 16 0
BBX 15 19 -1 -6
BITMAP
1CF8
1FFC
1FFE
1F1E
1E1E
1E0E
1E0E
1E0E
1E0E
1E0E
1E0E
1E0E
1E0E
1E00
1E00
1C00
FC00
FC00
F800
ENDCHAR
STARTCHAR uni0273
ENCODING 627
SWIDTH 657 0
DWIDTH 16 0
BBX 15 19 2 -6
BITMAP
E7C0
EFE0
FFF0
F8F0
F0F0
F070
F070
F070
F070
F070
F070
F070
F070
0070
0070
0070
007E
007E
003E
ENDCHAR
STARTCHAR uni0274
ENCODING 628
SWIDTH 720 0
DWIDTH 17 0
BBX 13 13 2 0
BITMAP
F038
F838
FC38
FC38
FE38
EF38
E738
E7B8
E3F8
E1F8
E1F8
E0F8
E078
ENDCHAR
STARTCHAR uni0275
ENCODING 629
SWIDTH 619 0
DWIDTH 15 0
BBX 13 13 1 0
BITMAP
0F80
3FE0
7FF0
78F0
F078
FFF8
FFF8
F078
F078
78F0
7FF0
3FE0
0F80
ENDCHAR
STARTCHAR uni0276
ENCODING 630
SWIDTH 872 0
DWIDTH 21 0
BBX 19 13 1 0
BITMAP
0FFFE0
3FFFE0
7FFFE0
78F800
F07800
F07FC0
F07FC0
F07FC0
F07800
78F800
7FFFE0
3FFFE0
0FFFE0
ENDCHAR
STARTCHAR uni0277
ENCODING 631
SWIDTH 830 0
DWIDTH 20 0
BBX 18 13 1 0
BITMAP
07F800
1FFE00
3FFF00
7C0F80
700380
F1E3C0
E1E3C0
E1E1C0
E1E3C0
F1E3C0
7FFF80
7F3F80
1E1E00
ENDCHAR
STARTCHAR uni0278
ENCODING 632
SWIDTH 813 0
DWIDTH 20 0
BBX 18 24 1 -6
BITMAP
01E000
01E000
01E000
01E000
01E000
07F800
3FFE00
7FFF00
79E780
F1E380
F1E3C0
F1E3C0
F1E3C0
F1E3C0
79E780
3FFF00
1FFE00
07F800
01E000
01E000
01E000
01E000
01E000
01E000
ENDCHAR
STARTCHAR uni0279
ENCODING 633
SWIDTH 454 0
DWIDTH 11 0
BBX 8 13 1 0
BITMAP
0F
0F
0F
0F
0F
0F
0F
0F
0F
3F
FF
F7
E7
ENDCHAR
STARTCHAR uni027A
ENCODING 634
SWIDTH 454 0
DWIDTH 11 0
BBX 8 18 1 0
BITMAP
0F
0F
0F
0F
0F
0F
0F
0F
0F
0F
0F
0F
0F
0F
3F
FF
F7
E7
ENDCHAR
STARTCHAR uni027B
ENCODING 635
SWIDTH 454 0
DWIDTH 11 0
BBX 11 19 1 -6
BITMAP
0F00
0F00
0F00
0F00
0F00
0F00
0F00
0F00
0F00
3F00
FF00
F700
E700
0F00
0F00
0700
07E0
07E0
03E0
ENDCHAR
STARTCHAR uni027C
ENCODING 636
SWIDTH 454 0
DWIDTH 11 0
BBX 8 19 2 -6
BITMAP
E7
EF
FF
FC
F0
F0
E0
E0
E0
E0
E0
E0
E0
E0
E0
E0
E0
E0
E0
ENDCHAR
STARTCHAR uni027D
ENCODING 637
SWIDTH 454 0
DWIDTH 11 0
BBX 8 19 2 -6
BITMAP
E7
EF
FF
FC
F0
F0
E0
E0
E0
E0
E0
E0
E0
E0
E0
F0
FC
7C
3C
ENDCHAR
STARTCHAR uni027E
ENCODING 638
SWIDTH 397 0
DWIDTH 10 0
BBX 7 13 2 0
BITMAP
3E
7E
FE
F0
E0
E0
E0
E0
E0
E0
E0
E0
E0
ENDCHAR
STARTCHAR uni027F
ENCODING 639
SWIDTH 397 0
DWIDTH 10 0
BBX 7 19 1 -6
BITMAP
F8
FC
FE
1E
1E
1E
1E
1E
1E
1E
1E
1E
1E
1E
1E
1E
1E
1E
1E
ENDCHAR
STARTCHAR uni0280
ENCODING 640
SWIDTH 604 0
DWIDTH 15 0
BBX 13 13 2 0
BITMAP
FF80
FFE0
FFE0
F0F0
F0F0
F0E0
FFE0
FFC0
F3C0
F3C0
F1E0
F0F0
F078
ENDCHAR
STARTCHAR uni0281
ENCODING 641
SWIDTH 604 0
DWIDTH 15 0
BBX 13 13 2 0
BITMAP
F078
F0F0
F1E0
F1E0
F3C0
FF80
FFE0
F3E0
F0F0
F0F0
FFE0
FFE0
FF80
ENDCHAR
STARTCHAR uni0282
ENCODING 642
SWIDTH 497 0
DWIDTH 12 0
BBX 10 19 1 -6
BITMAP
3F80
7FC0
FF80
F080
F800
7E00
3F80
0FC0
03C0
83C0
FFC0
FF80
FF00
E000
E000
E000
F800
7800
3800
ENDCHAR
STARTCHAR uni0283
ENCODING 643
SWIDTH 305 0
DWIDTH 7 0
BBX 9 24 -1 -6
BITMAP
0F80
1F80
1F80
1E00
1C00
1C00
1C00
1C00
1C00
1C00
1C00
1C00
1C00
1C00
1C00
1C00
1C00
1C00
1C00
1C00
1C00
FC00
FC00
F800
ENDCHAR
STARTCHAR uni0284
ENCODING 644
SWIDTH 305 0
DWIDTH 7 0
BBX 9 24 -1 -6
BITMAP
0780
1F80
1F80
1E00
1C00
1C00
1C00
1C00
1C00
1C00
7F00
7F00
7F00
1C00
1C00
1C00
1C00
1C00
1C00
1C00
1C00
FC00
FC00
F800
ENDCHAR
STARTCHAR uni0285
ENCODING 645
SWIDTH 305 0
DWIDTH 7 0
BBX 9 19 -1 -6
BITMAP
F800
FC00
FC00
1C00
1C00
1C00
1C00
1C00
1C00
1C00
1C00
1C00
1C00
1C00
1C00
1E00
1F80
1F80
0F80
ENDCHAR
STARTCHAR uni0286
ENCODING 646
SWIDTH 305 0
DWIDTH 7 0
BBX 10 24 -2 -6
BITMAP
07C0
0FC0
0FC0
0E00
0E00
0E00
0E00
0E00
0E00
0E00
0E00
0E00
0E00
0E00
0E00
0E00
0E00
0E00
7F80
FF80
CE00
CE00
FC00
7800
ENDCHAR
STARTCHAR uni0287
ENCODING 647
SWIDTH 434 0
DWIDTH 10 0
BBX 9 16 1 0
BITMAP
F800
FC00
FE00
1E00
1E00
1E00
1E00
1E00
1E00
1E00
FF80
FF80
FE00
1C00
1C00
1C00
ENDCHAR
STARTCHAR uni0288
ENCODING 648
SWIDTH 434 0
DWIDTH 10 0
BBX 9 22 0 -6
BITMAP
1C00
1C00
1C00
3F80
FF80
FF80
3C00
3C00
3C00
3C00
3C00
3C00
3C00
3C00
3C00
3C00
3C00
3C00
3C00
3F80
1F80
0F80
ENDCHAR
STARTCHAR uni0289
ENCODING 649
SWIDTH 657 0
DWIDTH 16 0
BBX 16 13 0 0
BITMAP
383C
383C
383C
383C
383C
FFFF
FFFF
383C
383C
3C3C
3FFC
1FFC
0F9C
ENDCHAR
STARTCHAR uni028A
ENCODING 650
SWIDTH 647 0
DWIDTH 16 0
BBX 14 13 1 0
BITMAP
FCFC
FCFC
FCFC
3870
7038
F038
E03C
E03C
F03C
F878
7FF8
3FF0
0FC0
ENDCHAR
STARTCHAR uni028B
ENCODING 651
SWIDTH 669 0
DWIDTH 16 0
BBX 12 13 2 0
BITMAP
E3E0
E3F0
E3F0
E070
E070
E070
E070
E070
F070
F0F0
7FE0
7FE0
1F80
ENDCHAR
STARTCHAR uni028C
ENCODING 652
SWIDTH 568 0
DWIDTH 14 0
BBX 14 13 0 0
BITMAP
0780
0780
0FC0
0FC0
1FE0
1CE0
1CE0
3CF0
3870
7878
7878
7038
F03C
ENDCHAR
STARTCHAR uni028D
ENCODING 653
SWIDTH 855 0
DWIDTH 21 0
BBX 21 13 0 0
BITMAP
0F0780
0F0780
1F8FC0
1F8FC0
1F8FC0
3D8DE0
3DDDE0
39DCE0
39DCE0
78D8F0
78F8F0
70F870
F0F878
ENDCHAR
STARTCHAR uni028E
ENCODING 654
SWIDTH 568 0
DWIDTH 14 0
BBX 14 18 0 0
BITMAP
0078
01F8
03F8
03C0
0780
0780
0780
0F80
0FC0
1FC0
1FE0
1CE0
3CF0
3CF0
7870
7878
7878
F03C
ENDCHAR
STARTCHAR uni028F
ENCODING 655
SWIDTH 568 0
DWIDTH 14 0
BBX 14 13 0 0
BITMAP
F03C
7878
3CF0
3CF0
1FE0
1FC0
0FC0
0780
0780
0780
0780
0780
0780
ENDCHAR
STARTCHAR uni0290
ENCODING 656
SWIDTH 487 0
DWIDTH 12 0
BBX 13 19 1 -6
BITMAP
FFC0
FFC0
FFC0
0780
0700
0F00
1E00
3C00
7800
7800
FFC0
FFC0
FFC0
01C0
01C0
01C0
01F8
00F8
0078
ENDCHAR
STARTCHAR uni0291
ENCODING 657
SWIDTH 575 0
DWIDTH 14 0
BBX 13 15 1 -2
BITMAP
FFC0
FFC0
FFC0
0780
0F00
0F00
1EF0
3DF8
7BB8
7338
FFF8
FFF0
FFE0
0C00
0C00
ENDCHAR
STARTCHAR uni0292
ENCODING 658
SWIDTH 581 0
DWIDTH 14 0
BBX 12 19 1 -6
BITMAP
FFF0
FFF0
FFE0
03C0
0780
0F00
1E00
3F00
3FC0
3FE0
01F0
00F0
00F0
00F0
00F0
81F0
FFE0
FFC0
7F00
ENDCHAR
STARTCHAR uni0293
ENCODING 659
SWIDTH 581 0
DWIDTH 14 0
BBX 13 19 0 -6
BITMAP
7FF8
7FF8
7FF0
01E0
03C0
0780
0F00
1F80
1FE0
07F0
00F8
0078
3E78
7F78
E3F8
E1F0
FFF0
7FF8
3F90
ENDCHAR
STARTCHAR uni0294
ENCODING 660
SWIDTH 479 0
DWIDTH 12 0
BBX 11 18 0 0
BITMAP
3F00
FFC0
7FE0
61E0
00E0
00E0
01E0
03C0
0FC0
1F80
1E00
1E00
1E00
1E00
1E00
1E00
1E00
1E00
ENDCHAR
STARTCHAR uni0295
ENCODING 661
SWIDTH 479 0
DWIDTH 12 0
BBX 11 18 1 0
BITMAP
1F00
7FE0
FFC0
F0C0
E000
E000
F000
F800
7C00
3F00
0F00
0F00
0F00
0F00
0F00
0F00
0F00
0F00
ENDCHAR
STARTCHAR uni0296
ENCODING 662
SWIDTH 479 0
DWIDTH 12 0
BBX 11 18 0 0
BITMAP
1E00
1E00
1E00
1E00
1E00
1E00
1E00
1E00
1F80
0FC0
03E0
01E0
00E0
00E0
61E0
7FE0
FFC0
3F00
ENDCHAR
STARTCHAR uni0297
ENCODING 663
SWIDTH 514 0
DWIDTH 12 0
BBX 10 19 1 -6
BITMAP
0F80
3FC0
3FC0
7800
7000
F000
F000
F000
F000
F000
F000
F000
F000
F000
7000
7840
7FC0
3FC0
0F80
ENDCHAR
STARTCHAR uni0298
ENCODING 664
SWIDTH 795 0
DWIDTH 19 0
BBX 17 17 1 0
BITMAP
07F000
1FFC00
3FFE00
7C1E00
780F00
780F00
700700
F1C780
F1E780
F1E780
71C700
780F00
780F00
3C1F00
3FFE00
1FFC00
07F000
ENDCHAR
STARTCHAR uni0299
ENCODING 665
SWIDTH 639 0
DWIDTH 15 0
BBX 12 13 2 0
BITMAP
FFC0
FFE0
FFF0
E0F0
E0F0
FFE0
FFC0
E1F0
E0F0
E0F0
E3F0
FFE0
FFC0
ENDCHAR
STARTCHAR uni029A
ENCODING 666
SWIDTH 628 0
DWIDTH 15 0
BBX 13 13 1 0
BITMAP
1F80
7FE0
FFF0
F0F0
F078
7E78
3E78
FC78
E078
F0F0
FFF0
7FE0
1F80
ENDCHAR
STARTCHAR uni029B
ENCODING 667
SWIDTH 599 0
DWIDTH 14 0
BBX 14 18 1 0
BITMAP
003C
007C
007C
0070
0060
0FE0
3FE0
7FE0
7820
F000
F000
F3F0
F3F0
F0F0
78F0
7FF0
3FF0
1FC0
ENDCHAR
STARTCHAR uni029C
ENCODING 668
SWIDTH 662 0
DWIDTH 16 0
BBX 12 13 2 0
BITMAP
E070
E070
E070
E070
E070
FFF0
FFF0
FFF0
E070
E070
E070
E070
E070
ENDCHAR
STARTCHAR uni029D
ENCODING 669
SWIDTH 305 0
DWIDTH 7 0
BBX 9 24 -2 -6
BITMAP
0E00
0E00
0E00
0400
0000
0E00
0E00
0E00
0E00
0E00
0E00
0E00
0E00
0E00
0E00
0E00
0E00
0E00
7F80
FF80
CE00
CE00
FC00
7800
ENDCHAR
STARTCHAR uni029E
ENCODING 670
SWIDTH 620 0
DWIDTH 15 0
BBX 13 19 0 -6
BITMAP
F838
7838
3C38
1E38
1E78
0FF8
07F8
07B8
07B8
0F38
1E38
3C38
7838
0038
0038
0038
0038
0038
0038
ENDCHAR
STARTCHAR uni029F
ENCODING 671
SWIDTH 478 0
DWIDTH 11 0
BBX 8 13 2 0
BITMAP
E0
E0
E0
E0
E0
E0
E0
E0
E0
E0
FF
FF
FF
ENDCHAR
STARTCHAR uni02A0
ENCODING 672
SWIDTH 632 0
DWIDTH 15 0
BBX 15 24 1 -6
BITMAP
003E
007E
007E
0070
0070
1E70
3F70
7FF0
F8F0
F070
F070
F070
F070
F070
F0F0
7FF0
3F70
1E70
0070
0070
0070
0070
0070
0070
ENDCHAR
STARTCHAR uni02A1
ENCODING 673
SWIDTH 479 0
DWIDTH 12 0
BBX 11 18 0 0
BITMAP
3F00
FFC0
7FE0
61E0
00E0
00E0
01E0
03C0
0FC0
1F80
1E00
1E00
7F80
7F80
1E00
1E00
1E00
1E00
ENDCHAR
STARTCHAR uni02A2
ENCODING 674
SWIDTH 479 0
DWIDTH 12 0
BBX 11 18 1 0
BITMAP
1F00
7FE0
FFC0
F0C0
E000
E000
F000
F800
7C00
3F00
0F00
0F00
7FC0
7FC0
0F00
0F00
0F00
0F00
ENDCHAR
STARTCHAR uni02A3
ENCODING 675
SWIDTH 1005 0
DWIDTH 24 0
BBX 22 18 1 0
BITMAP
007000
007000
007000
007000
007000
1E7FFC
3FFFFC
7FFFFC
F8F078
F07070
F070F0
F071E0
F071C0
F073C0
F8F780
7FFFFC
3F7FFC
1E7FFC
ENDCHAR
STARTCHAR uni02A4
ENCODING 676
SWIDTH 1066 0
DWIDTH 26 0
BBX 24 24 1 -6
BITMAP
007000
007000
007000
007000
007000
1F7FFE
3FFFFE
7FFFFE
F8F03C
F07078
F070F0
F071E0
F073F0
F073FC
F8F3FE
7FF01F
3FF00F
1E300F
00000F
00000F
00181F
001FFE
001FFC
0007F0
ENDCHAR
STARTCHAR uni02A5
ENCODING 677
SWIDTH 1092 0
DWIDTH 26 0
BBX 25 20 1 -2
BITMAP
00700000
00700000
00700000
00700000
00700000
1E7FFC00
3FFFFC00
7FFFFC00
F8F07800
F0707000
F070F000
F071EF00
F073DF80
F073BB80
F8F7B380
7FFFFF80
3F7FFF00
1E7FFE00
0000C000
0000C000
ENDCHAR
STARTCHAR uni02A6
ENCODING 678
SWIDTH 815 0
DWIDTH 20 0
BBX 18 16 1 0
BITMAP
380000
380000
380000
7FFF00
FFFFC0
FFFF80
78F080
78F800
787E00
783F80
780FC0
7803C0
7803C0
3FFFC0
3FFF80
1FFE00
ENDCHAR
STARTCHAR uni02A7
ENCODING 679
SWIDTH 628 0
DWIDTH 15 0
BBX 15 24 1 -6
BITMAP
003E
007E
387E
3870
3870
7FF0
FFF0
FFF0
7870
7870
7870
7870
7870
7870
7870
7FF0
3FF0
1F70
0070
0070
00F0
03F0
03E0
03C0
ENDCHAR
STARTCHAR uni02A8
ENCODING 680
SWIDTH 919 0
DWIDTH 22 0
BBX 20 16 1 0
BITMAP
380000
380000
380000
7F07E0
FF1FE0
FF3FE0
787C20
787800
787800
787BE0
787FF0
787E70
787C30
7FFFF0
3FDFF0
1F0FC0
ENDCHAR
STARTCHAR uni02A9
ENCODING 681
SWIDTH 961 0
DWIDTH 23 0
BBX 21 24 0 -6
BITMAP
0FC000
1FC000
1FC000
3C0000
3C0000
7FF3E0
FFF7F0
FFFFF8
3C7C78
3C7838
3C7838
3C7838
3C7838
3C7838
3C7838
3C7838
3C7838
3C7838
000038
000038
000078
0001F8
0001F0
0001E0
ENDCHAR
STARTCHAR uni02AA
ENCODING 682
SWIDTH 720 0
DWIDTH 17 0
BBX 14 18 2 0
BITMAP
E000
E000
E000
E000
E000
E1F8
E7FC
E7F8
E700
E780
E7E0
E3F8
E0FC
E03C
F01C
FFFC
FFF8
EFF0
ENDCHAR
STARTCHAR uni02AB
ENCODING 683
SWIDTH 678 0
DWIDTH 16 0
BBX 13 18 2 0
BITMAP
E000
E000
E000
E000
E000
FFF8
FFF8
FFF8
E070
E0F0
E1E0
E3C0
E380
E780
EF00
FFF8
FFF8
FFF8
ENDCHAR
STARTCHAR uni02AC
ENCODING 684
SWIDTH 536 0
DWIDTH 13 0
BBX 13 17 0 0
BITMAP
C718
E738
6530
6DB0
6DF0
3DE0
38E0
38E0
0000
C718
E738
6530
6DB0
6DF0
3DE0
38E0
38E0
ENDCHAR
STARTCHAR uni02AD
ENCODING 685
SWIDTH 605 0
DWIDTH 15 0
BBX 11 17 2 0
BITMAP
FFE0
FFE0
FFE0
E0E0
E0E0
E0E0
0000
0000
0000
0000
0000
FFE0
FFE0
FFE0
E0E0
E0E0
E0E0
ENDCHAR
STARTCHAR uni02AE
ENCODING 686
SWIDTH 657 0
DWIDTH 16 0
BBX 14 19 0 -6
BITMAP
F03C
F83C
F83C
383C
383C
383C
383C
383C
3C3C
3C7C
3FFC
1FDC
0FBC
003C
003C
003C
003C
003C
003C
ENDCHAR
STARTCHAR uni02AF
ENCODING 687
SWIDTH 657 0
DWIDTH 16 0
BBX 17 19 0 -6
BITMAP
F03C00
F83C00
F83C00
383C00
383C00
383C00
383C00
383C00
3C3C00
3C7C00
3FFC00
1FDC00
0FBC00
003C00
003C00
001C00
001F80
001F80
000F80
ENDCHAR
STARTCHAR uni02B0
ENCODING 688
SWIDTH 546 0
DWIDTH 13 0
BBX 9 13 2 5
BITMAP
E000
E000
E000
E000
FF00
FF80
E380
E380
E380
E380
E380
E380
E380
ENDCHAR
STARTCHAR uni02B1
ENCODING 689
SWIDTH 546 0
DWIDTH 13 0
BBX 9 13 2 5
BITMAP
7800
F800
E000
E000
EF00
FF80
E380
E380
E380
E380
E380
E380
E380
ENDCHAR
STARTCHAR uni02B2
ENCODING 690
SWIDTH 269 0
DWIDTH 6 0
BBX 6 18 -1 0
BITMAP
18
1C
00
00
1C
1C
1C
1C
1C
1C
1C
1C
1C
1C
1C
38
F8
F0
ENDCHAR
STARTCHAR uni02B3
ENCODING 691
SWIDTH 378 0
DWIDTH 9 0
BBX 6 9 2 5
BITMAP
CC
DC
FC
E0
E0
E0
E0
E0
E0
ENDCHAR
STARTCHAR uni02B4
ENCODING 692
SWIDTH 379 0
DWIDTH 9 0
BBX 6 9 1 5
BITMAP
1C
1C
1C
1C
1C
1C
FC
FC
CC
ENDCHAR
STARTCHAR uni02B5
ENCODING 693
SWIDTH 375 0
DWIDTH 9 0
BBX 8 14 1 0
BITMAP
1C
1C
1C
1C
1C
1C
FC
FC
DC
1C
1C
1C
0F
07
ENDCHAR
STARTCHAR uni02B6
ENCODING 694
SWIDTH 502 0
DWIDTH 12 0
BBX 9 9 2 5
BITMAP
E380
E700
EE00
FE00
FF00
E380
E380
FF00
FE00
ENDCHAR
STARTCHAR uni02B7
ENCODING 695
SWIDTH 693 0
DWIDTH 17 0
BBX 15 9 1 5
BITMAP
C386
E7CE
E6CE
66CC
76DC
7CFC
3C78
3C78
3C78
ENDCHAR
STARTCHAR uni02B8
ENCODING 696
SWIDTH 466 0
DWIDTH 11 0
BBX 11 14 0 0
BITMAP
E0E0
71C0
71C0
3180
3B80
1B80
1B00
1F00
0E00
0E00
0E00
1C00
7C00
7000
ENDCHAR
STARTCHAR uni02B9
ENCODING 697
SWIDTH 216 0
DWIDTH 5 0
BBX 5 6 0 11
BITMAP
78
70
70
70
60
E0
ENDCHAR
STARTCHAR uni02BA
ENCODING 698
SWIDTH 444 0
DWIDTH 11 0
BBX 11 6 0 11
BITMAP
79E0
79C0
71C0
73C0
7380
E380
ENDCHAR
STARTCHAR uni02BB
ENCODING 699
SWIDTH 216 0
DWIDTH 5 0
BBX 5 6 0 11
BITMAP
38
30
70
70
70
F0
ENDCHAR
STARTCHAR uni02BC
ENCODING 700
SWIDTH 334 0
DWIDTH 8 0
BBX 5 6 2 12
BITMAP
78
78
70
70
60
E0
ENDCHAR
STARTCHAR uni02BD
ENCODING 701
SWIDTH 215 0
DWIDTH 5 0
BBX 5 6 0 11
BITMAP
F0
70
70
70
30
38
ENDCHAR
STARTCHAR uni02BE
ENCODING 702
SWIDTH 0 0
DWIDTH 0 0
BBX 2 6 -1 14
BITMAP
80
C0
40
40
C0
80
ENDCHAR
STARTCHAR uni02BF
ENCODING 703
SWIDTH 0 0
DWIDTH 0 0
BBX 2 6 -1 14
BITMAP
40
C0
80
80
C0
40
ENDCHAR
STARTCHAR uni02C0
ENCODING 704
SWIDTH 316 0
DWIDTH 8 0
BBX 6 7 1 11
BITMAP
F8
FC
1C
1C
3C
78
60
ENDCHAR
STARTCHAR uni02C1
ENCODING 705
SWIDTH 316 0
DWIDTH 8 0
BBX 7 7 0 11
BITMAP
3E
7E
E2
E0
70
3C
1C
ENDCHAR
STARTCHAR uni02C2
ENCODING 706
SWIDTH 571 0
DWIDTH 14 0
BBX 12 13 1 0
BITMAP
0010
0070
01F0
07E0
1F00
7C00
F000
FC00
3F00
0FC0
03F0
0070
0010
ENDCHAR
STARTCHAR uni02C3
ENCODING 707
SWIDTH 571 0
DWIDTH 14 0
BBX 12 13 1 0
BITMAP
8000
E000
F800
7E00
1F80
03E0
00F0
03F0
0FC0
3F00
FC00
E000
8000
ENDCHAR
STARTCHAR uni02C4
ENCODING 708
SWIDTH 571 0
DWIDTH 14 0
BBX 12 11 1 1
BITMAP
0600
0700
0F00
0F80
1D80
39C0
38C0
70E0
70E0
E070
E070
ENDCHAR
STARTCHAR uni02C5
ENCODING 709
SWIDTH 571 0
DWIDTH 14 0
BBX 12 11 1 1
BITMAP
E070
E070
70E0
70E0
38C0
39C0
1D80
0F80
0F00
0700
0600
ENDCHAR
STARTCHAR circumflex
ENCODING 710
SWIDTH 606 0
DWIDTH 15 0
BBX 11 4 2 15
BITMAP
1F00
3F80
7BC0
E1E0
ENDCHAR
STARTCHAR caron
ENCODING 711
SWIDTH 606 0
DWIDTH 15 0
BBX 11 4 2 15
BITMAP
E1E0
7BC0
3F80
1F00
ENDCHAR
STARTCHAR uni02C8
ENCODING 712
SWIDTH 0 0
DWIDTH 0 0
BBX 2 4 -1 14
BITMAP
C0
C0
C0
C0
ENDCHAR
STARTCHAR uni02C9
ENCODING 713
SWIDTH 606 0
DWIDTH 15 0
BBX 9 2 3 15
BITMAP
FF80
FF80
ENDCHAR
STARTCHAR uni02CA
ENCODING 714
SWIDTH 0 0
DWIDTH 0 0
BBX 6 4 -1 15
BITMAP
3C
78
70
E0
ENDCHAR
STARTCHAR uni02CB
ENCODING 715
SWIDTH 0 0
DWIDTH 0 0
BBX 7 4 -5 15
BITMAP
F0
78
3C
0E
ENDCHAR
STARTCHAR uni02CC
ENCODING 716
SWIDTH 0 0
DWIDTH 0 0
BBX 2 4 -1 -5
BITMAP
C0
C0
C0
C0
ENDCHAR
STARTCHAR uni02CD
ENCODING 717
SWIDTH 0 0
DWIDTH 0 0
BBX 8 2 -4 -4
BITMAP
FF
FF
ENDCHAR
STARTCHAR uni02CE
ENCODING 718
SWIDTH 0 0
DWIDTH 0 0
BBX 7 4 -3 -5
BITMAP
F0
78
3C
0E
ENDCHAR
STARTCHAR uni02CF
ENCODING 719
SWIDTH 0 0
DWIDTH 0 0
BBX 6 4 -3 -5
BITMAP
3C
38
70
E0
ENDCHAR
STARTCHAR uni02D0
ENCODING 720
SWIDTH 0 0
DWIDTH 0 0
BBX 4 13 -2 0
BITMAP
F0
60
40
00
00
00
00
00
00
00
40
60
F0
ENDCHAR
STARTCHAR uni02D1
ENCODING 721
SWIDTH 0 0
DWIDTH 0 0
BBX 4 3 -2 10
BITMAP
F0
60
40
ENDCHAR
STARTCHAR uni02D2
ENCODING 722
SWIDTH 0 0
DWIDTH 0 0
BBX 2 6 -1 6
BITMAP
80
C0
40
40
C0
80
ENDCHAR
STARTCHAR uni02D3
ENCODING 723
SWIDTH 0 0
DWIDTH 0 0
BBX 2 6 -1 6
BITMAP
40
C0
80
80
C0
40
ENDCHAR
STARTCHAR uni02D4
ENCODING 724
SWIDTH 0 0
DWIDTH 0 0
BBX 6 4 -3 -5
BITMAP
30
30
30
FC
ENDCHAR
STARTCHAR uni02D5
ENCODING 725
SWIDTH 0 0
DWIDTH 0 0
BBX 6 4 -3 -5
BITMAP
FC
30
30
30
ENDCHAR
STARTCHAR uni02D6
ENCODING 726
SWIDTH 0 0
DWIDTH 0 0
BBX 6 5 -3 -5
BITMAP
30
30
FC
30
30
ENDCHAR
STARTCHAR uni02D7
ENCODING 727
SWIDTH 0 0
DWIDTH 0 0
BBX 6 1 -3 -3
BITMAP
FC
ENDCHAR
STARTCHAR breve
ENCODING 728
SWIDTH 606 0
DWIDTH 15 0
BBX 9 4 3 15
BITMAP
C180
FF80
7F00
3E00
ENDCHAR
STARTCHAR dotaccent
ENCODING 729
SWIDTH 305 0
DWIDTH 7 0
BBX 4 3 2 15
BITMAP
E0
F0
E0
ENDCHAR
STARTCHAR ring
ENCODING 730
SWIDTH 577 0
DWIDTH 14 0
BBX 6 6 4 15
BITMAP
78
FC
CC
CC
FC
78
ENDCHAR
STARTCHAR ogonek
ENCODING 731
SWIDTH 206 0
DWIDTH 5 0
BBX 5 6 0 -6
BITMAP
30
60
E0
E0
F8
78
ENDCHAR
STARTCHAR tilde
ENCODING 732
SWIDTH 606 0
DWIDTH 15 0
BBX 9 4 3 15
BITMAP
7080
FD80
DF80
8700
ENDCHAR
STARTCHAR hungarumlaut
ENCODING 733
SWIDTH 587 0
DWIDTH 14 0
BBX 10 4 2 15
BITMAP
3BC0
7B80
6700
C600
ENDCHAR
STARTCHAR uni02DE
ENCODING 734
SWIDTH 0 0
DWIDTH 0 0
BBX 8 6 -4 4
BITMAP
30
F0
70
3A
3F
1E
ENDCHAR
STARTCHAR uni02DF
ENCODING 735
SWIDTH 0 0
DWIDTH 0 0
BBX 4 5 -2 14
BITMAP
90
F0
60
F0
90
ENDCHAR
STARTCHAR uni02E0
ENCODING 736
SWIDTH 465 0
DWIDTH 11 0
BBX 11 14 0 0
BITMAP
E0E0
71C0
71C0
3B80
3B80
1B00
1F00
0E00
0E00
1F00
1B00
1B00
1F00
0E00
ENDCHAR
STARTCHAR uni02E1
ENCODING 737
SWIDTH 271 0
DWIDTH 7 0
BBX 3 13 2 5
BITMAP
E0
E0
E0
E0
E0
E0
E0
E0
E0
E0
E0
E0
E0
ENDCHAR
STARTCHAR uni02E2
ENCODING 738
SWIDTH 423 0
DWIDTH 10 0
BBX 8 9 1 5
BITMAP
3E
FF
E2
F8
7E
0F
87
FF
FE
ENDCHAR
STARTCHAR uni02E3
ENCODING 739
SWIDTH 486 0
DWIDTH 12 0
BBX 10 9 1 5
BITMAP
E1C0
7380
3F00
3F00
1E00
3F00
7F80
7380
E1C0
ENDCHAR
STARTCHAR uni02E4
ENCODING 740
SWIDTH 408 0
DWIDTH 10 0
BBX 8 13 1 5
BITMAP
3E
7F
F3
E0
E0
E0
78
3C
1C
1C
1C
1C
1C
ENDCHAR
STARTCHAR uni02E5
ENCODING 741
SWIDTH 417 0
DWIDTH 10 0
BBX 6 17 2 0
BITMAP
FC
FC
04
04
04
04
04
04
04
04
04
04
04
04
04
04
04
ENDCHAR
STARTCHAR uni02E6
ENCODING 742
SWIDTH 417 0
DWIDTH 10 0
BBX 6 17 2 0
BITMAP
04
04
04
04
FC
FC
04
04
04
04
04
04
04
04
04
04
04
ENDCHAR
STARTCHAR uni02E7
ENCODING 743
SWIDTH 417 0
DWIDTH 10 0
BBX 6 17 2 0
BITMAP
04
04
04
04
04
04
04
FC
FC
04
04
04
04
04
04
04
04
ENDCHAR
STARTCHAR uni02E8
ENCODING 744
SWIDTH 417 0
DWIDTH 10 0
BBX 6 17 2 0
BITMAP
04
04
04
04
04
04
04
04
04
04
04
FC
FC
04
04
04
04
ENDCHAR
STARTCHAR uni02E9
ENCODING 745
SWIDTH 417 0
DWIDTH 10 0
BBX 6 17 2 0
BITMAP
04
04
04
04
04
04
04
04
04
04
04
04
04
04
04
FC
FC
ENDCHAR
STARTCHAR uni02EA
ENCODING 746
SWIDTH 417 0
DWIDTH 10 0
BBX 6 17 2 0
BITMAP
80
80
80
80
80
80
80
80
80
80
80
80
80
80
80
FC
FC
ENDCHAR
STARTCHAR uni02EB
ENCODING 747
SWIDTH 417 0
DWIDTH 10 0
BBX 6 17 2 0
BITMAP
80
80
80
80
80
80
80
FC
FC
80
80
80
80
80
80
80
80
ENDCHAR
STARTCHAR uni02EC
ENCODING 748
SWIDTH 0 0
DWIDTH 0 0
BBX 10 4 -5 -5
BITMAP
E1C0
7B80
3F80
1F00
ENDCHAR
STARTCHAR uni02ED
ENCODING 749
SWIDTH 0 0
DWIDTH 0 0
BBX 10 5 -5 14
BITMAP
FFC0
FFC0
0000
FFC0
FFC0
ENDCHAR
STARTCHAR uni02EE
ENCODING 750
SWIDTH 444 0
DWIDTH 11 0
BBX 11 6 0 11
BITMAP
79E0
79C0
71C0
73C0
7380
E380
ENDCHAR
STARTCHAR uni02EF
ENCODING 751
SWIDTH 0 0
DWIDTH 0 0
BBX 8 5 -4 -6
BITMAP
C3
66
3C
3C
18
ENDCHAR
STARTCHAR uni02F0
ENCODING 752
SWIDTH 0 0
DWIDTH 0 0
BBX 8 5 -4 -6
BITMAP
18
3C
3C
66
C3
ENDCHAR
STARTCHAR uni02F1
ENCODING 753
SWIDTH 0 0
DWIDTH 0 0
BBX 6 7 -3 -6
BITMAP
04
1C
70
C0
78
1C
04
ENDCHAR
STARTCHAR uni02F2
ENCODING 754
SWIDTH 0 0
DWIDTH 0 0
BBX 6 7 -3 -6
BITMAP
80
E0
38
0C
38
E0
80
ENDCHAR
STARTCHAR uni02F3
ENCODING 755
SWIDTH 333 0
DWIDTH 8 0
BBX 6 6 1 -7
BITMAP
78
FC
CC
CC
FC
78
ENDCHAR
STARTCHAR uni02F4
ENCODING 756
SWIDTH 0 0
DWIDTH 0 0
BBX 7 4 -3 7
BITMAP
F0
78
3C
0E
ENDCHAR
STARTCHAR uni02F5
ENCODING 757
SWIDTH 0 0
DWIDTH 0 0
BBX 10 4 -5 7
BITMAP
3BC0
7380
6700
CE00
ENDCHAR
STARTCHAR uni02F6
ENCODING 758
SWIDTH 0 0
DWIDTH 0 0
BBX 10 4 -5 7
BITMAP
F700
7780
3980
18C0
ENDCHAR
STARTCHAR uni02F7
ENCODING 759
SWIDTH 0 0
DWIDTH 0 0
BBX 10 4 -5 -5
BITMAP
38C0
7FC0
EFC0
C380
ENDCHAR
STARTCHAR uni02F8
ENCODING 760
SWIDTH 0 0
DWIDTH 0 0
BBX 4 13 -2 5
BITMAP
70
F0
F0
70
00
00
00
00
00
70
F0
F0
70
ENDCHAR
STARTCHAR uni02F9
ENCODING 761
SWIDTH 0 0
DWIDTH 0 0
BBX 4 4 -2 12
BITMAP
F0
80
80
80
ENDCHAR
STARTCHAR uni02FA
ENCODING 762
SWIDTH 0 0
DWIDTH 0 0
BBX 4 4 -2 12
BITMAP
F0
10
10
10
ENDCHAR
STARTCHAR uni02FB
ENCODING 763
SWIDTH 0 0
DWIDTH 0 0
BBX 4 4 -2 6
BITMAP
80
80
80
F0
ENDCHAR
STARTCHAR uni02FC
ENCODING 764
SWIDTH 0 0
DWIDTH 0 0
BBX 4 4 -2 6
BITMAP
10
10
10
F0
ENDCHAR
STARTCHAR uni02FD
ENCODING 765
SWIDTH 0 0
DWIDTH 0 0
BBX 10 4 -5 -5
BITMAP
8040
8040
FFC0
FFC0
ENDCHAR
STARTCHAR uni02FE
ENCODING 766
SWIDTH 0 0
DWIDTH 0 0
BBX 10 4 -5 -5
BITMAP
8000
8000
FFC0
FFC0
ENDCHAR
STARTCHAR uni02FF
ENCODING 767
SWIDTH 0 0
DWIDTH 0 0
BBX 10 7 -5 -5
BITMAP
0400
1800
6000
FFC0
E000
3000
0C00
ENDCHAR
STARTCHAR gravecomb
ENCODING 768
SWIDTH 0 0
DWIDTH 0 0
BBX 6 4 -11 15
BITMAP
F0
78
38
1C
ENDCHAR
STARTCHAR acutecomb
ENCODING 769
SWIDTH 0 0
DWIDTH 0 0
BBX 6 4 -9 15
BITMAP
3C
78
70
E0
ENDCHAR
STARTCHAR uni0302
ENCODING 770
SWIDTH 0 0
DWIDTH 0 0
BBX 10 4 -5 15
BITMAP
1F00
3F00
7380
E1C0
ENDCHAR
STARTCHAR tildecomb
ENCODING 771
SWIDTH 0 0
DWIDTH 0 0
BBX 10 4 -12 15
BITMAP
70C0
FD80
DF80
C700
ENDCHAR
STARTCHAR uni0304
ENCODING 772
SWIDTH 0 0
DWIDTH 0 0
BBX 8 2 -4 15
BITMAP
FF
FF
ENDCHAR
STARTCHAR uni0305
ENCODING 773
SWIDTH 0 0
DWIDTH 0 0
BBX 10 2 -5 19
BITMAP
FFC0
FFC0
ENDCHAR
STARTCHAR uni0306
ENCODING 774
SWIDTH 0 0
DWIDTH 0 0
BBX 9 4 -4 15
BITMAP
C180
FF80
FF00
3E00
ENDCHAR
STARTCHAR uni0307
ENCODING 775
SWIDTH 0 0
DWIDTH 0 0
BBX 4 3 -2 15
BITMAP
F0
F0
E0
ENDCHAR
STARTCHAR uni0308
ENCODING 776
SWIDTH 0 0
DWIDTH 0 0
BBX 8 3 -4 15
BITMAP
E7
E7
E7
ENDCHAR
STARTCHAR hookabovecomb
ENCODING 777
SWIDTH 0 0
DWIDTH 0 0
BBX 5 6 -9 14
BITMAP
F0
F8
38
38
70
60
ENDCHAR
STARTCHAR uni030A
ENCODING 778
SWIDTH 0 0
DWIDTH 0 0
BBX 6 6 -3 15
BITMAP
78
FC
CC
CC
FC
78
ENDCHAR
STARTCHAR uni030B
ENCODING 779
SWIDTH 0 0
DWIDTH 0 0
BBX 10 4 -5 15
BITMAP
3BC0
7380
6700
CE00
ENDCHAR
STARTCHAR uni030C
ENCODING 780
SWIDTH 0 0
DWIDTH 0 0
BBX 10 4 -5 15
BITMAP
E1C0
7B80
3F80
1F00
ENDCHAR
STARTCHAR uni030D
ENCODING 781
SWIDTH 0 0
DWIDTH 0 0
BBX 2 4 -1 14
BITMAP
C0
C0
C0
C0
ENDCHAR
STARTCHAR uni030E
ENCODING 782
SWIDTH 0 0
DWIDTH 0 0
BBX 6 4 -3 14
BITMAP
CC
CC
CC
CC
ENDCHAR
STARTCHAR uni030F
ENCODING 783
SWIDTH 0 0
DWIDTH 0 0
BBX 10 4 -13 15
BITMAP
EF00
F700
7380
19C0
ENDCHAR
STARTCHAR uni0310
ENCODING 784
SWIDTH 0 0
DWIDTH 0 0
BBX 8 6 -4 15
BITMAP
18
38
DB
C3
FE
3C
ENDCHAR
STARTCHAR uni0311
ENCODING 785
SWIDTH 0 0
DWIDTH 0 0
BBX 10 4 -5 15
BITMAP
1E00
7F80
7F80
E1C0
ENDCHAR
STARTCHAR uni0312
ENCODING 786
SWIDTH 0 0
DWIDTH 0 0
BBX 4 6 -2 11
BITMAP
70
70
70
E0
E0
E0
ENDCHAR
STARTCHAR uni0313
ENCODING 787
SWIDTH 0 0
DWIDTH 0 0
BBX 4 6 -2 11
BITMAP
70
70
F0
E0
E0
C0
ENDCHAR
STARTCHAR uni0314
ENCODING 788
SWIDTH 0 0
DWIDTH 0 0
BBX 4 6 -2 11
BITMAP
E0
E0
E0
70
70
70
ENDCHAR
STARTCHAR uni0315
ENCODING 789
SWIDTH 0 0
DWIDTH 0 0
BBX 4 6 -2 11
BITMAP
70
70
F0
E0
E0
C0
ENDCHAR
STARTCHAR uni0316
ENCODING 790
SWIDTH 0 0
DWIDTH 0 0
BBX 7 4 -3 -5
BITMAP
F0
78
3C
0E
ENDCHAR
STARTCHAR uni0317
ENCODING 791
SWIDTH 0 0
DWIDTH 0 0
BBX 6 4 -3 -5
BITMAP
3C
38
70
E0
ENDCHAR
STARTCHAR uni0318
ENCODING 792
SWIDTH 0 0
DWIDTH 0 0
BBX 4 5 -2 -6
BITMAP
10
10
F0
10
10
ENDCHAR
STARTCHAR uni0319
ENCODING 793
SWIDTH 0 0
DWIDTH 0 0
BBX 4 5 -2 -6
BITMAP
80
80
F0
80
80
ENDCHAR
STARTCHAR uni031A
ENCODING 794
SWIDTH 0 0
DWIDTH 0 0
BBX 8 5 -4 14
BITMAP
FF
01
01
01
01
ENDCHAR
STARTCHAR uni031B
ENCODING 795
SWIDTH 0 0
DWIDTH 0 0
BBX 6 5 -2 13
BITMAP
3C
38
78
F0
C0
ENDCHAR
STARTCHAR uni031C
ENCODING 796
SWIDTH 0 0
DWIDTH 0 0
BBX 2 5 -1 -5
BITMAP
40
C0
80
C0
40
ENDCHAR
STARTCHAR uni031D
ENCODING 797
SWIDTH 0 0
DWIDTH 0 0
BBX 6 4 -3 -5
BITMAP
30
30
30
FC
ENDCHAR
STARTCHAR uni031E
ENCODING 798
SWIDTH 0 0
DWIDTH 0 0
BBX 6 4 -3 -5
BITMAP
FC
30
30
30
ENDCHAR
STARTCHAR uni031F
ENCODING 799
SWIDTH 0 0
DWIDTH 0 0
BBX 6 5 -3 -5
BITMAP
30
30
FC
30
30
ENDCHAR
STARTCHAR uni0320
ENCODING 800
SWIDTH 0 0
DWIDTH 0 0
BBX 8 2 -4 -4
BITMAP
FF
FF
ENDCHAR
STARTCHAR uni0321
ENCODING 801
SWIDTH 0 0
DWIDTH 0 0
BBX 5 7 -5 -6
BITMAP
38
38
38
38
F8
F8
F0
ENDCHAR
STARTCHAR uni0322
ENCODING 802
SWIDTH 0 0
DWIDTH 0 0
BBX 5 7 0 -6
BITMAP
E0
E0
E0
E0
F8
F8
78
ENDCHAR
STARTCHAR dotbelowcomb
ENCODING 803
SWIDTH 0 0
DWIDTH 0 0
BBX 3 4 -9 -5
BITMAP
40
E0
E0
E0
ENDCHAR
STARTCHAR uni0324
ENCODING 804
SWIDTH 0 0
DWIDTH 0 0
BBX 8 3 -4 -5
BITMAP
E7
E7
E7
ENDCHAR
STARTCHAR uni0325
ENCODING 805
SWIDTH 0 0
DWIDTH 0 0
BBX 6 5 -3 -6
BITMAP
78
FC
CC
FC
78
ENDCHAR
STARTCHAR uni0326
ENCODING 806
SWIDTH 0 0
DWIDTH 0 0
BBX 4 4 -2 -5
BITMAP
70
E0
E0
C0
ENDCHAR
STARTCHAR uni0327
ENCODING 807
SWIDTH 0 0
DWIDTH 0 0
BBX 6 6 -3 -6
BITMAP
30
78
3C
1C
F8
F0
ENDCHAR
STARTCHAR uni0328
ENCODING 808
SWIDTH 0 0
DWIDTH 0 0
BBX 4 6 -2 -6
BITMAP
60
E0
C0
C0
F0
70
ENDCHAR
STARTCHAR uni0329
ENCODING 809
SWIDTH 0 0
DWIDTH 0 0
BBX 2 4 -1 -5
BITMAP
C0
C0
C0
C0
ENDCHAR
STARTCHAR uni032A
ENCODING 810
SWIDTH 0 0
DWIDTH 0 0
BBX 8 4 -4 -5
BITMAP
FF
81
81
81
ENDCHAR
STARTCHAR uni032B
ENCODING 811
SWIDTH 0 0
DWIDTH 0 0
BBX 10 3 -5 -4
BITMAP
CCC0
4C80
7F80
ENDCHAR
STARTCHAR uni032C
ENCODING 812
SWIDTH 0 0
DWIDTH 0 0
BBX 10 4 -5 -5
BITMAP
E1C0
7B80
3F80
1F00
ENDCHAR
STARTCHAR uni032D
ENCODING 813
SWIDTH 0 0
DWIDTH 0 0
BBX 10 4 -5 -5
BITMAP
1F00
3F00
7380
E1C0
ENDCHAR
STARTCHAR uni032E
ENCODING 814
SWIDTH 0 0
DWIDTH 0 0
BBX 9 4 -4 -5
BITMAP
C180
FF80
FF00
3E00
ENDCHAR
STARTCHAR uni032F
ENCODING 815
SWIDTH 0 0
DWIDTH 0 0
BBX 10 4 -5 -5
BITMAP
1E00
7F80
7F80
E1C0
ENDCHAR
STARTCHAR uni0330
ENCODING 816
SWIDTH 0 0
DWIDTH 0 0
BBX 10 4 -5 -5
BITMAP
38C0
7FC0
EFC0
C380
ENDCHAR
STARTCHAR uni0331
ENCODING 817
SWIDTH 0 0
DWIDTH 0 0
BBX 8 2 -4 -4
BITMAP
FF
FF
ENDCHAR
STARTCHAR uni0332
ENCODING 818
SWIDTH 0 0
DWIDTH 0 0
BBX 12 2 -6 -4
BITMAP
FFF0
FFF0
ENDCHAR
STARTCHAR uni0333
ENCODING 819
SWIDTH 0 0
DWIDTH 0 0
BBX 10 5 -5 -6
BITMAP
FFC0
FFC0
0000
FFC0
FFC0
ENDCHAR
STARTCHAR uni0334
ENCODING 820
SWIDTH 0 0
DWIDTH 0 0
BBX 10 4 -5 5
BITMAP
38C0
7FC0
EFC0
C780
ENDCHAR
STARTCHAR uni0335
ENCODING 821
SWIDTH 0 0
DWIDTH 0 0
BBX 10 2 -5 6
BITMAP
FFC0
FFC0
ENDCHAR
STARTCHAR uni0336
ENCODING 822
SWIDTH 0 0
DWIDTH 0 0
BBX 18 2 -9 6
BITMAP
FFFFC0
FFFFC0
ENDCHAR
STARTCHAR uni0337
ENCODING 823
SWIDTH 0 0
DWIDTH 0 0
BBX 8 6 -4 4
BITMAP
02
0F
3E
7C
F0
40
ENDCHAR
STARTCHAR uni0338
ENCODING 824
SWIDTH 0 0
DWIDTH 0 0
BBX 10 19 -5 -1
BITMAP
01C0
0180
0180
0380
0300
0700
0600
0600
0E00
0C00
1C00
1800
1800
3800
3000
7000
6000
6000
E000
ENDCHAR
STARTCHAR uni0339
ENCODING 825
SWIDTH 0 0
DWIDTH 0 0
BBX 2 5 -1 -5
BITMAP
80
C0
40
C0
80
ENDCHAR
STARTCHAR uni033A
ENCODING 826
SWIDTH 0 0
DWIDTH 0 0
BBX 8 4 -4 -5
BITMAP
81
81
81
FF
ENDCHAR
STARTCHAR uni033B
ENCODING 827
SWIDTH 0 0
DWIDTH 0 0
BBX 4 5 -2 -6
BITMAP
F0
90
90
90
F0
ENDCHAR
STARTCHAR uni033C
ENCODING 828
SWIDTH 0 0
DWIDTH 0 0
BBX 10 3 -5 -4
BITMAP
7F80
4C80
CCC0
ENDCHAR
STARTCHAR uni033D
ENCODING 829
SWIDTH 0 0
DWIDTH 0 0
BBX 4 5 -2 14
BITMAP
90
F0
60
F0
90
ENDCHAR
STARTCHAR uni033E
ENCODING 830
SWIDTH 0 0
DWIDTH 0 0
BBX 4 7 -2 14
BITMAP
70
40
40
60
20
20
E0
ENDCHAR
STARTCHAR uni033F
ENCODING 831
SWIDTH 0 0
DWIDTH 0 0
BBX 10 5 -5 18
BITMAP
FFC0
FFC0
0000
FFC0
FFC0
ENDCHAR
STARTCHAR uni0340
ENCODING 832
SWIDTH 0 0
DWIDTH 0 0
BBX 7 4 -5 15
BITMAP
F0
78
3C
0E
ENDCHAR
STARTCHAR uni0341
ENCODING 833
SWIDTH 0 0
DWIDTH 0 0
BBX 6 4 -1 15
BITMAP
3C
78
70
E0
ENDCHAR
STARTCHAR uni0342
ENCODING 834
SWIDTH 0 0
DWIDTH 0 0
BBX 10 4 -5 15
BITMAP
38C0
7FC0
EFC0
C380
ENDCHAR
STARTCHAR uni0343
ENCODING 835
SWIDTH 0 0
DWIDTH 0 0
BBX 4 4 -2 13
BITMAP
70
E0
E0
C0
ENDCHAR
STARTCHAR uni0344
ENCODING 836
SWIDTH 0 0
DWIDTH 0 0
BBX 10 5 -5 14
BITMAP
0700
0E00
EDC0
EDC0
6180
ENDCHAR
STARTCHAR uni0345
ENCODING 837
SWIDTH 0 0
DWIDTH 0 0
BBX 4 5 -1 -6
BITMAP
C0
C0
C0
F0
70
ENDCHAR
STARTCHAR uni0346
ENCODING 838
SWIDTH 0 0
DWIDTH 0 0
BBX 10 4 -5 14
BITMAP
FFC0
8040
8040
8040
ENDCHAR
STARTCHAR uni0347
ENCODING 839
SWIDTH 0 0
DWIDTH 0 0
BBX 10 5 -5 -6
BITMAP
FFC0
FFC0
0000
FFC0
FFC0
ENDCHAR
STARTCHAR uni0348
ENCODING 840
SWIDTH 0 0
DWIDTH 0 0
BBX 6 4 -3 -5
BITMAP
CC
CC
CC
CC
ENDCHAR
STARTCHAR uni0349
ENCODING 841
SWIDTH 0 0
DWIDTH 0 0
BBX 4 4 -2 -5
BITMAP
F0
10
10
10
ENDCHAR
STARTCHAR uni034A
ENCODING 842
SWIDTH 0 0
DWIDTH 0 0
BBX 8 5 -4 14
BITMAP
08
79
FF
9E
30
ENDCHAR
STARTCHAR uni034B
ENCODING 843
SWIDTH 0 0
DWIDTH 0 0
BBX 8 9 -4 14
BITMAP
18
3C
18
71
FF
8E
18
3C
18
ENDCHAR
STARTCHAR uni034C
ENCODING 844
SWIDTH 0 0
DWIDTH 0 0
BBX 8 6 -4 15
BITMAP
71
FF
8E
71
FF
CE
ENDCHAR
STARTCHAR uni034D
ENCODING 845
SWIDTH 0 0
DWIDTH 0 0
BBX 8 4 -4 -5
BITMAP
66
FF
66
24
ENDCHAR
STARTCHAR uni034E
ENCODING 846
SWIDTH 0 0
DWIDTH 0 0
BBX 4 5 -2 -6
BITMAP
60
F0
60
60
60
ENDCHAR
STARTCHAR uni034F
ENCODING 847
SWIDTH 0 0
DWIDTH 0 0
BBX 18 17 -9 0
BITMAP
F1E3C0
C000C0
C000C0
C3F0C0
040800
000000
080600
C000C0
D002C0
C000C0
C806C0
000000
040800
C3F0C0
C000C0
C000C0
F1E3C0
ENDCHAR
STARTCHAR uni0350
ENCODING 848
SWIDTH 0 0
DWIDTH 0 0
BBX 4 5 -2 14
BITMAP
80
E0
30
F0
80
ENDCHAR
STARTCHAR uni0351
ENCODING 849
SWIDTH 0 0
DWIDTH 0 0
BBX 3 6 -3 14
BITMAP
60
E0
C0
C0
E0
60
ENDCHAR
STARTCHAR uni0352
ENCODING 850
SWIDTH 0 0
DWIDTH 0 0
BBX 8 6 -4 15
BITMAP
3C
7E
C3
DB
3C
18
ENDCHAR
STARTCHAR uni0353
ENCODING 851
SWIDTH 0 0
DWIDTH 0 0
BBX 4 5 -2 -6
BITMAP
80
F0
60
F0
10
ENDCHAR
STARTCHAR uni0354
ENCODING 852
SWIDTH 0 0
DWIDTH 0 0
BBX 4 5 -2 -6
BITMAP
10
F0
C0
F0
10
ENDCHAR
STARTCHAR uni0355
ENCODING 853
SWIDTH 0 0
DWIDTH 0 0
BBX 4 5 -2 -6
BITMAP
80
E0
30
F0
80
ENDCHAR
STARTCHAR uni0356
ENCODING 854
SWIDTH 0 0
DWIDTH 0 0
BBX 9 5 -4 -6
BITMAP
8600
E700
3700
ED00
8980
ENDCHAR
STARTCHAR uni0357
ENCODING 855
SWIDTH 0 0
DWIDTH 0 0
BBX 3 6 0 14
BITMAP
C0
E0
60
60
E0
C0
ENDCHAR
STARTCHAR uni0358
ENCODING 856
SWIDTH 0 0
DWIDTH 0 0
BBX 4 3 2 15
BITMAP
F0
F0
70
ENDCHAR
STARTCHAR uni0359
ENCODING 857
SWIDTH 0 0
DWIDTH 0 0
BBX 6 5 -3 -6
BITMAP
30
78
FC
78
30
ENDCHAR
STARTCHAR uni035A
ENCODING 858
SWIDTH 0 0
DWIDTH 0 0
BBX 10 5 -5 -6
BITMAP
7F80
4C80
CCC0
4C80
7F80
ENDCHAR
STARTCHAR uni035B
ENCODING 859
SWIDTH 0 0
DWIDTH 0 0
BBX 4 5 -2 14
BITMAP
C0
80
F0
10
30
ENDCHAR
STARTCHAR uni035C
ENCODING 860
SWIDTH 0 0
DWIDTH 0 0
BBX 18 5 -2 -6
BITMAP
E000C0
7001C0
7F1F80
1FFF00
07F800
ENDCHAR
STARTCHAR uni035D
ENCODING 861
SWIDTH 0 0
DWIDTH 0 0
BBX 18 5 -2 14
BITMAP
E000C0
7001C0
7F1F80
1FFF00
07F800
ENDCHAR
STARTCHAR uni035E
ENCODING 862
SWIDTH 0 0
DWIDTH 0 0
BBX 14 2 -2 14
BITMAP
FFFC
FFFC
ENDCHAR
STARTCHAR uni035F
ENCODING 863
SWIDTH 0 0
DWIDTH 0 0
BBX 14 2 -2 -4
BITMAP
FFFC
FFFC
ENDCHAR
STARTCHAR uni0360
ENCODING 864
SWIDTH 0 0
DWIDTH 0 0
BBX 19 4 -2 15
BITMAP
3F0060
7FF9C0
E7FFC0
C03F80
ENDCHAR
STARTCHAR uni0361
ENCODING 865
SWIDTH 0 0
DWIDTH 0 0
BBX 18 5 -2 14
BITMAP
07F800
1FFF00
3E1F80
7003C0
E000C0
ENDCHAR
STARTCHAR uni0362
ENCODING 866
SWIDTH 0 0
DWIDTH 0 0
BBX 18 5 -2 -5
BITMAP
000100
000180
FFFFC0
FFFFC0
000100
ENDCHAR
STARTCHAR uni0363
ENCODING 867
SWIDTH 0 0
DWIDTH 0 0
BBX 8 8 -4 7
BITMAP
3E
7E
47
3F
F7
E7
FF
7B
ENDCHAR
STARTCHAR uni0364
ENCODING 868
SWIDTH 0 0
DWIDTH 0 0
BBX 8 8 -4 7
BITMAP
3C
7E
E3
FF
C0
E0
7E
3E
ENDCHAR
STARTCHAR uni0365
ENCODING 869
SWIDTH 0 0
DWIDTH 0 0
BBX 2 11 -1 7
BITMAP
C0
C0
00
C0
C0
C0
C0
C0
C0
C0
C0
ENDCHAR
STARTCHAR uni0366
ENCODING 870
SWIDTH 0 0
DWIDTH 0 0
BBX 8 8 -4 7
BITMAP
3C
7E
E7
C3
C3
E7
7E
3C
ENDCHAR
STARTCHAR uni0367
ENCODING 871
SWIDTH 0 0
DWIDTH 0 0
BBX 8 8 -4 7
BITMAP
C3
C3
C3
C3
C3
E7
FF
7B
ENDCHAR
STARTCHAR uni0368
ENCODING 872
SWIDTH 0 0
DWIDTH 0 0
BBX 6 8 -3 7
BITMAP
7C
FC
C0
C0
C0
C0
FC
7C
ENDCHAR
STARTCHAR uni0369
ENCODING 873
SWIDTH 0 0
DWIDTH 0 0
BBX 8 11 -4 7
BITMAP
03
03
03
7B
7F
E7
C3
C3
E3
7F
7B
ENDCHAR
STARTCHAR uni036A
ENCODING 874
SWIDTH 0 0
DWIDTH 0 0
BBX 8 11 -4 7
BITMAP
C0
C0
C0
DE
FF
E7
C3
C3
C3
C3
C3
ENDCHAR
STARTCHAR uni036B
ENCODING 875
SWIDTH 0 0
DWIDTH 0 0
BBX 14 8 -7 7
BITMAP
DE78
FFF8
E39C
E31C
E31C
E31C
E31C
E31C
ENDCHAR
STARTCHAR uni036C
ENCODING 876
SWIDTH 0 0
DWIDTH 0 0
BBX 6 8 -3 7
BITMAP
DC
FC
E0
E0
E0
E0
E0
E0
ENDCHAR
STARTCHAR uni036D
ENCODING 877
SWIDTH 0 0
DWIDTH 0 0
BBX 8 8 -4 7
BITMAP
C3
C3
C3
C3
C3
E7
FF
7B
ENDCHAR
STARTCHAR uni036E
ENCODING 878
SWIDTH 0 0
DWIDTH 0 0
BBX 8 8 -4 7
BITMAP
C3
E7
66
66
7E
3C
3C
18
ENDCHAR
STARTCHAR uni036F
ENCODING 879
SWIDTH 0 0
DWIDTH 0 0
BBX 8 8 -4 7
BITMAP
E7
66
7E
3C
3C
7E
66
E7
ENDCHAR
STARTCHAR uni0374
ENCODING 884
SWIDTH 252 0
DWIDTH 6 0
BBX 4 4 1 13
BITMAP
70
F0
E0
C0
ENDCHAR
STARTCHAR uni0375
ENCODING 885
SWIDTH 252 0
DWIDTH 6 0
BBX 4 4 1 -5
BITMAP
30
70
F0
E0
ENDCHAR
STARTCHAR uni037A
ENCODING 890
SWIDTH 252 0
DWIDTH 6 0
BBX 4 5 2 -6
BITMAP
C0
C0
C0
F0
F0
ENDCHAR
STARTCHAR uni037B
ENCODING 891
SWIDTH 514 0
DWIDTH 12 0
BBX 10 13 1 0
BITMAP
7E00
FF00
FF80
07C0
03C0
03C0
03C0
03C0
03C0
87C0
FF80
FF00
7E00
ENDCHAR
STARTCHAR uni037C
ENCODING 892
SWIDTH 514 0
DWIDTH 12 0
BBX 10 13 1 0
BITMAP
1F80
3FC0
7FC0
7800
F000
F380
F3C0
F380
F000
F840
7FC0
3FC0
1F80
ENDCHAR
STARTCHAR uni037D
ENCODING 893
SWIDTH 514 0
DWIDTH 12 0
BBX 10 13 1 0
BITMAP
7E00
FF00
FF80
07C0
03C0
73C0
73C0
73C0
03C0
87C0
FF80
FF00
7E00
ENDCHAR
STARTCHAR uni037E
ENCODING 894
SWIDTH 290 0
DWIDTH 7 0
BBX 5 16 1 -3
BITMAP
70
F8
F8
70
00
00
00
00
00
00
70
70
F0
E0
E0
E0
ENDCHAR
STARTCHAR tonos
ENCODING 900
SWIDTH 577 0
DWIDTH 14 0
BBX 4 5 6 15
BITMAP
F0
E0
E0
C0
C0
ENDCHAR
STARTCHAR dieresistonos
ENCODING 901
SWIDTH 577 0
DWIDTH 14 0
BBX 10 5 2 15
BITMAP
0E00
0E00
ED80
EDC0
6180
ENDCHAR
STARTCHAR Alphatonos
ENCODING 902
SWIDTH 689 0
DWIDTH 17 0
BBX 18 18 -1 0
BITMAP
780000
71F000
71F000
63F800
E3B800
03B800
07BC00
071C00
0F1E00
0F1E00
0E0E00
1FFF00
1FFF00
1FFF00
3C0780
3C0780
3C0780
7803C0
ENDCHAR
STARTCHAR anoteleia
ENCODING 903
SWIDTH 285 0
DWIDTH 7 0
BBX 5 4 1 7
BITMAP
70
F8
F8
70
ENDCHAR
STARTCHAR Epsilontonos
ENCODING 904
SWIDTH 629 0
DWIDTH 15 0
BBX 14 18 -1 0
BITMAP
7000
77FC
E7FC
E7FC
C700
0700
0700
0700
07FC
07FC
07FC
0700
0700
0700
0700
07FC
07FC
07FC
ENDCHAR
STARTCHAR Etatonos
ENCODING 905
SWIDTH 834 0
DWIDTH 20 0
BBX 19 18 -1 0
BITMAP
700000
7701E0
E701E0
E701E0
C701E0
0701E0
0701E0
0701E0
07FFE0
07FFE0
07FFE0
0701E0
0701E0
0701E0
0701E0
0701E0
0701E0
0701E0
ENDCHAR
STARTCHAR Iotatonos
ENCODING 906
SWIDTH 512 0
DWIDTH 12 0
BBX 12 18 -1 0
BITMAP
7000
77F0
E7F0
E3E0
C1C0
01C0
01C0
01C0
01C0
01C0
01C0
01C0
01C0
01C0
01C0
03E0
07F0
07F0
ENDCHAR
STARTCHAR Omicrontonos
ENCODING 908
SWIDTH 835 0
DWIDTH 20 0
BBX 20 18 -1 0
BITMAP
780000
70FE00
73FF80
67FFC0
EF83C0
0F01E0
0F01E0
1E00E0
1E00F0
1E00F0
1E00F0
1E00E0
0F01E0
0F01E0
0F83C0
07FFC0
03FF80
00FE00
ENDCHAR
STARTCHAR Upsilontonos
ENCODING 910
SWIDTH 764 0
DWIDTH 18 0
BBX 19 18 -1 0
BITMAP
700000
E781E0
E781E0
E3C3C0
C3C380
01E780
01E700
00FF00
00FE00
007E00
003C00
003C00
003C00
003C00
003C00
003C00
003C00
003C00
ENDCHAR
STARTCHAR Omegatonos
ENCODING 911
SWIDTH 830 0
DWIDTH 20 0
BBX 20 18 -1 0
BITMAP
780000
70FE00
73FF80
67FFC0
EF83E0
0F01E0
1E00F0
1E00F0
1E00F0
1E00F0
0E00E0
0E00E0
0701E0
0783C0
03C780
1FC7F0
1FC7F0
1FC7F0
ENDCHAR
STARTCHAR iotadieresistonos
ENCODING 912
SWIDTH 407 0
DWIDTH 10 0
BBX 10 20 -1 0
BITMAP
0700
0E00
6FC0
EDC0
61C0
0000
0000
1E00
1E00
1E00
1E00
1E00
1E00
1E00
1E00
1E00
1E00
1FC0
0FC0
07C0
ENDCHAR
STARTCHAR Alpha
ENCODING 913
SWIDTH 689 0
DWIDTH 17 0
BBX 17 17 0 0
BITMAP
03E000
03E000
07F000
077000
077000
0F7800
0E3800
1E3C00
1E3C00
1C1C00
3FFE00
3FFE00
3FFE00
780F00
780F00
780F00
F00780
ENDCHAR
STARTCHAR Beta
ENCODING 914
SWIDTH 671 0
DWIDTH 16 0
BBX 13 17 2 0
BITMAP
FF80
FFE0
FFF0
F0F0
F070
F070
F0F0
FFE0
FFC0
FFF0
F0F0
F078
F078
F0F8
FFF0
FFE0
FFC0
ENDCHAR
STARTCHAR Gamma
ENCODING 915
SWIDTH 561 0
DWIDTH 13 0
BBX 11 17 2 0
BITMAP
FFE0
FFE0
FFE0
F000
F000
F000
F000
F000
F000
F000
F000
F000
F000
F000
F000
F000
F000
ENDCHAR
STARTCHAR uni0394
ENCODING 916
SWIDTH 658 0
DWIDTH 16 0
BBX 14 17 1 0
BITMAP
0780
0FC0
0FC0
0FC0
1FE0
1CE0
1CE0
3CF0
3870
3870
7878
7038
7038
F03C
FFFC
FFFC
FFFC
ENDCHAR
STARTCHAR Epsilon
ENCODING 917
SWIDTH 560 0
DWIDTH 13 0
BBX 10 17 2 0
BITMAP
FFC0
FFC0
FFC0
F000
F000
F000
F000
FF80
FF80
FF80
F000
F000
F000
F000
FFC0
FFC0
FFC0
ENDCHAR
STARTCHAR Zeta
ENCODING 918
SWIDTH 579 0
DWIDTH 14 0
BBX 12 17 1 0
BITMAP
FFF0
FFF0
FFF0
01E0
01E0
03C0
0780
0780
0F00
1E00
1C00
3C00
7800
F000
FFF0
FFF0
FFF0
ENDCHAR
STARTCHAR Eta
ENCODING 919
SWIDTH 765 0
DWIDTH 18 0
BBX 14 17 2 0
BITMAP
F03C
F03C
F03C
F03C
F03C
F03C
F03C
FFFC
FFFC
FFFC
F03C
F03C
F03C
F03C
F03C
F03C
F03C
ENDCHAR
STARTCHAR Theta
ENCODING 920
SWIDTH 795 0
DWIDTH 19 0
BBX 17 17 1 0
BITMAP
07F000
1FFC00
3FFE00
7C1E00
780F00
780F00
700700
F7F780
F7F780
F7F780
700700
780F00
780F00
3C1F00
3FFE00
1FFC00
07F000
ENDCHAR
STARTCHAR Iota
ENCODING 921
SWIDTH 389 0
DWIDTH 9 0
BBX 7 17 1 0
BITMAP
FE
FE
7E
38
38
38
38
38
38
38
38
38
38
38
7E
FE
FE
ENDCHAR
STARTCHAR Kappa
ENCODING 922
SWIDTH 664 0
DWIDTH 16 0
BBX 14 17 2 0
BITMAP
F07C
F078
F0F0
F1E0
F3C0
F7C0
F780
FF00
FF80
FF80
F3C0
F3E0
F1E0
F0F0
F0F0
F078
F03C
ENDCHAR
STARTCHAR Lambda
ENCODING 923
SWIDTH 649 0
DWIDTH 16 0
BBX 16 17 0 0
BITMAP
03C0
07E0
07E0
07E0
0FF0
0E70
0E70
1E78
1E38
1C38
3C3C
3C3C
381C
781E
781E
700E
F00F
ENDCHAR
STARTCHAR Mu
ENCODING 924
SWIDTH 942 0
DWIDTH 23 0
BBX 19 17 2 0
BITMAP
F803E0
FC07E0
FC07E0
FC07E0
EE0FE0
EE0FE0
EE0DE0
E71DE0
E71DE0
E719E0
E7B9E0
E3B9E0
E3B1E0
E3F1E0
E1F1E0
E1E1E0
E1E1E0
ENDCHAR
STARTCHAR Nu
ENCODING 925
SWIDTH 812 0
DWIDTH 20 0
BBX 16 17 2 0
BITMAP
F80F
FC0F
FC0F
FE0F
EF0F
EF0F
E78F
E78F
E3CF
E1EF
E1EF
E0F7
E0F7
E07F
E07F
E03F
E01F
ENDCHAR
STARTCHAR Xi
ENCODING 926
SWIDTH 570 0
DWIDTH 14 0
BBX 12 17 1 0
BITMAP
FFF0
FFF0
FFF0
0000
0000
0000
0000
7FE0
7FE0
7FE0
0000
0000
0000
0000
FFF0
FFF0
FFF0
ENDCHAR
STARTCHAR Omicron
ENCODING 927
SWIDTH 795 0
DWIDTH 19 0
BBX 17 17 1 0
BITMAP
07F000
1FFC00
3FFE00
7C1E00
780F00
780F00
700700
F00780
F00780
F00780
700700
780F00
780F00
3C1F00
3FFE00
1FFC00
07F000
ENDCHAR
STARTCHAR Pi
ENCODING 928
SWIDTH 745 0
DWIDTH 18 0
BBX 14 17 2 0
BITMAP
FFFC
FFFC
FFFC
F03C
F03C
F03C
F03C
F03C
F03C
F03C
F03C
F03C
F03C
F03C
F03C
F03C
F03C
ENDCHAR
STARTCHAR Rho
ENCODING 929
SWIDTH 627 0
DWIDTH 15 0
BBX 12 17 2 0
BITMAP
FF80
FFC0
FFE0
F1F0
F0F0
F0F0
F0F0
F1F0
FFE0
FFC0
FF00
F000
F000
F000
F000
F000
F000
ENDCHAR
STARTCHAR Sigma
ENCODING 931
SWIDTH 592 0
DWIDTH 14 0
BBX 12 17 1 0
BITMAP
FFF0
FFF0
FFF0
7800
3C00
1E00
0F00
0780
0780
0F00
1E00
3C00
7800
F000
FFF0
FFF0
FFF0
ENDCHAR
STARTCHAR Tau
ENCODING 932
SWIDTH 579 0
DWIDTH 14 0
BBX 14 17 0 0
BITMAP
FFFC
FFFC
FFFC
0780
0780
0780
0780
0780
0780
0780
0780
0780
0780
0780
0780
0780
0780
ENDCHAR
STARTCHAR Upsilon
ENCODING 933
SWIDTH 624 0
DWIDTH 15 0
BBX 15 17 0 0
BITMAP
F01E
783C
783C
3C78
3C78
1EF0
0EE0
0FE0
07C0
07C0
0380
0380
0380
0380
0380
0380
0380
ENDCHAR
STARTCHAR Phi
ENCODING 934
SWIDTH 859 0
DWIDTH 21 0
BBX 19 17 1 0
BITMAP
00E000
00E000
0FFE00
3FFF80
7FFFC0
78E3C0
F0E1E0
F0E1E0
F0E1E0
F0E1E0
78E3C0
7FFFC0
3FFF80
0FFE00
00E000
00E000
00E000
ENDCHAR
STARTCHAR Chi
ENCODING 935
SWIDTH 666 0
DWIDTH 16 0
BBX 16 17 0 0
BITMAP
781E
781E
3C3C
1C38
1E78
0FF0
07E0
07E0
03C0
07E0
0FF0
0EF0
1E78
3C3C
383C
781E
F00F
ENDCHAR
STARTCHAR Psi
ENCODING 936
SWIDTH 875 0
DWIDTH 21 0
BBX 19 17 1 0
BITMAP
F0E1E0
F0E1E0
F0E1E0
F0E1E0
F0E1E0
F0E1E0
F0E1E0
F0E1E0
78E3C0
7FFFC0
3FFF80
0FFE00
00E000
00E000
00E000
00E000
00E000
ENDCHAR
STARTCHAR uni03A9
ENCODING 937
SWIDTH 786 0
DWIDTH 19 0
BBX 17 17 1 0
BITMAP
07F000
1FFC00
3FFE00
7C1F00
780F00
F00780
F00780
F00780
F00780
700700
700700
780E00
3C1E00
1E3C00
FE3F80
FE3F80
FE3F80
ENDCHAR
STARTCHAR Iotadieresis
ENCODING 938
SWIDTH 389 0
DWIDTH 9 0
BBX 8 22 1 0
BITMAP
E7
E7
E7
00
00
FE
FE
7E
38
38
38
38
38
38
38
38
38
38
38
7E
FE
FE
ENDCHAR
STARTCHAR Upsilondieresis
ENCODING 939
SWIDTH 624 0
DWIDTH 15 0
BBX 15 22 0 0
BITMAP
0E70
0EF0
0C60
0000
0000
F01E
783C
783C
3C78
3C78
1EF0
0EE0
0FE0
07C0
07C0
0380
0380
0380
0380
0380
0380
0380
ENDCHAR
STARTCHAR alphatonos
ENCODING 940
SWIDTH 646 0
DWIDTH 16 0
BBX 14 20 1 0
BITMAP
0380
0380
0380
0700
0700
0000
0000
1F38
3FB8
7FF8
78F8
F078
F078
F078
F078
F078
78F8
7FFC
3FBC
1F1C
ENDCHAR
STARTCHAR epsilontonos
ENCODING 941
SWIDTH 555 0
DWIDTH 13 0
BBX 11 20 1 0
BITMAP
0380
0380
0300
0700
0600
0000
0000
1FC0
7FE0
7FE0
7000
7000
7F80
3F80
7E00
E000
F020
FFE0
7FE0
3FC0
ENDCHAR
STARTCHAR etatonos
ENCODING 942
SWIDTH 657 0
DWIDTH 16 0
BBX 12 26 2 -6
BITMAP
0380
0380
0700
0700
0600
0000
0000
E7C0
EFE0
FFF0
F8F0
F0F0
F070
F070
F070
F070
F070
F070
F070
F070
0070
0070
0070
0070
0070
0070
ENDCHAR
STARTCHAR iotatonos
ENCODING 943
SWIDTH 407 0
DWIDTH 10 0
BBX 7 20 2 0
BITMAP
38
78
70
70
60
00
00
F0
F0
F0
F0
F0
F0
F0
F0
F0
F0
FE
7E
3E
ENDCHAR
STARTCHAR upsilondieresistonos
ENCODING 944
SWIDTH 645 0
DWIDTH 15 0
BBX 12 20 2 0
BITMAP
0700
0700
76C0
77E0
70C0
0000
0000
E0E0
E0E0
E0F0
E0F0
E0F0
E0F0
E0F0
E0F0
E0F0
F1E0
FFE0
7FC0
1F80
ENDCHAR
STARTCHAR alpha
ENCODING 945
SWIDTH 646 0
DWIDTH 16 0
BBX 14 13 1 0
BITMAP
1F38
3FB8
7FF8
78F8
F078
F078
F078
F078
F078
78F8
7FFC
3FBC
1F1C
ENDCHAR
STARTCHAR beta
ENCODING 946
SWIDTH 660 0
DWIDTH 16 0
BBX 13 24 2 -6
BITMAP
1F80
7FE0
7FF0
F0F0
F070
E0F0
E0F0
E7E0
E7C0
E7F0
E078
E078
E078
E078
F078
FFF0
FFF0
EFC0
E000
E000
E000
E000
E000
E000
ENDCHAR
STARTCHAR gamma
ENCODING 947
SWIDTH 567 0
DWIDTH 14 0
BBX 14 19 0 -6
BITMAP
F03C
7038
7878
7878
3870
3CF0
1CF0
1CE0
1FE0
0FC0
0FC0
07C0
0780
0780
0780
0F00
0F00
0F00
0F00
ENDCHAR
STARTCHAR delta
ENCODING 948
SWIDTH 619 0
DWIDTH 15 0
BBX 13 18 1 0
BITMAP
0FE0
1FF8
3FF0
3800
3C00
1E00
0F80
0FE0
3FF0
78F0
7078
F078
F078
F078
F8F0
7FF0
3FE0
1FC0
ENDCHAR
STARTCHAR epsilon
ENCODING 949
SWIDTH 555 0
DWIDTH 13 0
BBX 11 13 1 0
BITMAP
1FC0
7FE0
7FE0
7000
7000
7F80
3F80
7E00
E000
F020
FFE0
7FE0
3FC0
ENDCHAR
STARTCHAR zeta
ENCODING 950
SWIDTH 498 0
DWIDTH 12 0
BBX 11 22 1 -4
BITMAP
7FE0
7FE0
7DC0
0780
0F00
1E00
1C00
3800
7800
7000
F000
F000
F000
F000
F800
7E00
3FC0
0FE0
01E0
01E0
01C0
03C0
ENDCHAR
STARTCHAR eta
ENCODING 951
SWIDTH 657 0
DWIDTH 16 0
BBX 12 19 2 -6
BITMAP
E7C0
EFE0
FFF0
F8F0
F0F0
F070
F070
F070
F070
F070
F070
F070
F070
0070
0070
0070
0070
0070
0070
ENDCHAR
STARTCHAR theta
ENCODING 952
SWIDTH 618 0
DWIDTH 15 0
BBX 13 18 1 0
BITMAP
0F80
3FE0
7FE0
78F0
7070
F078
F078
FFF8
FFF8
FFF8
F078
F078
F078
7070
78F0
3FE0
3FE0
0F80
ENDCHAR
STARTCHAR iota
ENCODING 953
SWIDTH 407 0
DWIDTH 10 0
BBX 7 13 2 0
BITMAP
F0
F0
F0
F0
F0
F0
F0
F0
F0
F0
FE
7E
3E
ENDCHAR
STARTCHAR kappa
ENCODING 954
SWIDTH 620 0
DWIDTH 15 0
BBX 13 13 2 0
BITMAP
E0F0
E1E0
E1C0
E3C0
E780
EF00
FF00
FF80
F380
E3C0
E1E0
E0F0
E078
ENDCHAR
STARTCHAR lambda
ENCODING 955
SWIDTH 615 0
DWIDTH 15 0
BBX 15 18 0 0
BITMAP
7C00
7E00
7F00
0F00
0780
0380
07C0
07C0
0FC0
0FE0
0FE0
1EF0
1CF0
3C70
3878
787E
783E
F01E
ENDCHAR
STARTCHAR uni03BC
ENCODING 956
SWIDTH 660 0
DWIDTH 16 0
BBX 12 19 2 -6
BITMAP
E0F0
E0F0
E0F0
E0F0
E0F0
E0F0
E0F0
E0F0
F0F0
F1F0
FFF0
FF70
EF70
E000
E000
E000
E000
E000
E000
ENDCHAR
STARTCHAR nu
ENCODING 957
SWIDTH 595 0
DWIDTH 14 0
BBX 13 13 0 0
BITMAP
F038
7078
7878
7878
3878
3C70
3C70
1CF0
1EE0
0FE0
0FC0
0F80
0780
ENDCHAR
STARTCHAR xi
ENCODING 958
SWIDTH 498 0
DWIDTH 12 0
BBX 11 22 1 -4
BITMAP
7FC0
7FC0
7F80
3800
7000
7000
7800
3FC0
1FC0
7E00
7000
F000
F000
F000
F800
7E00
3FC0
0FE0
01E0
01E0
01C0
03C0
ENDCHAR
STARTCHAR omicron
ENCODING 959
SWIDTH 619 0
DWIDTH 15 0
BBX 13 13 1 0
BITMAP
1F80
3FE0
7FE0
F0F0
F070
F078
E078
F078
F070
F0F0
7FF0
3FE0
1F80
ENDCHAR
STARTCHAR pi
ENCODING 960
SWIDTH 738 0
DWIDTH 18 0
BBX 17 13 0 0
BITMAP
3FFF80
FFFF80
FFFF80
1E1C00
1E1C00
1E1C00
1E1C00
1E1C00
1E1C00
1E1C00
1E1F80
1E1F80
1E0F80
ENDCHAR
STARTCHAR rho
ENCODING 961
SWIDTH 618 0
DWIDTH 15 0
BBX 13 19 1 -6
BITMAP
0F80
3FE0
7FF0
78F0
7078
F078
F078
F078
F078
F8F0
FFF0
FFE0
F7C0
F000
F000
F000
F000
F000
F000
ENDCHAR
STARTCHAR sigma1
ENCODING 962
SWIDTH 498 0
DWIDTH 12 0
BBX 11 17 1 -4
BITMAP
0FC0
3FE0
7FC0
7840
F000
F000
F000
F000
F000
F800
7F80
3FC0
07E0
01E0
01E0
01C0
03C0
ENDCHAR
STARTCHAR sigma
ENCODING 963
SWIDTH 652 0
DWIDTH 16 0
BBX 14 13 1 0
BITMAP
0FFC
3FFC
7FFC
7870
F070
F078
F078
F078
F078
7878
7FF0
3FE0
0FC0
ENDCHAR
STARTCHAR tau
ENCODING 964
SWIDTH 538 0
DWIDTH 13 0
BBX 12 13 0 0
BITMAP
3FF0
FFF0
FFF0
0E00
0E00
0E00
0E00
0E00
0E00
0F00
0FE0
0FE0
03E0
ENDCHAR
STARTCHAR upsilon
ENCODING 965
SWIDTH 645 0
DWIDTH 15 0
BBX 12 13 2 0
BITMAP
E0E0
E0E0
E0F0
E0F0
E0F0
E0F0
E0F0
E0F0
E0F0
F1E0
FFE0
7FC0
1F80
ENDCHAR
STARTCHAR phi
ENCODING 966
SWIDTH 791 0
DWIDTH 19 0
BBX 17 19 1 -6
BITMAP
307C00
38FE00
79FF00
71C780
F1C780
F1C780
E1C780
F1C780
F1C780
79CF00
7FFE00
3FFC00
0FF000
01C000
01C000
01C000
01C000
01C000
01C000
ENDCHAR
STARTCHAR chi
ENCODING 967
SWIDTH 591 0
DWIDTH 14 0
BBX 14 19 0 -6
BITMAP
783C
7C38
7C78
1E70
0EF0
0EE0
0FC0
07C0
0780
0780
0FC0
0FC0
1DC0
3DE0
38E0
78F0
70FC
F07C
E03C
ENDCHAR
STARTCHAR psi
ENCODING 968
SWIDTH 836 0
DWIDTH 20 0
BBX 17 24 2 -6
BITMAP
03C000
03C000
03C000
03C000
03C000
E3C700
E3C700
E3C700
E3C780
E3C780
E3C780
E3C780
E3C780
E3C700
F3CF00
7FFF00
3FFC00
1FF800
03C000
03C000
03C000
03C000
03C000
03C000
ENDCHAR
STARTCHAR omega
ENCODING 969
SWIDTH 862 0
DWIDTH 21 0
BBX 19 13 1 0
BITMAP
7803C0
7001C0
7001C0
7001C0
F0E1E0
F0E1E0
F0E1E0
F0E1E0
F0E1C0
71F1C0
7FFFC0
3FBF80
1F1F00
ENDCHAR
STARTCHAR iotadieresis
ENCODING 970
SWIDTH 407 0
DWIDTH 10 0
BBX 9 18 0 0
BITMAP
E700
F700
6700
0000
0000
3C00
3C00
3C00
3C00
3C00
3C00
3C00
3C00
3C00
3C00
3F80
1F80
0F80
ENDCHAR
STARTCHAR upsilondieresis
ENCODING 971
SWIDTH 645 0
DWIDTH 15 0
BBX 12 18 2 0
BITMAP
39C0
39C0
39C0
0000
0000
E0E0
E0E0
E0F0
E0F0
E0F0
E0F0
E0F0
E0F0
E0F0
F1E0
FFE0
7FC0
1F80
ENDCHAR
STARTCHAR omicrontonos
ENCODING 972
SWIDTH 619 0
DWIDTH 15 0
BBX 13 20 1 0
BITMAP
03C0
0380
0380
0300
0700
0000
0000
1F80
3FE0
7FE0
F0F0
F070
F078
E078
F078
F070
F0F0
7FF0
3FE0
1F80
ENDCHAR
STARTCHAR upsilontonos
ENCODING 973
SWIDTH 645 0
DWIDTH 15 0
BBX 12 20 2 0
BITMAP
0780
0700
0700
0600
0600
0000
0000
E0E0
E0E0
E0F0
E0F0
E0F0
E0F0
E0F0
E0F0
E0F0
F1E0
FFE0
7FC0
1F80
ENDCHAR
STARTCHAR omegatonos
ENCODING 974
SWIDTH 862 0
DWIDTH 21 0
BBX 19 20 1 0
BITMAP
007000
007000
007000
00E000
00E000
000000
000000
7803C0
7001C0
7001C0
7001C0
F0E1E0
F0E1E0
F0E1E0
F0E1E0
F0E1C0
71F1C0
7FFFC0
3FBF80
1F1F00
ENDCHAR
STARTCHAR uni03D0
ENCODING 976
SWIDTH 622 0
DWIDTH 15 0
BBX 13 18 1 0
BITMAP
07C0
1FE0
3C60
7860
7FE0
77C0
F000
F3C0
FFF0
FFF0
F078
F078
F078
7078
78F0
7FF0
3FE0
0F80
ENDCHAR
STARTCHAR theta1
ENCODING 977
SWIDTH 731 0
DWIDTH 18 0
BBX 16 18 1 0
BITMAP
07E0
1FF0
1FF8
1C3C
1C3C
1E1C
1FFF
07FF
79FF
F81E
F81E
381E
381C
383C
3C3C
3FF8
1FF0
0FC0
ENDCHAR
STARTCHAR Upsilon1
ENCODING 978
SWIDTH 630 0
DWIDTH 15 0
BBX 15 17 0 0
BITMAP
F01E
783E
783E
3C78
3C70
1EF0
1EE0
0FE0
07C0
07C0
0380
0380
0380
0380
0380
0380
0380
ENDCHAR
STARTCHAR uni03D3
ENCODING 979
SWIDTH 770 0
DWIDTH 19 0
BBX 19 18 -1 0
BITMAP
700000
E780E0
E781E0
E3C3E0
C3C780
01C780
01EF00
00EF00
00FE00
007E00
007C00
003C00
003C00
003C00
003C00
003C00
003C00
003C00
ENDCHAR
STARTCHAR uni03D4
ENCODING 980
SWIDTH 630 0
DWIDTH 15 0
BBX 15 22 0 0
BITMAP
0E70
0E70
0E60
0000
0000
F01E
783E
783E
3C78
3C70
1EF0
1EE0
0FE0
07C0
07C0
0380
0380
0380
0380
0380
0380
0380
ENDCHAR
STARTCHAR phi1
ENCODING 981
SWIDTH 813 0
DWIDTH 20 0
BBX 18 24 1 -6
BITMAP
01E000
01E000
01E000
01E000
01E000
07F800
3FFE00
7FFF00
79E780
F1E380
F1E3C0
F1E3C0
F1E3C0
F1E3C0
79E780
3FFF00
1FFE00
07F800
01E000
01E000
01E000
01E000
01E000
01E000
ENDCHAR
STARTCHAR omega1
ENCODING 982
SWIDTH 999 0
DWIDTH 24 0
BBX 22 13 1 0
BITMAP
7FFFFC
FFFFFC
FFFFFC
3C00F0
380070
380070
387870
387870
387870
3C78F0
1FFFE0
1FCFE0
078780
ENDCHAR
STARTCHAR uni03D7
ENCODING 983
SWIDTH 645 0
DWIDTH 15 0
BBX 15 19 0 -6
BITMAP
F01C
F83C
FC78
3CF8
1CF8
1DF0
1FF0
1F70
3F70
3E70
3C7E
383E
701E
000E
000E
000E
003E
003C
0038
ENDCHAR
STARTCHAR uni03D8
ENCODING 984
SWIDTH 795 0
DWIDTH 19 0
BBX 17 17 1 0
BITMAP
07F000
1FFC00
3FFE00
7C1F00
780F00
F00700
F00780
F00780
F00780
780F00
7C1F00
3FFE00
1FFC00
07F000
01C000
01C000
01C000
ENDCHAR
STARTCHAR uni03D9
ENCODING 985
SWIDTH 619 0
DWIDTH 15 0
BBX 13 19 1 -6
BITMAP
0F80
3FE0
7FF0
78F0
F078
F078
F078
F078
F078
70F0
7FF0
3FE0
1FC0
0700
0700
0700
0700
0700
0700
ENDCHAR
STARTCHAR uni03DA
ENCODING 986
SWIDTH 637 0
DWIDTH 15 0
BBX 13 17 1 0
BITMAP
07F0
1FF8
3FF8
7C10
7800
F000
F000
F000
F000
7800
7C00
3FC0
1FC0
07C0
03C0
03C0
03C0
ENDCHAR
STARTCHAR uni03DB
ENCODING 987
SWIDTH 498 0
DWIDTH 12 0
BBX 11 18 1 -5
BITMAP
0FC0
3FE0
7FE0
7820
F000
F000
F000
F000
F000
F800
7F00
3FC0
07E0
01E0
01E0
1FE0
1FC0
1F80
ENDCHAR
STARTCHAR uni03DC
ENCODING 988
SWIDTH 553 0
DWIDTH 13 0
BBX 10 17 2 0
BITMAP
FFC0
FFC0
FFC0
F000
F000
F000
F000
FF80
FF80
FF80
F380
F380
F380
F000
F000
F000
F000
ENDCHAR
STARTCHAR uni03DD
ENCODING 989
SWIDTH 519 0
DWIDTH 12 0
BBX 9 19 2 -6
BITMAP
FF80
FF80
FF80
E000
E000
E000
E000
FF80
FF80
FF80
E380
E380
E000
E000
E000
E000
E000
E000
E000
ENDCHAR
STARTCHAR uni03DE
ENCODING 990
SWIDTH 500 0
DWIDTH 12 0
BBX 12 17 0 0
BITMAP
F000
F800
FC00
3C00
3C00
3800
3800
7FE0
7FE0
7FE0
01C0
01C0
03C0
0380
03F0
03F0
01F0
ENDCHAR
STARTCHAR uni03DF
ENCODING 991
SWIDTH 550 0
DWIDTH 13 0
BBX 11 24 1 -6
BITMAP
7800
7C00
7C00
1C00
1C00
3C00
3800
3800
7800
7060
7FE0
FFE0
FFC0
C1C0
03C0
0380
0380
0780
0700
0700
0F00
0FC0
07C0
03C0
ENDCHAR
STARTCHAR uni03E0
ENCODING 992
SWIDTH 594 0
DWIDTH 14 0
BBX 13 17 0 0
BITMAP
7F00
FFC0
FFE0
43E0
07F0
0FF0
1C70
1078
01F8
07F8
0778
0478
0070
0070
00F0
00F0
00E0
ENDCHAR
STARTCHAR uni03E1
ENCODING 993
SWIDTH 503 0
DWIDTH 12 0
BBX 13 24 -2 -6
BITMAP
C000
7800
7E00
7F00
0F80
07C0
03E0
0FE0
1FF0
18F0
0070
0078
03F8
0FF8
0478
0078
0078
0078
0078
0078
0070
00F0
00F0
00E0
ENDCHAR
STARTCHAR uni03E2
ENCODING 994
SWIDTH 1074 0
DWIDTH 26 0
BBX 22 23 2 -6
BITMAP
F0783C
F0783C
F0783C
F0783C
F0783C
F0783C
F0783C
F0783C
F0783C
F0783C
F0783C
F0783C
F0783C
F8FC7C
FFFFFC
7FBFFC
3E0F3C
00003C
00003C
000078
FFFFF8
FFFFF0
FFFFC0
ENDCHAR
STARTCHAR uni03E3
ENCODING 995
SWIDTH 981 0
DWIDTH 24 0
BBX 20 19 2 -6
BITMAP
E0F0F0
E0F0F0
E0F0F0
E0F0F0
E0F0F0
E0F0F0
E0F0F0
E0F0F0
E0F0F0
F1F0F0
FFFFF0
7F7F70
3E3E70
0000F0
0000F0
0000F0
FFFFE0
FFFFC0
FFFF80
ENDCHAR
STARTCHAR uni03E4
ENCODING 996
SWIDTH 705 0
DWIDTH 17 0
BBX 14 17 1 0
BITMAP
1FBC
3FBC
7F3C
F83C
F03C
F03C
F03C
F07C
F8FC
7FFC
3FFC
1F3C
003C
003C
003C
003C
003C
ENDCHAR
STARTCHAR uni03E5
ENCODING 997
SWIDTH 632 0
DWIDTH 15 0
BBX 12 19 1 -6
BITMAP
1E70
3E70
7E70
F070
F070
F070
F070
F070
F0F0
F8F0
7FF0
7F70
1E70
0070
0070
0070
0070
0070
0070
ENDCHAR
STARTCHAR uni03E6
ENCODING 998
SWIDTH 683 0
DWIDTH 16 0
BBX 13 23 2 -6
BITMAP
F000
F000
F000
F000
F000
F000
FF80
FFE0
FFF0
F1F0
F070
F078
F078
F078
F078
F078
F078
0078
00F0
11F0
1FE0
1FC0
1F80
ENDCHAR
STARTCHAR uni03E7
ENCODING 999
SWIDTH 573 0
DWIDTH 14 0
BBX 11 19 2 -6
BITMAP
E000
E000
E000
E000
FF00
FF80
FFC0
E3E0
E1E0
E0E0
E0E0
E0E0
E0E0
00E0
01E0
23C0
3FC0
3F80
3F00
ENDCHAR
STARTCHAR uni03E8
ENCODING 1000
SWIDTH 562 0
DWIDTH 13 0
BBX 11 17 1 0
BITMAP
1F00
7FC0
7FE0
F1E0
F1E0
F1E0
43E0
0FC0
3F80
7F00
F800
F000
F000
F060
FFE0
7FE0
1F80
ENDCHAR
STARTCHAR uni03E9
ENCODING 1001
SWIDTH 519 0
DWIDTH 12 0
BBX 10 19 1 -6
BITMAP
3F00
7F80
FFC0
E3C0
E1C0
E1C0
43C0
07C0
1F80
7F00
7C00
F000
E000
E000
E000
F040
FFC0
7FC0
3F80
ENDCHAR
STARTCHAR uni03EA
ENCODING 1002
SWIDTH 658 0
DWIDTH 16 0
BBX 14 17 1 0
BITMAP
3CF0
3FF0
3FF0
07C0
0780
0780
0FC0
0FC0
1CE0
1CE0
3870
3870
7038
F03C
FFFC
FFFC
FFFC
ENDCHAR
STARTCHAR uni03EB
ENCODING 1003
SWIDTH 539 0
DWIDTH 13 0
BBX 13 13 0 0
BITMAP
3CF0
3FE0
3FE0
0700
0780
0F80
1DC0
1DC0
38E0
7070
7FF0
FFF8
FFF8
ENDCHAR
STARTCHAR uni03EC
ENCODING 1004
SWIDTH 777 0
DWIDTH 19 0
BBX 17 17 1 0
BITMAP
03F800
0FFE00
3FFE00
3E0400
780000
79F800
77FE00
FFFF00
FC1F00
F80700
F00780
700780
780F00
7C1F00
3FFE00
1FFC00
07F000
ENDCHAR
STARTCHAR uni03ED
ENCODING 1005
SWIDTH 619 0
DWIDTH 15 0
BBX 13 13 1 0
BITMAP
0FE0
3FF0
7FE0
7820
F7E0
F7F0
F7F8
F078
F078
7878
7FF0
3FF0
0FC0
ENDCHAR
STARTCHAR uni03EE
ENCODING 1006
SWIDTH 657 0
DWIDTH 16 0
BBX 16 17 0 0
BITMAP
03C0
03C0
03C0
03C0
3FFC
7FFE
FFFE
F3C7
63C6
03C0
03C0
03C0
03C0
03C0
03C0
03C0
03C0
ENDCHAR
STARTCHAR uni03EF
ENCODING 1007
SWIDTH 553 0
DWIDTH 13 0
BBX 13 18 0 0
BITMAP
0780
0780
0780
0780
0780
3FF8
7FF8
FFF8
E780
E780
0780
0780
0780
0780
0780
0780
0780
0780
ENDCHAR
STARTCHAR uni03F0
ENCODING 1008
SWIDTH 645 0
DWIDTH 15 0
BBX 15 13 0 0
BITMAP
F01C
F83C
FC78
3CF8
1CF8
1DF0
1FF0
1F70
3E70
3E70
3C7E
383E
701E
ENDCHAR
STARTCHAR uni03F1
ENCODING 1009
SWIDTH 619 0
DWIDTH 15 0
BBX 13 19 1 -6
BITMAP
0F80
3FE0
3FF0
78F0
7078
F078
F078
F078
F078
F0F0
FFF0
FFE0
F7C0
F000
7800
7F80
3FE0
1FE0
01E0
ENDCHAR
STARTCHAR uni03F2
ENCODING 1010
SWIDTH 514 0
DWIDTH 12 0
BBX 10 13 1 0
BITMAP
1F80
3FC0
7FC0
7800
F000
F000
F000
F000
F000
F840
7FC0
3FC0
1F80
ENDCHAR
STARTCHAR uni03F3
ENCODING 1011
SWIDTH 305 0
DWIDTH 7 0
BBX 8 24 -2 -6
BITMAP
0E
0F
0E
04
00
0E
0E
0E
0E
0E
0E
0E
0E
0E
0E
0E
0E
0E
0E
0E
1E
FE
FC
F8
ENDCHAR
STARTCHAR uni03F4
ENCODING 1012
SWIDTH 795 0
DWIDTH 19 0
BBX 17 17 1 0
BITMAP
07F000
1FFC00
3FFE00
7C1E00
780F00
780F00
700700
FFFF80
FFFF80
FFFF80
700700
780F00
780F00
3C1F00
3FFE00
1FFC00
07F000
ENDCHAR
STARTCHAR uni03F5
ENCODING 1013
SWIDTH 523 0
DWIDTH 13 0
BBX 11 13 1 0
BITMAP
0FC0
3FE0
7FE0
7000
F000
FF80
FF80
F000
F000
7800
7FE0
3FE0
0FC0
ENDCHAR
STARTCHAR uni03F6
ENCODING 1014
SWIDTH 512 0
DWIDTH 12 0
BBX 10 13 1 0
BITMAP
7E00
FF00
7F80
03C0
03C0
7FC0
7FC0
03C0
03C0
03C0
FF80
FF00
7E00
ENDCHAR
STARTCHAR uni03F7
ENCODING 1015
SWIDTH 627 0
DWIDTH 15 0
BBX 12 17 2 0
BITMAP
F000
F000
F000
FF80
FFE0
FFE0
F1F0
F0F0
F0F0
F0F0
F1F0
FFE0
FFC0
FF80
F000
F000
F000
ENDCHAR
STARTCHAR uni03F8
ENCODING 1016
SWIDTH 632 0
DWIDTH 15 0
BBX 12 24 2 -6
BITMAP
E000
E000
E000
E000
E000
E780
EFC0
FFE0
F0F0
F0F0
E0F0
E0F0
E0F0
F0F0
F1F0
FFE0
FFE0
E780
E000
E000
E000
E000
E000
E000
ENDCHAR
STARTCHAR uni03F9
ENCODING 1017
SWIDTH 637 0
DWIDTH 15 0
BBX 13 17 1 0
BITMAP
07E0
1FF8
3FF8
3C30
7800
7800
7000
F000
F000
F000
F000
7800
7800
7C18
3FF8
1FF8
07F0
ENDCHAR
STARTCHAR uni03FA
ENCODING 1018
SWIDTH 942 0
DWIDTH 23 0
BBX 19 17 2 0
BITMAP
F803E0
FC07E0
FC07E0
FE0EE0
EE1FE0
E71DE0
E73DE0
E3B9E0
E3F1E0
E1F1E0
E1E1E0
E001E0
E001E0
E001E0
E001E0
E001E0
E001E0
ENDCHAR
STARTCHAR uni03FB
ENCODING 1019
SWIDTH 821 0
DWIDTH 20 0
BBX 16 19 2 -6
BITMAP
F81F
FC3F
FE7F
EE77
EFF7
E7E7
E3C7
E3C7
E007
E007
E007
E007
E007
E000
E000
E000
E000
E000
E000
ENDCHAR
STARTCHAR uni03FC
ENCODING 1020
SWIDTH 618 0
DWIDTH 15 0
BBX 14 19 0 -6
BITMAP
07C0
1FF0
3FF8
3C78
383C
783C
783C
783C
783C
7878
7FF8
7FF0
7BE0
7800
7800
FF80
FF80
7800
7800
ENDCHAR
STARTCHAR uni03FD
ENCODING 1021
SWIDTH 637 0
DWIDTH 15 0
BBX 13 17 1 0
BITMAP
3F00
FFC0
FFE0
41F0
00F0
00F0
0078
0078
0078
0078
0078
00F0
00F0
C1F0
FFE0
FFC0
7F00
ENDCHAR
STARTCHAR uni03FE
ENCODING 1022
SWIDTH 637 0
DWIDTH 15 0
BBX 13 17 1 0
BITMAP
07E0
1FF8
3FF8
3C30
7800
7800
7000
F0E0
F1E0
F1E0
F0E0
7800
7800
7C18
3FF8
1FF8
07F0
ENDCHAR
STARTCHAR uni03FF
ENCODING 1023
SWIDTH 637 0
DWIDTH 15 0
BBX 13 17 1 0
BITMAP
3F00
FFC0
FFE0
41F0
00F0
00F0
0078
1C78
3C78
3C78
1C78
00F0
00F0
C1F0
FFE0
FFC0
7F00
ENDCHAR
STARTCHAR uni0400
ENCODING 1024
SWIDTH 560 0
DWIDTH 13 0
BBX 10 23 2 0
BITMAP
7800
3C00
1C00
0E00
0000
0000
FFC0
FFC0
FFC0
F000
F000
F000
F000
FF80
FF80
FF80
F000
F000
F000
F000
FFC0
FFC0
FFC0
ENDCHAR
STARTCHAR uni0401
ENCODING 1025
SWIDTH 560 0
DWIDTH 13 0
BBX 10 22 2 0
BITMAP
7380
7380
3380
0000
0000
FFC0
FFC0
FFC0
F000
F000
F000
F000
FF80
FF80
FF80
F000
F000
F000
F000
FFC0
FFC0
FFC0
ENDCHAR
STARTCHAR uni0402
ENCODING 1026
SWIDTH 805 0
DWIDTH 19 0
BBX 18 17 0 0
BITMAP
FFF800
FFF800
FFF800
070000
070000
070000
07FE00
07FF80
07FF80
0703C0
0703C0
0703C0
0703C0
0703C0
071F80
071F80
071F00
ENDCHAR
STARTCHAR uni0403
ENCODING 1027
SWIDTH 561 0
DWIDTH 13 0
BBX 11 23 2 0
BITMAP
03C0
0780
0700
0E00
0000
0000
FFE0
FFE0
FFE0
F000
F000
F000
F000
F000
F000
F000
F000
F000
F000
F000
F000
F000
F000
ENDCHAR
STARTCHAR uni0404
ENCODING 1028
SWIDTH 676 0
DWIDTH 16 0
BBX 14 17 1 0
BITMAP
03F0
0FFC
3FFC
3E18
7800
7800
7000
FFE0
FFE0
FFE0
7000
7800
7800
7C0C
3FFC
1FFC
07F0
ENDCHAR
STARTCHAR uni0405
ENCODING 1029
SWIDTH 550 0
DWIDTH 13 0
BBX 11 17 1 0
BITMAP
1F80
3FE0
7FE0
F0C0
F000
F000
7C00
7F00
3F80
0FC0
03E0
01E0
00E0
C1E0
FFE0
FFC0
7F00
ENDCHAR
STARTCHAR uni0406
ENCODING 1030
SWIDTH 389 0
DWIDTH 9 0
BBX 7 17 1 0
BITMAP
FE
FE
7E
38
38
38
38
38
38
38
38
38
38
38
7E
FE
FE
ENDCHAR
STARTCHAR uni0407
ENCODING 1031
SWIDTH 389 0
DWIDTH 9 0
BBX 8 22 1 0
BITMAP
E7
E7
E7
00
00
FE
FE
7E
38
38
38
38
38
38
38
38
38
38
38
7E
FE
FE
ENDCHAR
STARTCHAR uni0408
ENCODING 1032
SWIDTH 331 0
DWIDTH 8 0
BBX 8 22 -2 -5
BITMAP
0F
0F
0F
0F
0F
0F
0F
0F
0F
0F
0F
0F
0F
0F
0F
0F
0F
0F
1E
FE
FC
F8
ENDCHAR
STARTCHAR uni0409
ENCODING 1033
SWIDTH 999 0
DWIDTH 24 0
BBX 23 17 0 0
BITMAP
07FE00
07FE00
07FE00
0F1E00
0F1E00
0F1E00
0E1E00
0E1FF0
0E1FF8
1E1FFC
1E1E1E
1E1E1E
1C1E1E
3C1E3E
FC1FFC
F81FF8
F01FF0
ENDCHAR
STARTCHAR uni040A
ENCODING 1034
SWIDTH 1001 0
DWIDTH 24 0
BBX 21 17 2 0
BITMAP
F07800
F07800
F07800
F07800
F07800
F07800
F07800
FFFFC0
FFFFE0
FFFFF0
F07878
F07878
F07878
F078F8
F07FF0
F07FF0
F07FC0
ENDCHAR
STARTCHAR uni040B
ENCODING 1035
SWIDTH 805 0
DWIDTH 19 0
BBX 18 17 0 0
BITMAP
FFF800
FFF800
FFF800
070000
070000
070000
07FE00
07FF80
07FF80
0703C0
0703C0
0703C0
0703C0
0703C0
0703C0
0703C0
0703C0
ENDCHAR
STARTCHAR uni040C
ENCODING 1036
SWIDTH 671 0
DWIDTH 16 0
BBX 14 23 2 0
BITMAP
01F0
01C0
0380
0700
0000
0000
F078
F078
F0F0
F1E0
F1C0
F3C0
F780
FF00
FF00
F700
F780
F3C0
F1E0
F1E0
F0F0
F078
F03C
ENDCHAR
STARTCHAR uni040D
ENCODING 1037
SWIDTH 823 0
DWIDTH 20 0
BBX 16 23 2 0
BITMAP
1E00
0F00
0380
01C0
0000
0000
E01F
E03F
E03F
E07F
E077
E0F7
E1E7
E1C7
E3C7
E787
E787
EF07
EE07
FE07
FC07
FC07
F807
ENDCHAR
STARTCHAR uni040E
ENCODING 1038
SWIDTH 663 0
DWIDTH 16 0
BBX 16 23 0 0
BITMAP
1C1C
1C3C
1FF8
07F0
0000
0000
F00F
780E
781E
3C1C
3C3C
1E3C
1E38
0F78
0F70
07F0
07E0
03E0
03C0
07C0
7F80
7F00
7E00
ENDCHAR
STARTCHAR uni040F
ENCODING 1039
SWIDTH 745 0
DWIDTH 18 0
BBX 14 22 2 -5
BITMAP
F03C
F03C
F03C
F03C
F03C
F03C
F03C
F03C
F03C
F03C
F03C
F03C
F03C
F03C
FFFC
FFFC
FFFC
0780
0780
0780
0780
0780
ENDCHAR
STARTCHAR uni0410
ENCODING 1040
SWIDTH 689 0
DWIDTH 17 0
BBX 17 17 0 0
BITMAP
03E000
03E000
07F000
077000
077000
0F7800
0E3800
1E3C00
1E3C00
1C1C00
3FFE00
3FFE00
3FFE00
780F00
780F00
780F00
F00780
ENDCHAR
STARTCHAR uni0411
ENCODING 1041
SWIDTH 638 0
DWIDTH 15 0
BBX 12 17 2 0
BITMAP
FFE0
FFE0
FFE0
F000
F000
F000
F000
FF80
FFC0
FFE0
F0F0
F0F0
F0F0
F0F0
FFE0
FFE0
FF80
ENDCHAR
STARTCHAR uni0412
ENCODING 1042
SWIDTH 671 0
DWIDTH 16 0
BBX 13 17 2 0
BITMAP
FF80
FFE0
FFF0
F0F0
F070
F070
F0F0
FFE0
FFC0
FFF0
F0F0
F078
F078
F0F8
FFF0
FFE0
FFC0
ENDCHAR
STARTCHAR uni0413
ENCODING 1043
SWIDTH 561 0
DWIDTH 13 0
BBX 11 17 2 0
BITMAP
FFE0
FFE0
FFE0
F000
F000
F000
F000
F000
F000
F000
F000
F000
F000
F000
F000
F000
F000
ENDCHAR
STARTCHAR uni0414
ENCODING 1044
SWIDTH 764 0
DWIDTH 18 0
BBX 18 22 0 -5
BITMAP
07FE00
07FE00
07FE00
070E00
070E00
070E00
0F0E00
0E0E00
0E0E00
1E0E00
1E0E00
1C0E00
3C0E00
380E00
FFFFC0
FFFFC0
FFFFC0
F003C0
F003C0
F003C0
F003C0
F003C0
ENDCHAR
STARTCHAR uni0415
ENCODING 1045
SWIDTH 560 0
DWIDTH 13 0
BBX 10 17 2 0
BITMAP
FFC0
FFC0
FFC0
F000
F000
F000
F000
FF80
FF80
FF80
F000
F000
F000
F000
FFC0
FFC0
FFC0
ENDCHAR
STARTCHAR uni0416
ENCODING 1046
SWIDTH 942 0
DWIDTH 23 0
BBX 23 17 0 0
BITMAP
70383C
78383C
3C3878
1E38F0
0E38E0
0F39E0
07BBC0
03BB80
03FF80
07BBC0
0739C0
0F39E0
1E38F0
3C3878
3C3878
78383C
F0381E
ENDCHAR
STARTCHAR uni0417
ENCODING 1047
SWIDTH 647 0
DWIDTH 16 0
BBX 14 17 1 0
BITMAP
1FC0
7FF0
7FF8
6078
0038
0038
00F8
1FE0
1FC0
1FF0
0078
003C
003C
C07C
FFF8
FFF0
7FC0
ENDCHAR
STARTCHAR uni0418
ENCODING 1048
SWIDTH 823 0
DWIDTH 20 0
BBX 16 17 2 0
BITMAP
E01F
E03F
E03F
E07F
E077
E0F7
E1E7
E1C7
E3C7
E787
E787
EF07
EE07
FE07
FC07
FC07
F807
ENDCHAR
STARTCHAR uni0419
ENCODING 1049
SWIDTH 823 0
DWIDTH 20 0
BBX 16 23 2 0
BITMAP
383C
3C38
1FF8
0FE0
0000
0000
E01F
E03F
E03F
E07F
E077
E0F7
E1E7
E1C7
E3C7
E787
E787
EF07
EE07
FE07
FC07
FC07
F807
ENDCHAR
STARTCHAR uni041A
ENCODING 1050
SWIDTH 671 0
DWIDTH 16 0
BBX 14 17 2 0
BITMAP
F078
F078
F0F0
F1E0
F1C0
F3C0
F780
FF00
FF00
F700
F780
F3C0
F1E0
F1E0
F0F0
F078
F03C
ENDCHAR
STARTCHAR uni041B
ENCODING 1051
SWIDTH 745 0
DWIDTH 18 0
BBX 16 17 0 0
BITMAP
07FF
07FF
07FF
0F0F
0F0F
0F0F
0F0F
0E0F
0E0F
1E0F
1E0F
1E0F
1E0F
3C0F
FC0F
F80F
F00F
ENDCHAR
STARTCHAR uni041C
ENCODING 1052
SWIDTH 942 0
DWIDTH 23 0
BBX 19 17 2 0
BITMAP
F803E0
FC07E0
FC07E0
FC07E0
EE0FE0
EE0FE0
EE0DE0
E71DE0
E71DE0
E719E0
E7B9E0
E3B9E0
E3B1E0
E3F1E0
E1F1E0
E1E1E0
E1E1E0
ENDCHAR
STARTCHAR uni041D
ENCODING 1053
SWIDTH 765 0
DWIDTH 18 0
BBX 14 17 2 0
BITMAP
F03C
F03C
F03C
F03C
F03C
F03C
F03C
FFFC
FFFC
FFFC
F03C
F03C
F03C
F03C
F03C
F03C
F03C
ENDCHAR
STARTCHAR uni041E
ENCODING 1054
SWIDTH 795 0
DWIDTH 19 0
BBX 17 17 1 0
BITMAP
07F000
1FFC00
3FFE00
7C1E00
780F00
780F00
700700
F00780
F00780
F00780
700700
780F00
780F00
3C1F00
3FFE00
1FFC00
07F000
ENDCHAR
STARTCHAR uni041F
ENCODING 1055
SWIDTH 745 0
DWIDTH 18 0
BBX 14 17 2 0
BITMAP
FFFC
FFFC
FFFC
F03C
F03C
F03C
F03C
F03C
F03C
F03C
F03C
F03C
F03C
F03C
F03C
F03C
F03C
ENDCHAR
STARTCHAR uni0420
ENCODING 1056
SWIDTH 627 0
DWIDTH 15 0
BBX 12 17 2 0
BITMAP
FF80
FFC0
FFE0
F1F0
F0F0
F0F0
F0F0
F1F0
FFE0
FFC0
FF00
F000
F000
F000
F000
F000
F000
ENDCHAR
STARTCHAR uni0421
ENCODING 1057
SWIDTH 637 0
DWIDTH 15 0
BBX 13 17 1 0
BITMAP
07E0
1FF8
3FF8
3C30
7800
7800
7000
F000
F000
F000
F000
7800
7800
7C18
3FF8
1FF8
07F0
ENDCHAR
STARTCHAR uni0422
ENCODING 1058
SWIDTH 579 0
DWIDTH 14 0
BBX 14 17 0 0
BITMAP
FFFC
FFFC
FFFC
0780
0780
0780
0780
0780
0780
0780
0780
0780
0780
0780
0780
0780
0780
ENDCHAR
STARTCHAR uni0423
ENCODING 1059
SWIDTH 663 0
DWIDTH 16 0
BBX 16 17 0 0
BITMAP
F00F
780E
781E
3C1C
3C3C
1E3C
1E38
0F78
0F70
07F0
07E0
03E0
03C0
07C0
7F80
7F00
7E00
ENDCHAR
STARTCHAR uni0424
ENCODING 1060
SWIDTH 859 0
DWIDTH 21 0
BBX 19 17 1 0
BITMAP
00E000
00E000
0FFE00
3FFF80
7FFFC0
78E3C0
F0E1E0
F0E1E0
F0E1E0
F0E1E0
78E3C0
7FFFC0
3FFF80
0FFE00
00E000
00E000
00E000
ENDCHAR
STARTCHAR uni0425
ENCODING 1061
SWIDTH 666 0
DWIDTH 16 0
BBX 16 17 0 0
BITMAP
781E
781E
3C3C
1C38
1E78
0FF0
07E0
07E0
03C0
07E0
0FF0
0EF0
1E78
3C3C
383C
781E
F00F
ENDCHAR
STARTCHAR uni0426
ENCODING 1062
SWIDTH 780 0
DWIDTH 19 0
BBX 16 22 2 -5
BITMAP
F03C
F03C
F03C
F03C
F03C
F03C
F03C
F03C
F03C
F03C
F03C
F03C
F03C
F03C
FFFF
FFFF
FFFF
0007
0007
0007
0007
0007
ENDCHAR
STARTCHAR uni0427
ENCODING 1063
SWIDTH 728 0
DWIDTH 17 0
BBX 14 17 1 0
BITMAP
F03C
F03C
F03C
F03C
F03C
F03C
F03C
F87C
7FFC
7FFC
3FBC
003C
003C
003C
003C
003C
003C
ENDCHAR
STARTCHAR uni0428
ENCODING 1064
SWIDTH 1078 0
DWIDTH 26 0
BBX 22 17 2 0
BITMAP
F0783C
F0783C
F0783C
F0783C
F0783C
F0783C
F0783C
F0783C
F0783C
F0783C
F0783C
F0783C
F0783C
F0783C
FFFFFC
FFFFFC
FFFFFC
ENDCHAR
STARTCHAR uni0429
ENCODING 1065
SWIDTH 1113 0
DWIDTH 27 0
BBX 24 22 2 -5
BITMAP
F0783C
F0783C
F0783C
F0783C
F0783C
F0783C
F0783C
F0783C
F0783C
F0783C
F0783C
F0783C
F0783C
F0783C
FFFFFF
FFFFFF
FFFFFF
000007
000007
000007
000007
000007
ENDCHAR
STARTCHAR uni042A
ENCODING 1066
SWIDTH 727 0
DWIDTH 17 0
BBX 16 17 0 0
BITMAP
FF00
FF00
FF00
0F00
0F00
0F00
0F00
0FF8
0FFE
0FFE
0F0F
0F0F
0F0F
0F0F
0FFE
0FFE
0FF8
ENDCHAR
STARTCHAR uni042B
ENCODING 1067
SWIDTH 905 0
DWIDTH 22 0
BBX 18 17 2 0
BITMAP
F003C0
F003C0
F003C0
F003C0
F003C0
F003C0
F003C0
FF83C0
FFC3C0
FFE3C0
F0F3C0
F0F3C0
F0F3C0
F1F3C0
FFE3C0
FFE3C0
FF83C0
ENDCHAR
STARTCHAR uni042C
ENCODING 1068
SWIDTH 638 0
DWIDTH 15 0
BBX 12 17 2 0
BITMAP
F000
F000
F000
F000
F000
F000
F000
FF80
FFC0
FFE0
F0F0
F0F0
F0F0
F0F0
FFE0
FFE0
FF80
ENDCHAR
STARTCHAR uni042D
ENCODING 1069
SWIDTH 663 0
DWIDTH 16 0
BBX 14 17 1 0
BITMAP
3F80
FFE0
FFF0
60F0
0078
0078
0038
3FFC
3FFC
3FFC
0038
0078
0078
C0F0
FFF0
FFE0
7F80
ENDCHAR
STARTCHAR uni042E
ENCODING 1070
SWIDTH 1069 0
DWIDTH 26 0
BBX 23 17 2 0
BITMAP
F00FC0
F03FF0
F07FF8
F0F878
F0F03C
F0E03C
F1E01C
FFE01E
FFE01E
FFE01E
F1E01C
F1E03C
F0F03C
F0F878
F07FF8
F03FF0
F00FC0
ENDCHAR
STARTCHAR uni042F
ENCODING 1071
SWIDTH 665 0
DWIDTH 16 0
BBX 14 17 0 0
BITMAP
07FC
1FFC
3FFC
3C3C
3C3C
383C
3C3C
3C3C
1FFC
0FFC
0FFC
0F3C
1E3C
3C3C
3C3C
783C
F03C
ENDCHAR
STARTCHAR uni0430
ENCODING 1072
SWIDTH 604 0
DWIDTH 15 0
BBX 12 13 1 0
BITMAP
1F80
7FE0
3FF0
20F0
00F0
1FF0
7FF0
F8F0
F0F0
F0F0
FFF0
7F70
3E70
ENDCHAR
STARTCHAR uni0431
ENCODING 1073
SWIDTH 622 0
DWIDTH 15 0
BBX 13 18 1 0
BITMAP
00F8
0FF8
1FF8
3FC0
7800
7000
F3C0
FFF0
FFF0
F878
F078
F078
F078
7078
78F0
7FF0
3FE0
0F80
ENDCHAR
STARTCHAR uni0432
ENCODING 1074
SWIDTH 639 0
DWIDTH 15 0
BBX 12 13 2 0
BITMAP
FFC0
FFE0
FFF0
E0F0
E0F0
FFE0
FFC0
E1F0
E0F0
E0F0
E3F0
FFE0
FFC0
ENDCHAR
STARTCHAR uni0433
ENCODING 1075
SWIDTH 478 0
DWIDTH 11 0
BBX 8 13 2 0
BITMAP
FF
FF
FF
E0
E0
E0
E0
E0
E0
E0
E0
E0
E0
ENDCHAR
STARTCHAR uni0434
ENCODING 1076
SWIDTH 664 0
DWIDTH 16 0
BBX 16 18 0 -5
BITMAP
0FFC
0FFC
0FFC
0E3C
0E3C
1E3C
1E3C
1C3C
3C3C
3C3C
FFFF
FFFF
FFFF
F00F
F00F
F00F
F00F
F00F
ENDCHAR
STARTCHAR uni0435
ENCODING 1077
SWIDTH 590 0
DWIDTH 14 0
BBX 12 13 1 0
BITMAP
1F80
3FC0
7FE0
70F0
F070
FFF0
FFF0
F000
F000
7800
7FE0
3FE0
0FC0
ENDCHAR
STARTCHAR uni0436
ENCODING 1078
SWIDTH 873 0
DWIDTH 21 0
BBX 21 13 0 0
BITMAP
7870F0
3870E0
3C71E0
1E73C0
0E7780
077700
07FF00
0F7780
0E7380
1C71C0
3C71E0
7870F0
F07078
ENDCHAR
STARTCHAR uni0437
ENCODING 1079
SWIDTH 555 0
DWIDTH 13 0
BBX 11 13 1 0
BITMAP
7F80
FFC0
7FE0
00E0
01E0
1FC0
1F80
0FE0
00E0
81E0
FFE0
FFC0
7F00
ENDCHAR
STARTCHAR uni0438
ENCODING 1080
SWIDTH 720 0
DWIDTH 17 0
BBX 13 13 2 0
BITMAP
E078
E0F8
E1F8
E1F8
E3F8
E7B8
E738
EF38
FE38
FC38
FC38
F838
F038
ENDCHAR
STARTCHAR uni0439
ENCODING 1081
SWIDTH 720 0
DWIDTH 17 0
BBX 13 19 2 0
BITMAP
7070
78F0
3FE0
1FC0
0000
0000
E078
E0F8
E1F8
E1F8
E3F8
E7B8
E738
EF38
FE38
FC38
FC38
F838
F038
ENDCHAR
STARTCHAR uni043A
ENCODING 1082
SWIDTH 619 0
DWIDTH 15 0
BBX 13 13 2 0
BITMAP
E0F0
E1E0
E1C0
E3C0
E780
EF00
FF00
EF00
E780
E3C0
E1E0
E0F0
E0F8
ENDCHAR
STARTCHAR uni043B
ENCODING 1083
SWIDTH 645 0
DWIDTH 15 0
BBX 13 13 0 0
BITMAP
0FF8
1FF8
1FF8
1C38
1C38
1C38
1C38
1C38
3C38
3C38
F838
F838
F038
ENDCHAR
STARTCHAR uni043C
ENCODING 1084
SWIDTH 844 0
DWIDTH 20 0
BBX 16 13 2 0
BITMAP
F81F
F81F
FC3F
FC3F
EE37
EE77
EE77
E7E7
E7E7
E7E7
E3C7
E3C7
E187
ENDCHAR
STARTCHAR uni043D
ENCODING 1085
SWIDTH 662 0
DWIDTH 16 0
BBX 12 13 2 0
BITMAP
E070
E070
E070
E070
E070
FFF0
FFF0
FFF0
E070
E070
E070
E070
E070
ENDCHAR
STARTCHAR uni043E
ENCODING 1086
SWIDTH 619 0
DWIDTH 15 0
BBX 13 13 1 0
BITMAP
0F80
3FE0
7FF0
78F0
F078
F078
F078
F078
F078
78F0
7FF0
3FE0
0F80
ENDCHAR
STARTCHAR uni043F
ENCODING 1087
SWIDTH 651 0
DWIDTH 16 0
BBX 12 13 2 0
BITMAP
FFF0
FFF0
FFF0
F0F0
F0F0
F0F0
F0F0
F0F0
F0F0
F0F0
F0F0
F0F0
F0F0
ENDCHAR
STARTCHAR uni0440
ENCODING 1088
SWIDTH 632 0
DWIDTH 15 0
BBX 12 19 2 -6
BITMAP
E780
EFC0
FFE0
F1F0
F0F0
E0F0
E0F0
E0F0
F0F0
F1F0
FFE0
EFC0
E780
E000
E000
E000
E000
E000
E000
ENDCHAR
STARTCHAR uni0441
ENCODING 1089
SWIDTH 514 0
DWIDTH 12 0
BBX 10 13 1 0
BITMAP
1F80
3FC0
7FC0
7800
F000
F000
F000
F000
F000
F840
7FC0
3FC0
1F80
ENDCHAR
STARTCHAR uni0442
ENCODING 1090
SWIDTH 553 0
DWIDTH 13 0
BBX 11 13 1 0
BITMAP
FFE0
FFE0
FFE0
0E00
0E00
0E00
0E00
0E00
0E00
0E00
0E00
0E00
0E00
ENDCHAR
STARTCHAR uni0443
ENCODING 1091
SWIDTH 568 0
DWIDTH 14 0
BBX 14 19 0 -6
BITMAP
F03C
7838
7878
7878
3C70
3CF0
1CF0
1EE0
1FE0
0FC0
0FC0
07C0
0780
0780
0700
0F00
7E00
7E00
7800
ENDCHAR
STARTCHAR uni0444
ENCODING 1092
SWIDTH 813 0
DWIDTH 20 0
BBX 18 24 1 -6
BITMAP
01E000
01E000
01E000
01E000
01E000
07F800
3FFE00
7FFF00
79E780
F1E380
F1E3C0
F1E3C0
F1E3C0
F1E3C0
79E780
3FFF00
1FFE00
07F800
01E000
01E000
01E000
01E000
01E000
01E000
ENDCHAR
STARTCHAR uni0445
ENCODING 1093
SWIDTH 578 0
DWIDTH 14 0
BBX 14 13 0 0
BITMAP
7878
7878
3CF0
1FE0
1FE0
0FC0
0F80
0FC0
1FE0
3CF0
3CF0
7878
F87C
ENDCHAR
STARTCHAR uni0446
ENCODING 1094
SWIDTH 687 0
DWIDTH 17 0
BBX 15 18 2 -5
BITMAP
F078
F078
F078
F078
F078
F078
F078
F078
F078
F078
FFFE
FFFE
FFFE
001E
001E
001E
001E
001E
ENDCHAR
STARTCHAR uni0447
ENCODING 1095
SWIDTH 655 0
DWIDTH 16 0
BBX 13 13 1 0
BITMAP
F078
F078
F078
F078
F078
7078
7FF8
7FF8
3F78
0078
0078
0078
0078
ENDCHAR
STARTCHAR uni0448
ENCODING 1096
SWIDTH 969 0
DWIDTH 23 0
BBX 19 13 2 0
BITMAP
E0E0E0
E0E0E0
E0E0E0
E0E0E0
E0E0E0
E0E0E0
E0E0E0
E0E0E0
E0E0E0
E0E0E0
FFFFE0
FFFFE0
FFFFE0
ENDCHAR
STARTCHAR uni0449
ENCODING 1097
SWIDTH 984 0
DWIDTH 24 0
BBX 22 18 2 -5
BITMAP
E0F0F0
E0F0F0
E0F0F0
E0F0F0
E0F0F0
E0F0F0
E0F0F0
E0F0F0
E0F0F0
E0F0F0
FFFFFC
FFFFFC
FFFFFC
00003C
00003C
00003C
00003C
00003C
ENDCHAR
STARTCHAR uni044A
ENCODING 1098
SWIDTH 709 0
DWIDTH 17 0
BBX 16 13 0 0
BITMAP
FF00
FF00
FF00
0F00
0F00
0FFC
0FFE
0F3F
0F07
0F0F
0F3F
0FFE
0FFC
ENDCHAR
STARTCHAR uni044B
ENCODING 1099
SWIDTH 850 0
DWIDTH 20 0
BBX 16 13 2 0
BITMAP
E007
E007
E007
E007
E007
FF87
FFC7
E7E7
E1E7
E1E7
E7E7
FFC7
FF07
ENDCHAR
STARTCHAR uni044C
ENCODING 1100
SWIDTH 613 0
DWIDTH 15 0
BBX 12 13 2 0
BITMAP
E000
E000
E000
E000
E000
FFC0
FFE0
E3F0
E0F0
E0F0
E3F0
FFE0
FFC0
ENDCHAR
STARTCHAR uni044D
ENCODING 1101
SWIDTH 512 0
DWIDTH 12 0
BBX 10 13 1 0
BITMAP
7E00
FF00
7F80
03C0
03C0
7FC0
7FC0
03C0
03C0
03C0
FF80
FF00
7E00
ENDCHAR
STARTCHAR uni044E
ENCODING 1102
SWIDTH 876 0
DWIDTH 21 0
BBX 18 13 2 0
BITMAP
E07E00
E0FF00
E1FF80
E3C780
E3C3C0
FF83C0
FF83C0
FF83C0
E3C3C0
E3C780
E1FF80
E0FF00
E07E00
ENDCHAR
STARTCHAR uni044F
ENCODING 1103
SWIDTH 592 0
DWIDTH 14 0
BBX 12 13 0 0
BITMAP
1FF0
3FF0
7FF0
7870
7070
7870
3FF0
3FF0
1E70
3C70
3870
7870
F070
ENDCHAR
STARTCHAR uni0450
ENCODING 1104
SWIDTH 590 0
DWIDTH 14 0
BBX 12 19 1 0
BITMAP
3C00
1E00
0700
0380
0000
0000
1F80
3FC0
7FE0
70F0
F070
FFF0
FFF0
F000
F000
7800
7FE0
3FE0
0FC0
ENDCHAR
STARTCHAR uni0451
ENCODING 1105
SWIDTH 590 0
DWIDTH 14 0
BBX 12 18 1 0
BITMAP
18C0
3DE0
18C0
0000
0000
1F80
3FC0
7FE0
70F0
F070
FFF0
FFF0
F000
F000
7800
7FE0
3FE0
0FC0
ENDCHAR
STARTCHAR uni0452
ENCODING 1106
SWIDTH 657 0
DWIDTH 16 0
BBX 14 24 0 -6
BITMAP
3800
3800
FF80
FF80
3C00
3800
39F0
3BF8
3FFC
3C3C
3C3C
3C1C
381C
381C
381C
381C
381C
381C
001C
001C
003C
00FC
00F8
00F0
ENDCHAR
STARTCHAR uni0453
ENCODING 1107
SWIDTH 478 0
DWIDTH 11 0
BBX 9 19 2 0
BITMAP
0780
0F00
1E00
3C00
0000
0000
FF00
FF00
FF00
E000
E000
E000
E000
E000
E000
E000
E000
E000
E000
ENDCHAR
STARTCHAR uni0454
ENCODING 1108
SWIDTH 523 0
DWIDTH 13 0
BBX 11 13 1 0
BITMAP
0FC0
3FE0
7FE0
7000
F000
FF80
FF80
F000
F000
7800
7FE0
3FE0
0FC0
ENDCHAR
STARTCHAR uni0455
ENCODING 1109
SWIDTH 497 0
DWIDTH 12 0
BBX 10 13 1 0
BITMAP
3F80
7FC0
FF80
F080
F800
7E00
3F80
0FC0
03C0
83C0
FFC0
FF80
7F00
ENDCHAR
STARTCHAR uni0456
ENCODING 1110
SWIDTH 305 0
DWIDTH 7 0
BBX 4 18 2 0
BITMAP
E0
F0
E0
40
00
E0
E0
E0
E0
E0
E0
E0
E0
E0
E0
E0
E0
E0
ENDCHAR
STARTCHAR uni0457
ENCODING 1111
SWIDTH 305 0
DWIDTH 7 0
BBX 8 18 0 0
BITMAP
E7
E7
E7
00
00
38
38
38
38
38
38
38
38
38
38
38
38
38
ENDCHAR
STARTCHAR uni0458
ENCODING 1112
SWIDTH 305 0
DWIDTH 7 0
BBX 8 24 -2 -6
BITMAP
0E
0F
0E
04
00
0E
0E
0E
0E
0E
0E
0E
0E
0E
0E
0E
0E
0E
0E
0E
1E
FE
FC
F8
ENDCHAR
STARTCHAR uni0459
ENCODING 1113
SWIDTH 888 0
DWIDTH 21 0
BBX 20 13 0 0
BITMAP
0FF800
0FF800
1FF800
1E7800
1C7800
1C7FC0
1C7FE0
1C79F0
3C7870
3C7870
F879F0
F87FE0
F07FC0
ENDCHAR
STARTCHAR uni045A
ENCODING 1114
SWIDTH 888 0
DWIDTH 21 0
BBX 18 13 2 0
BITMAP
E1E000
E1E000
E1E000
E1E000
E1E000
FFFF00
FFFF80
FFE7C0
E1E1C0
E1E1C0
E1E7C0
E1FF80
E1FF00
ENDCHAR
STARTCHAR uni045B
ENCODING 1115
SWIDTH 657 0
DWIDTH 16 0
BBX 14 18 0 0
BITMAP
3800
3800
FF80
FF80
3C00
3800
39F0
3BF8
3FFC
3C3C
3C3C
3C1C
381C
381C
381C
381C
381C
381C
ENDCHAR
STARTCHAR uni045C
ENCODING 1116
SWIDTH 619 0
DWIDTH 15 0
BBX 13 19 2 0
BITMAP
01E0
03C0
0700
0E00
0000
0000
E0F0
E1E0
E1C0
E3C0
E780
EF00
FF00
EF00
E780
E3C0
E1E0
E0F0
E0F8
ENDCHAR
STARTCHAR uni045D
ENCODING 1117
SWIDTH 720 0
DWIDTH 17 0
BBX 13 19 2 0
BITMAP
3E00
1E00
0700
0380
0000
0000
E078
E0F8
E1F8
E1F8
E3F8
E7B8
E738
EF38
FE38
FC38
FC38
F838
F038
ENDCHAR
STARTCHAR uni045E
ENCODING 1118
SWIDTH 568 0
DWIDTH 14 0
BBX 14 25 0 -6
BITMAP
7078
7870
3FF0
1FC0
0000
0000
F03C
7838
7878
7878
3C70
3CF0
1CF0
1EE0
1FE0
0FC0
0FC0
07C0
0780
0780
0700
0F00
7E00
7E00
7800
ENDCHAR
STARTCHAR uni045F
ENCODING 1119
SWIDTH 671 0
DWIDTH 16 0
BBX 12 18 2 -5
BITMAP
E070
E070
E070
E070
E070
E070
E070
E070
E070
E070
FFF0
FFF0
FFF0
0F00
0F00
0F00
0F00
0F00
ENDCHAR
STARTCHAR uni0460
ENCODING 1120
SWIDTH 1087 0
DWIDTH 26 0
BBX 24 17 1 0
BITMAP
0F81F0
1FE7F8
3FC3FC
78421E
78001E
70000E
F0000F
F0000F
F0000F
F03C0F
703C0E
783C1E
783C1E
3E7C7C
3FFFFC
1FFFF8
07C3E0
ENDCHAR
STARTCHAR uni0461
ENCODING 1121
SWIDTH 884 0
DWIDTH 21 0
BBX 20 13 0 0
BITMAP
F0F070
70F0F0
78F0F0
7878F0
3878F0
3CF8F0
3CF8E0
1CFDE0
1FFDE0
1FDFC0
0F9F80
0F8F80
0F8F00
ENDCHAR
STARTCHAR uni0462
ENCODING 1122
SWIDTH 672 0
DWIDTH 16 0
BBX 15 17 0 0
BITMAP
1E00
1E00
FFE0
FFE0
FFE0
1E00
1E00
1FF0
1FF8
1FFC
1E1E
1E1E
1E1E
1E3E
1FFC
1FF8
1FF0
ENDCHAR
STARTCHAR uni0463
ENCODING 1123
SWIDTH 662 0
DWIDTH 16 0
BBX 15 15 0 0
BITMAP
1E00
1E00
FFE0
FFE0
FFE0
1E00
1E00
1FF8
1FFC
1E7E
1E1E
1E1E
1E7E
1FFC
1FF8
ENDCHAR
STARTCHAR uni0464
ENCODING 1124
SWIDTH 950 0
DWIDTH 23 0
BBX 20 17 2 0
BITMAP
F00FC0
F03FF0
F0FFF0
F0F860
F1E000
F1E000
F3C000
FFFF80
FFFF80
FFFF80
F3C000
F3C000
F1E000
F1F030
F0FFF0
F07FF0
F01FC0
ENDCHAR
STARTCHAR uni0465
ENCODING 1125
SWIDTH 799 0
DWIDTH 19 0
BBX 16 13 2 0
BITMAP
E07E
E1FF
E1FE
E3C0
E3C0
FFFC
FFFC
FFFC
E3C0
E3C0
E1FF
E0FF
E07E
ENDCHAR
STARTCHAR uni0466
ENCODING 1126
SWIDTH 729 0
DWIDTH 18 0
BBX 18 17 0 0
BITMAP
03E000
03F000
03F000
07F800
073800
073800
0E1C00
0FFC00
1FFE00
1FFE00
1DEE00
3DEF00
39E700
79E780
79E780
71E380
F1E3C0
ENDCHAR
STARTCHAR uni0467
ENCODING 1127
SWIDTH 640 0
DWIDTH 15 0
BBX 15 13 0 0
BITMAP
07C0
07C0
0EE0
0EE0
0EE0
1C70
1FF0
3FF8
3BB8
7BBC
739C
739C
F39E
ENDCHAR
STARTCHAR uni0468
ENCODING 1128
SWIDTH 1004 0
DWIDTH 24 0
BBX 22 17 2 0
BITMAP
F01F00
F01F00
F03F00
F03B80
F07380
F071C0
F071C0
FFFFC0
FFFFE0
FFFFE0
F1CEF0
F1CE70
F3CE70
F38E78
F38E38
F78E38
F70E3C
ENDCHAR
STARTCHAR uni0469
ENCODING 1129
SWIDTH 901 0
DWIDTH 22 0
BBX 20 13 2 0
BITMAP
E03E00
E07E00
E07E00
E0F700
E0E700
FFFF80
FFFF80
FFDDC0
E39DC0
E39DC0
E79CE0
E71CE0
E71CF0
ENDCHAR
STARTCHAR uni046A
ENCODING 1130
SWIDTH 804 0
DWIDTH 19 0
BBX 17 17 1 0
BITMAP
7FFF00
7FFF00
3FFE00
1C1E00
1E3C00
0F7800
077000
0FF800
1FFC00
3FFE00
39CE00
79CF00
71C700
71C700
F1C780
F1C780
E1C380
ENDCHAR
STARTCHAR uni046B
ENCODING 1131
SWIDTH 623 0
DWIDTH 15 0
BBX 15 13 0 0
BITMAP
7FFC
3FFC
3C38
1E70
0FE0
0FE0
1FF0
3BB8
3BB8
739C
739C
739C
E38E
ENDCHAR
STARTCHAR uni046C
ENCODING 1132
SWIDTH 1073 0
DWIDTH 26 0
BBX 23 17 2 0
BITMAP
F1FFFC
F1FFFC
F1FFF8
F0F070
F078F0
F079E0
F03FC0
FFFFE0
FFFFF0
FFFFF8
F0EF78
F1CF3C
F1CF3C
F3CF1C
F38F1E
F78F1E
F78F0E
ENDCHAR
STARTCHAR uni046D
ENCODING 1133
SWIDTH 879 0
DWIDTH 21 0
BBX 19 13 2 0
BITMAP
E7FFC0
E3FFC0
E3C380
E1E700
E0FE00
FFFE00
FFFF00
FFFB80
E3BB80
E339C0
E739C0
E739C0
E738E0
ENDCHAR
STARTCHAR uni046E
ENCODING 1134
SWIDTH 631 0
DWIDTH 15 0
BBX 14 26 0 -5
BITMAP
1838
1CF8
0EC0
07C0
1FE0
7FF0
7FF8
3078
0038
0038
0078
1FF0
1FC0
1FF8
007C
003C
003C
003C
07F8
3FF8
7FE0
7800
F000
7FE0
7FF0
3FF0
ENDCHAR
STARTCHAR uni046F
ENCODING 1135
SWIDTH 555 0
DWIDTH 13 0
BBX 12 21 0 -5
BITMAP
3870
1DF0
0F80
3FC0
7FE0
3FF0
0070
00F0
0FE0
0FC0
07F0
0070
0070
07F0
3FE0
7FC0
F000
E000
FFC0
7FC0
3FC0
ENDCHAR
STARTCHAR uni0470
ENCODING 1136
SWIDTH 875 0
DWIDTH 21 0
BBX 19 17 1 0
BITMAP
F0E1E0
F0E1E0
F0E1E0
F0E1E0
F0E1E0
F0E1E0
F0E1E0
F0E1E0
78E3C0
7FFFC0
3FFF80
0FFE00
00E000
00E000
00E000
00E000
00E000
ENDCHAR
STARTCHAR uni0471
ENCODING 1137
SWIDTH 836 0
DWIDTH 20 0
BBX 17 24 2 -6
BITMAP
03C000
03C000
03C000
03C000
03C000
E3C700
E3C700
E3C700
E3C780
E3C780
E3C780
E3C780
E3C780
E3C700
F3CF00
7FFF00
3FFC00
1FF800
03C000
03C000
03C000
03C000
03C000
03C000
ENDCHAR
STARTCHAR uni0472
ENCODING 1138
SWIDTH 795 0
DWIDTH 19 0
BBX 17 17 1 0
BITMAP
07F000
1FFC00
3FFE00
7C1E00
780F00
780F00
700700
FFFF80
FFFF80
FFFF80
700700
780F00
780F00
3C1F00
3FFE00
1FFC00
07F000
ENDCHAR
STARTCHAR uni0473
ENCODING 1139
SWIDTH 619 0
DWIDTH 15 0
BBX 13 13 1 0
BITMAP
0F80
3FE0
7FF0
78F0
F078
FFF8
FFF8
F078
F078
78F0
7FF0
3FE0
0F80
ENDCHAR
STARTCHAR uni0474
ENCODING 1140
SWIDTH 716 0
DWIDTH 17 0
BBX 17 17 0 0
BITMAP
F00780
700F80
701F80
781E00
381C00
383C00
3C3800
1C3800
1C7800
1E7000
0E7000
0EF000
0EE000
07E000
07E000
07C000
03C000
ENDCHAR
STARTCHAR uni0475
ENCODING 1141
SWIDTH 604 0
DWIDTH 15 0
BBX 15 13 0 0
BITMAP
F01E
703E
783E
7878
3870
3CF0
1CF0
1CE0
1FE0
0FC0
0FC0
07C0
0780
ENDCHAR
STARTCHAR uni0476
ENCODING 1142
SWIDTH 716 0
DWIDTH 17 0
BBX 17 23 0 0
BITMAP
3DC000
1CE000
0E6000
063000
000000
000000
F00780
700F80
701F80
781E00
381C00
383C00
3C3800
1C3800
1C7800
1E7000
0E7000
0EF000
0EE000
07E000
07E000
07C000
03C000
ENDCHAR
STARTCHAR uni0477
ENCODING 1143
SWIDTH 604 0
DWIDTH 15 0
BBX 15 19 0 0
BITMAP
7B80
39C0
1CC0
0C60
0000
0000
F01E
703E
783E
7878
3870
3CF0
1CF0
1CE0
1FE0
0FC0
0FC0
07C0
0780
ENDCHAR
STARTCHAR uni0478
ENCODING 1144
SWIDTH 1318 0
DWIDTH 32 0
BBX 31 23 1 -6
BITMAP
07E00000
1FF80000
3FFC0000
7C3E0000
781E781E
780F3C1C
F00F3C3C
F00F1C3C
F00F1E38
F00F1E78
700F0E78
780F0F70
781E07F0
7C3E07E0
3FFC07E0
1FF803E0
07E003C0
000003C0
000003C0
00000780
00003F80
00003F00
00003C00
ENDCHAR
STARTCHAR uni0479
ENCODING 1145
SWIDTH 1145 0
DWIDTH 27 0
BBX 27 19 1 -6
BITMAP
0F8781E0
3FE783C0
7FF3C3C0
78F3C3C0
F079C780
F079E780
F079E700
F078EF00
F078FF00
78F07E00
7FF07E00
3FE03C00
0F803C00
00003C00
00003800
00007800
0003F000
0003F000
0003C000
ENDCHAR
STARTCHAR uni047A
ENCODING 1146
SWIDTH 835 0
DWIDTH 20 0
BBX 18 19 1 -1
BITMAP
00E000
07F800
1FFE00
3FFF00
3CCF00
780780
780780
700380
F003C0
F003C0
F003C0
700380
780780
780780
3CCF00
3FFF00
1FFE00
07F800
01E000
ENDCHAR
STARTCHAR uni047B
ENCODING 1147
SWIDTH 679 0
DWIDTH 16 0
BBX 14 15 1 -1
BITMAP
0300
0FC0
3FF0
7FF8
7338
F03C
F03C
F03C
F03C
F03C
7138
7FF8
3FF0
0FE0
0300
ENDCHAR
STARTCHAR uni047C
ENCODING 1148
SWIDTH 1087 0
DWIDTH 26 0
BBX 24 26 1 0
BITMAP
007800
00FF00
00EF80
00C380
001800
003C00
000C00
001800
003000
0F81F0
1FC3F8
3FC3FC
78421E
78001E
70000E
F0000F
F0000F
F0000F
F0000F
70000E
78001E
78181E
3C3E3C
3FFFFC
1FFFF8
07C3E0
ENDCHAR
STARTCHAR uni047D
ENCODING 1149
SWIDTH 890 0
DWIDTH 21 0
BBX 19 22 1 0
BITMAP
03C000
03F800
077C00
061C00
00E000
00E000
006000
006000
00C000
1F1F00
3F1FC0
7F1FC0
F001E0
F001E0
F001E0
F001E0
F001E0
F001E0
7843E0
7FFFC0
3FFF80
1F1F00
ENDCHAR
STARTCHAR uni047E
ENCODING 1150
SWIDTH 1087 0
DWIDTH 26 0
BBX 24 22 1 0
BITMAP
01FF80
01FF80
008900
000000
000000
0F81F0
1FE7F8
3FC3FC
78421E
78001E
70000E
F0000F
F0000F
F0000F
F03C0F
703C0E
783C1E
783C1E
3E7C7C
3FFFFC
1FFFF8
07C3E0
ENDCHAR
STARTCHAR uni047F
ENCODING 1151
SWIDTH 884 0
DWIDTH 21 0
BBX 20 17 0 0
BITMAP
07FE00
03FE00
022600
000000
F0F070
70F0F0
78F0F0
7878F0
3878F0
3CF8F0
3CF8E0
1CFDE0
1FFDE0
1FDFC0
0F9F80
0F8F80
0F8F00
ENDCHAR
STARTCHAR uni0480
ENCODING 1152
SWIDTH 676 0
DWIDTH 16 0
BBX 14 23 1 -6
BITMAP
03F0
0FFC
3FFC
3E18
7800
7800
7000
F000
F000
F000
7000
7800
7800
3E00
3FF8
1FF8
07F8
0078
0078
0078
0078
0078
0078
ENDCHAR
STARTCHAR uni0481
ENCODING 1153
SWIDTH 523 0
DWIDTH 13 0
BBX 11 19 1 -6
BITMAP
0FC0
3FE0
7FC0
7840
F000
F000
F000
F000
F000
7800
7FC0
3FC0
0FC0
03C0
03C0
03C0
03C0
03C0
03C0
ENDCHAR
STARTCHAR uni0482
ENCODING 1154
SWIDTH 608 0
DWIDTH 15 0
BBX 13 15 1 0
BITMAP
0020
0060
0CC0
0FC0
0380
01E0
0378
4610
E600
3C00
0E00
1F80
3980
3000
2000
ENDCHAR
STARTCHAR uni0483
ENCODING 1155
SWIDTH 557 0
DWIDTH 13 0
BBX 9 4 2 13
BITMAP
0180
FF80
FF00
C000
ENDCHAR
STARTCHAR uni0484
ENCODING 1156
SWIDTH 577 0
DWIDTH 14 0
BBX 9 4 3 14
BITMAP
0F00
7F80
FF80
E180
ENDCHAR
STARTCHAR uni0485
ENCODING 1157
SWIDTH 577 0
DWIDTH 14 0
BBX 4 5 5 14
BITMAP
70
F0
E0
60
30
ENDCHAR
STARTCHAR uni0486
ENCODING 1158
SWIDTH 577 0
DWIDTH 14 0
BBX 4 5 5 14
BITMAP
70
F0
30
70
C0
ENDCHAR
STARTCHAR uni0487
ENCODING 1159
SWIDTH 0 0
DWIDTH 0 0
BBX 10 4 -5 18
BITMAP
3C00
7F00
FFC0
E3C0
ENDCHAR
STARTCHAR uni0488
ENCODING 1160
SWIDTH 988 0
DWIDTH 24 0
BBX 22 20 1 -3
BITMAP
007800
00C800
000000
3C00E0
240110
000000
000000
000000
000000
F0003C
900024
000000
000000
000000
000000
3C00E0
240110
000000
007800
00C800
ENDCHAR
STARTCHAR uni0489
ENCODING 1161
SWIDTH 956 0
DWIDTH 23 0
BBX 23 22 0 -5
BITMAP
001800
001000
081000
083000
0C0030
0600E0
040080
000000
000000
000020
C0003C
780006
180000
000000
000000
000040
0200C0
0E0060
181860
001020
001000
003000
ENDCHAR
STARTCHAR uni048A
ENCODING 1162
SWIDTH 916 0
DWIDTH 22 0
BBX 19 27 2 -5
BITMAP
383800
3C3800
1FF800
0FE000
000000
E01F00
E03F00
E03F00
E07F00
E0F700
E0FF00
E1EF00
E1CF00
E3CF00
E78F00
E78F00
EF0F00
EE0F00
FE0F00
FC0FE0
F80FE0
F80FE0
0001E0
0001C0
0003C0
0003C0
0003C0
ENDCHAR
STARTCHAR uni048B
ENCODING 1163
SWIDTH 801 0
DWIDTH 19 0
BBX 17 23 2 -5
BITMAP
707000
78F000
3FE000
1FC000
000000
E07800
E0F800
E1F800
E1F800
E3F800
E7B800
E73800
EF3800
FE3800
FC3800
FC3F80
F83F00
F03F00
000700
000700
000F00
000E00
000E00
ENDCHAR
STARTCHAR uni048C
ENCODING 1164
SWIDTH 616 0
DWIDTH 15 0
BBX 13 17 1 0
BITMAP
7800
7800
FF00
FF00
FF00
7800
7800
7FC0
7FF0
7FF8
7878
7838
7838
7878
7FF8
7FF0
7FC0
ENDCHAR
STARTCHAR uni048D
ENCODING 1165
SWIDTH 613 0
DWIDTH 15 0
BBX 14 18 0 0
BITMAP
3800
3800
3800
FFC0
FFC0
3800
3800
3800
3800
3800
3FF0
3FF8
38FC
383C
383C
38FC
3FF8
3FF0
ENDCHAR
STARTCHAR uni048E
ENCODING 1166
SWIDTH 627 0
DWIDTH 15 0
BBX 12 17 2 0
BITMAP
FF80
FFC0
FFE0
F1F0
F0F0
F0F0
F6F0
F7F0
FFE0
FFC0
FFC0
F0E0
F000
F000
F000
F000
F000
ENDCHAR
STARTCHAR uni048F
ENCODING 1167
SWIDTH 632 0
DWIDTH 15 0
BBX 12 19 2 -6
BITMAP
E780
EFC0
FFE0
F0F0
F0F0
E0F0
E0F0
E2F0
F7F0
F3F0
FFE0
EFC0
E7E0
E060
E000
E000
E000
E000
E000
ENDCHAR
STARTCHAR uni0490
ENCODING 1168
SWIDTH 581 0
DWIDTH 14 0
BBX 12 21 2 0
BITMAP
00F0
00F0
00F0
00F0
FFF0
FFF0
FFF0
F000
F000
F000
F000
F000
F000
F000
F000
F000
F000
F000
F000
F000
F000
ENDCHAR
STARTCHAR uni0491
ENCODING 1169
SWIDTH 512 0
DWIDTH 12 0
BBX 9 17 2 0
BITMAP
0380
0380
0380
0380
FF80
FF80
FF80
E000
E000
E000
E000
E000
E000
E000
E000
E000
E000
ENDCHAR
STARTCHAR uni0492
ENCODING 1170
SWIDTH 559 0
DWIDTH 13 0
BBX 13 17 0 0
BITMAP
3FF8
3FF8
3FF8
3C00
3C00
3C00
3C00
FFC0
FFC0
FFC0
3C00
3C00
3C00
3C00
3C00
3C00
3C00
ENDCHAR
STARTCHAR uni0493
ENCODING 1171
SWIDTH 491 0
DWIDTH 12 0
BBX 11 13 0 0
BITMAP
3FE0
3FE0
3FE0
3800
3800
FF80
FF80
FF80
3800
3800
3800
3800
3800
ENDCHAR
STARTCHAR uni0494
ENCODING 1172
SWIDTH 733 0
DWIDTH 18 0
BBX 15 23 2 -6
BITMAP
FFE0
FFE0
FFE0
F000
F000
F000
F000
F000
FFC0
FFF0
FFF8
F1FC
F03C
F01C
F01E
F01E
F01E
001E
003C
087C
0FF8
0FF0
07E0
ENDCHAR
STARTCHAR uni0495
ENCODING 1173
SWIDTH 602 0
DWIDTH 14 0
BBX 11 19 2 -6
BITMAP
FF80
FF80
FF80
E000
E000
E000
FF00
FF80
FFC0
E3E0
E1E0
E0E0
E0E0
00E0
01E0
01E0
1FC0
1FC0
1F00
ENDCHAR
STARTCHAR uni0496
ENCODING 1174
SWIDTH 1028 0
DWIDTH 25 0
BBX 24 22 0 -5
BITMAP
70383C
78383C
3C3878
1E38F0
0E38E0
0F39E0
07BBC0
03BB80
03FF80
07BBC0
0739C0
0F39E0
1E38F0
3C3870
3C387F
78383F
F0381F
000007
000007
000007
000007
000007
ENDCHAR
STARTCHAR uni0497
ENCODING 1175
SWIDTH 941 0
DWIDTH 23 0
BBX 22 18 0 -5
BITMAP
787070
3870F0
3C71E0
1E73C0
0F7380
077780
07FF00
0F7780
0E73C0
1E71E0
3C71FC
7870FC
F0707C
00001C
00001C
00001C
00001C
00001C
ENDCHAR
STARTCHAR uni0498
ENCODING 1176
SWIDTH 647 0
DWIDTH 16 0
BBX 14 23 1 -6
BITMAP
1FC0
7FF0
7FF8
6078
0038
0038
00F8
1FE0
1FC0
1FF0
0078
003C
003C
C07C
FFF8
FFF0
7FC0
0600
0300
0380
0380
0F00
0F00
ENDCHAR
STARTCHAR uni0499
ENCODING 1177
SWIDTH 555 0
DWIDTH 13 0
BBX 11 19 1 -6
BITMAP
7F80
FFC0
7FE0
00E0
01E0
1FC0
1F80
0FE0
00E0
81E0
FFE0
FFC0
7F00
0C00
0600
0600
0600
1E00
1C00
ENDCHAR
STARTCHAR uni049A
ENCODING 1178
SWIDTH 755 0
DWIDTH 18 0
BBX 16 22 2 -5
BITMAP
F078
F078
F0F0
F1E0
F1C0
F3C0
F780
FF00
FF00
F700
F780
F3C0
F1E0
F1E0
F0FF
F07F
F03F
000F
000F
000F
000F
000F
ENDCHAR
STARTCHAR uni049B
ENCODING 1179
SWIDTH 665 0
DWIDTH 16 0
BBX 14 18 2 -5
BITMAP
E0F0
E1E0
E3C0
E3C0
E780
EF00
FE00
EF00
E780
E3C0
E1FC
E0FC
E0FC
003C
003C
003C
003C
003C
ENDCHAR
STARTCHAR uni049C
ENCODING 1180
SWIDTH 664 0
DWIDTH 16 0
BBX 14 17 2 0
BITMAP
F07C
F078
F6F0
F7E0
F7C0
F7C0
F780
FF00
FF80
FF80
F7C0
F7E0
F7E0
F6F0
F6F0
F078
F03C
ENDCHAR
STARTCHAR uni049D
ENCODING 1181
SWIDTH 599 0
DWIDTH 14 0
BBX 12 13 2 0
BITMAP
E0E0
EDC0
EF80
EF80
EF00
EE00
FE00
EE00
EF00
EF80
EFC0
EDE0
E0F0
ENDCHAR
STARTCHAR uni049E
ENCODING 1182
SWIDTH 643 0
DWIDTH 15 0
BBX 15 17 0 0
BITMAP
381E
383C
FE78
FEF0
FEF0
39E0
3BC0
3F80
3FC0
3FC0
3DE0
38F0
38F0
3878
3878
383C
381E
ENDCHAR
STARTCHAR uni049F
ENCODING 1183
SWIDTH 620 0
DWIDTH 15 0
BBX 15 18 0 0
BITMAP
3C00
3C00
FF80
FF80
3800
383C
3878
38F0
39E0
3BC0
3BC0
3FC0
3FE0
3CF0
3CF0
3C78
3C3C
3C3E
ENDCHAR
STARTCHAR uni04A0
ENCODING 1184
SWIDTH 732 0
DWIDTH 18 0
BBX 18 17 0 0
BITMAP
FF07C0
FF0780
FF0F00
0F1E00
0F3C00
0F7800
0FF800
0FF000
0FF000
0FF800
0F3C00
0F3C00
0F1E00
0F0F00
0F0F00
0F0780
0F07C0
ENDCHAR
STARTCHAR uni04A1
ENCODING 1185
SWIDTH 694 0
DWIDTH 17 0
BBX 17 13 0 0
BITMAP
FF0F00
FF1E00
FF1C00
0F3C00
0F7800
0FF000
0FE000
0FF000
0F7800
0F3C00
0F1E00
0F0F00
0F0780
ENDCHAR
STARTCHAR uni04A2
ENCODING 1186
SWIDTH 840 0
DWIDTH 20 0
BBX 18 22 2 -5
BITMAP
F03C00
F03C00
F03C00
F03C00
F03C00
F03C00
F03C00
FFFC00
FFFC00
FFFC00
F03C00
F03C00
F03C00
F03C00
F03FC0
F03FC0
F03FC0
0003C0
0003C0
0003C0
0003C0
0003C0
ENDCHAR
STARTCHAR uni04A3
ENCODING 1187
SWIDTH 743 0
DWIDTH 18 0
BBX 15 18 2 -5
BITMAP
E070
E070
E070
E070
E070
FFF0
FFF0
FFF0
E070
E070
E07E
E07E
E07E
000E
000E
000E
000E
000E
ENDCHAR
STARTCHAR uni04A4
ENCODING 1188
SWIDTH 833 0
DWIDTH 20 0
BBX 18 17 2 0
BITMAP
F01FC0
F01FC0
F01FC0
F01C00
F01C00
F01C00
F01C00
FFFC00
FFFC00
FFFC00
F01C00
F01C00
F01C00
F01C00
F01C00
F01C00
F01C00
ENDCHAR
STARTCHAR uni04A5
ENCODING 1189
SWIDTH 757 0
DWIDTH 18 0
BBX 16 13 2 0
BITMAP
E0FF
E0FF
E0FF
E0F0
E0F0
FFF0
FFF0
FFF0
E0F0
E0F0
E0F0
E0F0
E0F0
ENDCHAR
STARTCHAR uni04A6
ENCODING 1190
SWIDTH 1125 0
DWIDTH 27 0
BBX 24 23 2 -6
BITMAP
FFF800
FFF800
FFF800
F03800
F03800
F03800
F03800
F03800
F03FE0
F03FF8
F03FFC
F03C7E
F0381E
F0380F
F0380F
F0380F
F0380F
00000F
00001E
00023E
0003FC
0003FC
0003F0
ENDCHAR
STARTCHAR uni04A7
ENCODING 1191
SWIDTH 889 0
DWIDTH 21 0
BBX 18 19 2 -6
BITMAP
FFE000
FFE000
FFE000
E0E000
E0E000
E0E000
E0FE00
E0FF00
E0FF80
E0E7C0
E0E3C0
E0E1C0
E0E1C0
0001C0
0003C0
0003C0
003F80
003F80
003E00
ENDCHAR
STARTCHAR uni04A8
ENCODING 1192
SWIDTH 776 0
DWIDTH 19 0
BBX 17 18 1 -1
BITMAP
07E000
1FE000
3FC000
7C0000
783C00
78FF00
70FF00
F1E700
F1E780
F1E780
71E780
78E700
78EF00
3E7E00
3FFE00
1FFF80
07FF80
000780
ENDCHAR
STARTCHAR uni04A9
ENCODING 1193
SWIDTH 655 0
DWIDTH 16 0
BBX 14 14 1 -1
BITMAP
0F80
3F00
7F00
78F0
F1F8
F3FC
F39C
F39C
F39C
7BF8
7FF8
3FFC
0FFC
003C
ENDCHAR
STARTCHAR uni04AA
ENCODING 1194
SWIDTH 637 0
DWIDTH 15 0
BBX 13 23 1 -6
BITMAP
07E0
1FF8
3FF8
3C30
7800
7800
7000
F000
F000
F000
F000
7800
7800
7C18
3FF8
1FF8
07F0
0180
00C0
00C0
00E0
03C0
0380
ENDCHAR
STARTCHAR uni04AB
ENCODING 1195
SWIDTH 514 0
DWIDTH 12 0
BBX 10 19 1 -6
BITMAP
1F80
3FC0
7FC0
7800
F000
F000
F000
F000
F000
F840
7FC0
3FC0
1F80
0600
0300
0380
0380
0F00
0F00
ENDCHAR
STARTCHAR uni04AC
ENCODING 1196
SWIDTH 579 0
DWIDTH 14 0
BBX 13 22 0 -5
BITMAP
FFF8
FFF8
FFF8
0780
0780
0780
0780
0780
0780
0780
0780
0780
0780
0780
07F0
07F0
07F0
0070
0070
0070
0070
0070
ENDCHAR
STARTCHAR uni04AD
ENCODING 1197
SWIDTH 549 0
DWIDTH 13 0
BBX 12 18 1 -5
BITMAP
FFF0
FFF0
FFF0
0E00
0E00
0E00
0E00
0E00
0E00
0E00
0FE0
0FE0
0FE0
01E0
01E0
01E0
01E0
01E0
ENDCHAR
STARTCHAR uni04AE
ENCODING 1198
SWIDTH 624 0
DWIDTH 15 0
BBX 15 17 0 0
BITMAP
F01E
783C
783C
3C78
3C78
1EF0
0EE0
0FE0
07C0
07C0
0380
0380
0380
0380
0380
0380
0380
ENDCHAR
STARTCHAR uni04AF
ENCODING 1199
SWIDTH 574 0
DWIDTH 14 0
BBX 14 19 0 -6
BITMAP
F03C
7878
7878
7878
3CF0
3CF0
1CE0
1FE0
1FE0
0FC0
0FC0
0780
0780
0780
0780
0780
0780
0780
0780
ENDCHAR
STARTCHAR uni04B0
ENCODING 1200
SWIDTH 624 0
DWIDTH 15 0
BBX 15 17 0 0
BITMAP
F01E
783C
783C
3C78
3C78
1EF0
0EE0
0FE0
07C0
07C0
0380
3FF8
3FF8
3FF8
0380
0380
0380
ENDCHAR
STARTCHAR uni04B1
ENCODING 1201
SWIDTH 574 0
DWIDTH 14 0
BBX 14 19 0 -6
BITMAP
F03C
7878
7878
7878
3CF0
3CF0
1CE0
1FE0
1FE0
0FC0
0FC0
0780
0780
3FF0
3FF0
3FF0
0780
0780
0780
ENDCHAR
STARTCHAR uni04B2
ENCODING 1202
SWIDTH 743 0
DWIDTH 18 0
BBX 17 22 0 -5
BITMAP
781E00
781E00
3C3C00
1E3800
1E7800
0FF000
07F000
07E000
03C000
07E000
0FF000
0E7000
1E7800
3C3C00
383F80
781F80
F00F80
000380
000380
000380
000380
000380
ENDCHAR
STARTCHAR uni04B3
ENCODING 1203
SWIDTH 640 0
DWIDTH 15 0
BBX 15 18 0 -5
BITMAP
7878
78F0
3CF0
1DE0
1FC0
0FC0
0F80
0FC0
1FE0
3DE0
3CFE
787E
F07E
000E
000E
000E
000E
000E
ENDCHAR
STARTCHAR uni04B4
ENCODING 1204
SWIDTH 930 0
DWIDTH 22 0
BBX 22 22 0 -5
BITMAP
FFFBC0
FFFBC0
FFFBC0
0703C0
0703C0
0703C0
0703C0
0703C0
0703C0
0703C0
0703C0
0703C0
0703C0
0703C0
07FFFC
07FFFC
07FFFC
00003C
00003C
00003C
00003C
00003C
ENDCHAR
STARTCHAR uni04B5
ENCODING 1205
SWIDTH 791 0
DWIDTH 19 0
BBX 18 18 1 -5
BITMAP
FFDC00
FFDC00
FFDC00
1C1C00
1C1C00
1C1C00
1C1C00
1C1C00
1C1C00
1C1C00
1FFFC0
1FFFC0
1FFFC0
0003C0
0003C0
0003C0
0003C0
0003C0
ENDCHAR
STARTCHAR uni04B6
ENCODING 1206
SWIDTH 804 0
DWIDTH 19 0
BBX 18 22 1 -5
BITMAP
F03C00
F03C00
F03C00
F03C00
F03C00
F03C00
F03C00
F87C00
7FFC00
7FFC00
1FBC00
003C00
003C00
003C00
003FC0
003FC0
003FC0
0003C0
0003C0
0003C0
0003C0
0003C0
ENDCHAR
STARTCHAR uni04B7
ENCODING 1207
SWIDTH 726 0
DWIDTH 17 0
BBX 16 18 1 -5
BITMAP
F078
F078
F078
F078
F078
F078
7FF8
7FF8
3E78
0078
007F
007F
007F
0007
0007
0007
0007
0007
ENDCHAR
STARTCHAR uni04B8
ENCODING 1208
SWIDTH 728 0
DWIDTH 17 0
BBX 14 17 1 0
BITMAP
F03C
F03C
F03C
F03C
F33C
F33C
F33C
FB7C
7FFC
7FFC
3FBC
033C
033C
033C
033C
003C
003C
ENDCHAR
STARTCHAR uni04B9
ENCODING 1209
SWIDTH 655 0
DWIDTH 16 0
BBX 13 13 1 0
BITMAP
F078
F078
F078
F278
F278
7278
7FF8
7FF8
3F78
0278
0278
0078
0078
ENDCHAR
STARTCHAR uni04BA
ENCODING 1210
SWIDTH 728 0
DWIDTH 17 0
BBX 14 17 2 0
BITMAP
F000
F000
F000
F000
F000
F000
F7F0
FFF8
FFFC
F87C
F03C
F03C
F03C
F03C
F03C
F03C
F03C
ENDCHAR
STARTCHAR uni04BB
ENCODING 1211
SWIDTH 666 0
DWIDTH 16 0
BBX 12 13 2 0
BITMAP
E000
E000
E000
E000
E7C0
FFF0
FFF0
E070
E070
E070
E070
E070
E070
ENDCHAR
STARTCHAR uni04BC
ENCODING 1212
SWIDTH 948 0
DWIDTH 23 0
BBX 21 17 0 0
BITMAP
003F00
00FFC0
01FFE0
03E1F0
078070
E78078
E70078
FFFFF8
FFFFF8
7FFFF8
070000
078000
078010
03E070
03FFF0
00FFF0
003F80
ENDCHAR
STARTCHAR uni04BD
ENCODING 1213
SWIDTH 714 0
DWIDTH 17 0
BBX 16 13 0 0
BITMAP
01F8
03FC
07FE
EF0F
EE07
FFFF
7FFF
0E00
0F00
0F00
07FE
03FE
00FC
ENDCHAR
STARTCHAR uni04BE
ENCODING 1214
SWIDTH 948 0
DWIDTH 23 0
BBX 21 22 0 -5
BITMAP
003F00
00FFC0
01FFE0
03E1F0
078070
E78078
E70078
FFFFF8
FFFFF8
7FFFF8
070000
078000
078000
03E070
03FFF0
00FFF0
003FC0
001E00
001E00
001E00
001E00
001E00
ENDCHAR
STARTCHAR uni04BF
ENCODING 1215
SWIDTH 714 0
DWIDTH 17 0
BBX 16 18 0 -5
BITMAP
01F8
03FC
07FE
EF0F
EE07
FFFF
7FFF
0E00
0F00
0F00
07FE
03FE
01FC
0070
0070
0070
0070
0070
ENDCHAR
STARTCHAR uni04C0
ENCODING 1216
SWIDTH 389 0
DWIDTH 9 0
BBX 7 17 1 0
BITMAP
FE
FE
7E
38
38
38
38
38
38
38
38
38
38
38
7E
FE
FE
ENDCHAR
STARTCHAR uni04C1
ENCODING 1217
SWIDTH 942 0
DWIDTH 23 0
BBX 23 23 0 0
BITMAP
038380
038780
03FF00
00FC00
000000
000000
70383C
78383C
3C3878
1E38F0
0E38E0
0F39E0
07BBC0
03BB80
03FF80
07BBC0
0739C0
0F39E0
1E38F0
3C3878
3C3878
78383C
F0381E
ENDCHAR
STARTCHAR uni04C2
ENCODING 1218
SWIDTH 873 0
DWIDTH 21 0
BBX 21 19 0 0
BITMAP
070700
078F00
03FE00
01FC00
000000
000000
7870F0
3870E0
3C71E0
1E73C0
0E7780
077700
07FF00
0F7780
0E7380
1C71C0
3C71E0
7870F0
F07078
ENDCHAR
STARTCHAR uni04C3
ENCODING 1219
SWIDTH 759 0
DWIDTH 18 0
BBX 15 23 2 -6
BITMAP
F03C
F078
F0F0
F1E0
F3C0
F380
F780
FF00
FFE0
FFF0
FFF8
F07C
F03C
F01E
F01E
F01E
F01E
001E
003C
047C
07F8
07F8
07E0
ENDCHAR
STARTCHAR uni04C4
ENCODING 1220
SWIDTH 661 0
DWIDTH 16 0
BBX 13 19 2 -6
BITMAP
E0F0
E1E0
E3C0
E380
E780
EF00
FFC0
FFE0
FFF0
E0F8
E078
E078
E038
0078
0078
08F0
0FF0
0FE0
0FC0
ENDCHAR
STARTCHAR uni04C5
ENCODING 1221
SWIDTH 837 0
DWIDTH 20 0
BBX 19 22 0 -5
BITMAP
07FF00
07FF00
07FF00
0F0F00
0F0F00
0F0F00
0E0F00
0E0F00
0E0F00
1E0F00
1E0F00
1E0F00
1C0F00
3C0F00
FC0FE0
F80FE0
F00FE0
0001E0
0001C0
0001C0
0003C0
0003C0
ENDCHAR
STARTCHAR uni04C6
ENCODING 1222
SWIDTH 727 0
DWIDTH 17 0
BBX 17 18 0 -5
BITMAP
0FF800
1FF800
1FF800
1C3800
1C3800
1C3800
1C3800
1C3800
3C3800
3C3800
F83F80
F83F80
F03F00
000700
000700
000F00
000E00
000E00
ENDCHAR
STARTCHAR uni04C7
ENCODING 1223
SWIDTH 765 0
DWIDTH 18 0
BBX 14 23 2 -6
BITMAP
F03C
F03C
F03C
F03C
F03C
F03C
F03C
FFFC
FFFC
FFFC
F03C
F03C
F03C
F03C
F03C
F03C
F03C
003C
003C
0878
0FF8
0FF0
0FC0
ENDCHAR
STARTCHAR uni04C8
ENCODING 1224
SWIDTH 662 0
DWIDTH 16 0
BBX 12 19 2 -6
BITMAP
E070
E070
E070
E070
E070
FFF0
FFF0
FFF0
E070
E070
E070
E070
E070
00F0
00F0
11F0
1FE0
1FC0
1F80
ENDCHAR
STARTCHAR uni04C9
ENCODING 1225
SWIDTH 857 0
DWIDTH 21 0
BBX 18 22 2 -5
BITMAP
F01C00
F01C00
F01C00
F01C00
F01C00
F01C00
F01C00
FFFC00
FFFC00
FFFC00
F01C00
F01C00
F01C00
F01C00
F01FC0
F01FC0
F01FC0
0003C0
000380
000780
000780
000F00
ENDCHAR
STARTCHAR uni04CA
ENCODING 1226
SWIDTH 744 0
DWIDTH 18 0
BBX 16 18 2 -5
BITMAP
E070
E070
E070
E070
E070
FFF0
FFF0
FFF0
E070
E070
E07F
E07E
E07E
000E
000E
001C
001C
001C
ENDCHAR
STARTCHAR uni04CB
ENCODING 1227
SWIDTH 728 0
DWIDTH 17 0
BBX 14 22 1 -5
BITMAP
F03C
F03C
F03C
F03C
F03C
F03C
F03C
F87C
7FFC
7FFC
3FBC
003C
003C
003C
00FC
00FC
00FC
00E0
00E0
00E0
00E0
00E0
ENDCHAR
STARTCHAR uni04CC
ENCODING 1228
SWIDTH 655 0
DWIDTH 16 0
BBX 13 18 1 -5
BITMAP
F078
F078
F078
F078
F078
7078
7FF8
7FF8
3F78
0078
01F8
01F8
01F8
01C0
01C0
01C0
01C0
01C0
ENDCHAR
STARTCHAR uni04CD
ENCODING 1229
SWIDTH 1036 0
DWIDTH 25 0
BBX 22 22 2 -5
BITMAP
F807E0
FC07E0
FC07E0
FC0FE0
EE0FE0
EE0FE0
EE1DE0
E61DE0
E71DE0
E739E0
E739E0
E3B9E0
E3F1E0
E3F1E0
E1F1FC
E1E1FC
E1E1FC
00003C
000038
000078
000078
000078
ENDCHAR
STARTCHAR uni04CE
ENCODING 1230
SWIDTH 925 0
DWIDTH 22 0
BBX 20 18 2 -5
BITMAP
F81F00
F81F00
FC3F00
FC3F00
EE3700
EE7700
EE7700
E7E700
E7E700
E7E700
E3C7F0
E3C7E0
E1C7E0
0000E0
0000E0
0001E0
0001C0
0001C0
ENDCHAR
STARTCHAR uni04CF
ENCODING 1231
SWIDTH 389 0
DWIDTH 9 0
BBX 7 17 1 0
BITMAP
FE
FE
7E
38
38
38
38
38
38
38
38
38
38
38
7E
FE
FE
ENDCHAR
STARTCHAR uni04D0
ENCODING 1232
SWIDTH 689 0
DWIDTH 17 0
BBX 17 23 0 0
BITMAP
1C1C00
1C3C00
1FF800
07E000
000000
000000
03E000
03E000
07F000
077000
077000
0F7800
0E3800
1E3C00
1E3C00
1C1C00
3FFE00
3FFE00
3FFE00
780F00
780F00
780F00
F00780
ENDCHAR
STARTCHAR uni04D1
ENCODING 1233
SWIDTH 604 0
DWIDTH 15 0
BBX 12 19 1 0
BITMAP
7070
78F0
3FE0
1FC0
0000
0000
1F80
7FE0
3FF0
20F0
00F0
1FF0
7FF0
F8F0
F0F0
F0F0
FFF0
7F70
3E70
ENDCHAR
STARTCHAR uni04D2
ENCODING 1234
SWIDTH 689 0
DWIDTH 17 0
BBX 17 22 0 0
BITMAP
063000
0F7800
063000
000000
000000
03E000
03E000
07F000
077000
077000
0F7800
0E3800
1E3C00
1E3C00
1C1C00
3FFE00
3FFE00
3FFE00
780F00
780F00
780F00
F00780
ENDCHAR
STARTCHAR uni04D3
ENCODING 1235
SWIDTH 604 0
DWIDTH 15 0
BBX 12 18 1 0
BITMAP
19C0
3DC0
18C0
0000
0000
1F80
7FE0
3FF0
20F0
00F0
1FF0
7FF0
F8F0
F0F0
F0F0
FFF0
7F70
3E70
ENDCHAR
STARTCHAR uni04D4
ENCODING 1236
SWIDTH 952 0
DWIDTH 23 0
BBX 22 17 0 0
BITMAP
01FFFC
01FFFC
01FFFC
03DE00
039E00
079E00
071E00
0F1FF8
0E1FF8
1E1FF8
1FFE00
3FFE00
3FFE00
381E00
781FFC
701FFC
F01FFC
ENDCHAR
STARTCHAR uni04D5
ENCODING 1237
SWIDTH 916 0
DWIDTH 22 0
BBX 20 13 1 0
BITMAP
1F8F80
7FFFC0
3FFFE0
00F0F0
00F070
1FFFF0
7FFFF0
F8F000
F0F000
F1F000
FFFFE0
7FBFE0
3E0FC0
ENDCHAR
STARTCHAR uni04D6
ENCODING 1238
SWIDTH 560 0
DWIDTH 13 0
BBX 12 23 1 0
BITMAP
F070
70F0
7FE0
1F80
0000
0000
7FE0
7FE0
7FE0
7800
7800
7800
7800
7FC0
7FC0
7FC0
7800
7800
7800
7800
7FE0
7FE0
7FE0
ENDCHAR
STARTCHAR uni04D7
ENCODING 1239
SWIDTH 590 0
DWIDTH 14 0
BBX 12 19 1 0
BITMAP
7070
70F0
7FE0
1FC0
0000
0000
1F80
3FC0
7FE0
70F0
F070
FFF0
FFF0
F000
F000
7800
7FE0
3FE0
0FC0
ENDCHAR
STARTCHAR uni04D8
ENCODING 1240
SWIDTH 816 0
DWIDTH 20 0
BBX 17 17 2 0
BITMAP
0FE000
7FF800
7FFC00
703E00
400F00
000F00
000700
FFFF00
FFFF80
FFFF00
F00700
F00F00
700F00
7C3E00
3FFE00
1FF800
07E000
ENDCHAR
STARTCHAR uni04D9
ENCODING 1241
SWIDTH 590 0
DWIDTH 14 0
BBX 12 13 1 0
BITMAP
3F00
7FC0
7FE0
00E0
00F0
FFF0
FFF0
E0F0
E0F0
F0E0
7FE0
3FC0
1F80
ENDCHAR
STARTCHAR uni04DA
ENCODING 1242
SWIDTH 816 0
DWIDTH 20 0
BBX 17 22 2 0
BITMAP
0E7000
0E7000
067000
000000
000000
0FE000
7FF800
7FFC00
703E00
400F00
000F00
000700
FFFF00
FFFF80
FFFF00
F00700
F00F00
700F00
7C3E00
3FFE00
1FF800
07E000
ENDCHAR
STARTCHAR uni04DB
ENCODING 1243
SWIDTH 590 0
DWIDTH 14 0
BBX 12 18 1 0
BITMAP
19C0
3DE0
18C0
0000
0000
3F00
7FC0
7FE0
00E0
00F0
FFF0
FFF0
E0F0
E0F0
F0E0
7FE0
3FC0
1F80
ENDCHAR
STARTCHAR uni04DC
ENCODING 1244
SWIDTH 942 0
DWIDTH 23 0
BBX 23 22 0 0
BITMAP
00C600
01EF00
00C600
000000
000000
70383C
78383C
3C3878
1E38F0
0E38E0
0F39E0
07BBC0
03BB80
03FF80
07BBC0
0739C0
0F39E0
1E38F0
3C3878
3C3878
78383C
F0381E
ENDCHAR
STARTCHAR uni04DD
ENCODING 1245
SWIDTH 873 0
DWIDTH 21 0
BBX 21 18 0 0
BITMAP
01CC00
01DE00
018C00
000000
000000
7870F0
3870E0
3C71E0
1E73C0
0E7780
077700
07FF00
0F7780
0E7380
1C71C0
3C71E0
7870F0
F07078
ENDCHAR
STARTCHAR uni04DE
ENCODING 1246
SWIDTH 647 0
DWIDTH 16 0
BBX 14 22 1 0
BITMAP
1CE0
1CE0
1CE0
0000
0000
1FC0
7FF0
7FF8
6078
0038
0038
00F8
1FE0
1FC0
1FF0
0078
003C
003C
C07C
FFF8
FFF0
7FC0
ENDCHAR
STARTCHAR uni04DF
ENCODING 1247
SWIDTH 555 0
DWIDTH 13 0
BBX 11 18 1 0
BITMAP
39C0
39C0
39C0
0000
0000
7F80
FFC0
7FE0
00E0
01E0
1FC0
1F80
0FE0
00E0
81E0
FFE0
FFC0
7F00
ENDCHAR
STARTCHAR uni04E0
ENCODING 1248
SWIDTH 590 0
DWIDTH 14 0
BBX 12 17 1 0
BITMAP
FFE0
FFE0
FFE0
03C0
0780
0F00
1E00
3F80
3FE0
0FF0
00F0
00F0
00F0
80F0
FFE0
FFC0
7F00
ENDCHAR
STARTCHAR uni04E1
ENCODING 1249
SWIDTH 581 0
DWIDTH 14 0
BBX 12 19 1 -6
BITMAP
FFF0
FFF0
FFE0
03C0
0780
0F00
1E00
3F00
3FC0
3FE0
01F0
00F0
00F0
00F0
00F0
81F0
FFE0
FFC0
7F00
ENDCHAR
STARTCHAR uni04E2
ENCODING 1250
SWIDTH 823 0
DWIDTH 20 0
BBX 16 21 2 0
BITMAP
0FF0
0FF0
0000
0000
E01F
E03F
E03F
E07F
E077
E0F7
E1E7
E1C7
E3C7
E787
E787
EF07
EE07
FE07
FC07
FC07
F807
ENDCHAR
STARTCHAR uni04E3
ENCODING 1251
SWIDTH 720 0
DWIDTH 17 0
BBX 13 17 2 0
BITMAP
1FE0
1FE0
0000
0000
E078
E0F8
E1F8
E1F8
E3F8
E7B8
E738
EF38
FE38
FC38
FC38
F838
F038
ENDCHAR
STARTCHAR uni04E4
ENCODING 1252
SWIDTH 823 0
DWIDTH 20 0
BBX 16 22 2 0
BITMAP
0E70
0E70
0E70
0000
0000
E01F
E03F
E03F
E07F
E077
E0F7
E1E7
E1C7
E3C7
E787
E787
EF07
EE07
FE07
FC07
FC07
F807
ENDCHAR
STARTCHAR uni04E5
ENCODING 1253
SWIDTH 720 0
DWIDTH 17 0
BBX 13 18 2 0
BITMAP
1CE0
1CE0
1CE0
0000
0000
E078
E0F8
E1F8
E1F8
E3F8
E7B8
E738
EF38
FE38
FC38
FC38
F838
F038
ENDCHAR
ENDFONT
